<?xml version="1.0" encoding="UTF-8"?>
<svg width="13px" height="13px" viewBox="0 0 13 13" version="1.1" xmlns="http://www.w3.org/2000/svg" xmlns:xlink="http://www.w3.org/1999/xlink">
    <!-- Generator: Sketch 58 (84663) - https://sketch.com -->
    <title>icons/web-application/anchor</title>
    <desc>Created with Sketch.</desc>
    <g id="icons/web-application/anchor" stroke="none" stroke-width="1" fill="none" fill-rule="evenodd">
        <path d="M0.272278497,8.24999693 L1.0058045,8.24999693 C1.4995997,10.6578505 4.09848365,12 6.5,12 C8.90544075,12 11.5009734,10.6551551 11.9942025,8.24999693 L12.7277285,8.24999693 C12.9698143,8.24999693 13.0910497,7.94704356 12.9198619,7.76987935 L11.4020649,6.19888587 C11.2959557,6.08905766 11.1239074,6.08905766 11.0177756,6.19888587 L9.49997859,7.76987935 C9.32879082,7.94706699 9.45002618,8.24999693 9.69211196,8.24999693 L10.4879539,8.24999693 C10.0285095,9.52305266 8.56406154,10.2794048 7.22458518,10.4534753 L7.22458518,6 L8.40206719,6 C8.55212822,6 8.67379381,5.87406529 8.67379381,5.71874486 L8.67379381,4.78124409 C8.67379381,4.62592365 8.55212822,4.5 8.40206719,4.5 L7.22458518,4.5 L7.22458518,4.37179063 C8.06877185,4.062931 8.67368059,3.2297975 8.67379381,2.25027326 C8.67392967,1.02589726 7.71382896,0.0172870599 6.53102563,0.000224545939 C5.31624914,-0.0173301559 4.32619056,0.996670675 4.32619056,2.24999201 C4.32619056,3.22963344 4.93114459,4.06288412 5.77539919,4.37179063 L5.77539919,4.5 L4.59791718,4.5 C4.44785615,4.5 4.32619056,4.62592365 4.32619056,4.78124409 L4.32619056,5.71874486 C4.32619056,5.87406529 4.44785615,6 4.59791718,6 L5.77539919,6 L5.77539919,10.4534753 C4.44085919,10.2800611 2.97163337,9.52349797 2.51203044,8.24999693 L3.30787241,8.24999693 C3.54995819,8.24999693 3.67119355,7.94704356 3.5,7.76987935 L1.98220882,6.19888587 C1.87609957,6.08905766 1.70405134,6.08905766 1.59791945,6.19888587 L0.0801224899,7.76987935 C-0.0910426358,7.94704356 0.0301927238,8.24999693 0.272278497,8.24999693 Z M6.50000351,1.4999914 C6.89955486,1.4999914 7.22460782,1.83643699 7.22460782,2.24999201 C7.22460782,2.66354704 6.89955486,2.9999914 6.50000351,2.9999914 C6.10045216,2.9999914 5.77539919,2.66354704 5.77539919,2.24999201 C5.77539919,1.83643699 6.10045216,1.4999914 6.50000351,1.4999914 Z" id="Shape" fill="#676A6C" fill-rule="nonzero"></path>
    </g>
</svg>