<?xml version="1.0" encoding="UTF-8"?>
<svg width="13px" height="13px" viewBox="0 0 13 13" version="1.1" xmlns="http://www.w3.org/2000/svg" xmlns:xlink="http://www.w3.org/1999/xlink">
    <!-- Generator: Sketch 58 (84663) - https://sketch.com -->
    <title>icons/web-application/archive</title>
    <desc>Created with Sketch.</desc>
    <g id="icons/web-application/archive" stroke="none" stroke-width="1" fill="none" fill-rule="evenodd">
        <path d="M0.8125,11.1428571 C0.8125,11.6169643 1.17558594,12 1.625,12 L11.375,12 C11.8244141,12 12.1875,11.6169643 12.1875,11.1428571 L12.1875,3.42857143 L0.8125,3.42857143 L0.8125,11.1428571 Z M4.875,5.46428571 C4.875,5.2875 5.01210938,5.14285714 5.1796875,5.14285714 L7.8203125,5.14285714 C7.98789063,5.14285714 8.125,5.2875 8.125,5.46428571 L8.125,5.67857143 C8.125,5.85535714 7.98789063,6 7.8203125,6 L5.1796875,6 C5.01210938,6 4.875,5.85535714 4.875,5.67857143 L4.875,5.46428571 Z M12.1875,0 L0.8125,0 C0.363085938,0 0,0.383035714 0,0.857142857 L0,2.14285714 C0,2.37857143 0.1828125,2.57142857 0.40625,2.57142857 L12.59375,2.57142857 C12.8171875,2.57142857 13,2.37857143 13,2.14285714 L13,0.857142857 C13,0.383035714 12.6369141,0 12.1875,0 Z" id="Shape" fill="#676A6C" fill-rule="nonzero"></path>
    </g>
</svg>