<?xml version="1.0" encoding="UTF-8"?>
<svg width="13px" height="13px" viewBox="0 0 13 13" version="1.1" xmlns="http://www.w3.org/2000/svg" xmlns:xlink="http://www.w3.org/1999/xlink">
    <!-- Generator: Sketch 58 (84663) - https://sketch.com -->
    <title>icons/web-application/asterisk</title>
    <desc>Created with Sketch.</desc>
    <g id="icons/web-application/asterisk" stroke="none" stroke-width="1" fill="none" fill-rule="evenodd">
        <path d="M12.6550727,8.48283008 L8.71594804,6.5 L12.6550727,4.51716992 C12.9817865,4.35271484 13.097182,3.9742168 12.9107931,3.67833984 L12.3712097,2.82163477 C12.1848485,2.52575781 11.7695798,2.42810547 11.4508434,2.60523047 L7.60797402,4.74088672 L7.70422926,0.622425781 C7.71220668,0.280845703 7.41233351,0 7.03958335,0 L5.96041665,0 C5.58769419,0 5.28779332,0.280845703 5.29579844,0.622425781 L5.39202598,4.74088672 L1.54915659,2.60525586 C1.23044786,2.42813086 0.815151503,2.5257832 0.628790273,2.82166016 L0.0892069256,3.67836523 C-0.0971543044,3.97424219 0.0182411897,4.35274023 0.344955029,4.51719531 L4.28405196,6.5 L0.344927329,8.48283008 C0.0182134904,8.64728516 -0.0971820037,9.0257832 0.0892069256,9.32166016 L0.628790273,10.1783652 C0.815151503,10.4742422 1.23044786,10.5718945 1.54915659,10.3947695 L5.39202598,8.25911328 L5.29577074,12.3775742 C5.28779332,12.7191543 5.58769419,13 5.96041665,13 L7.03961105,13 C7.41233351,13 7.71223437,12.7191543 7.70425696,12.3775742 L7.60797402,8.25911328 L11.4508434,10.3947441 C11.7695521,10.5718691 12.1848485,10.4742168 12.3712097,10.1783398 L12.9107931,9.32163477 C13.0971543,9.02575781 12.9817865,8.64728516 12.6550727,8.48283008 Z" id="Path" fill="#676A6C" fill-rule="nonzero"></path>
    </g>
</svg>