<?xml version="1.0" encoding="UTF-8"?>
<svg width="13px" height="13px" viewBox="0 0 13 13" version="1.1" xmlns="http://www.w3.org/2000/svg" xmlns:xlink="http://www.w3.org/1999/xlink">
    <!-- Generator: Sketch 58 (84663) - https://sketch.com -->
    <title>icons/web-application/bar-chart</title>
    <desc>Created with Sketch.</desc>
    <g id="icons/web-application/bar-chart" stroke="none" stroke-width="1" fill="none" fill-rule="evenodd">
        <path d="M10.075,8.5 L10.64375,8.5 C10.80625,8.5 10.96875,8.33333333 10.96875,8.16666667 L10.96875,2.16666667 C10.96875,2 10.80625,1.83333333 10.64375,1.83333333 L10.075,1.83333333 C9.9125,1.83333333 9.75,2 9.75,2.16666667 L9.75,8.16666667 C9.75,8.33333333 9.9125,8.5 10.075,8.5 Z M5.2,8.5 L5.76875,8.5 C5.93125,8.5 6.09375,8.33333333 6.09375,8.16666667 L6.09375,3 C6.09375,2.83333333 5.93125,2.66666667 5.76875,2.66666667 L5.2,2.66666667 C5.0375,2.66666667 4.875,2.83333333 4.875,3 L4.875,8.16666667 C4.875,8.33333333 5.0375,8.5 5.2,8.5 L5.2,8.5 Z M7.6375,8.5 L8.20625,8.5 C8.36875,8.5 8.53125,8.33333333 8.53125,8.16666667 L8.53125,4.66666667 C8.53125,4.5 8.36875,4.33333333 8.20625,4.33333333 L7.6375,4.33333333 C7.475,4.33333333 7.3125,4.5 7.3125,4.66666667 L7.3125,8.16666667 C7.3125,8.33333333 7.475,8.5 7.6375,8.5 L7.6375,8.5 Z M12.59375,9.75 L1.21875,9.75 L1.21875,1.41666667 C1.21875,1.18645833 1.03695313,1 0.8125,1 L0.40625,1 C0.181796875,1 0,1.18645833 0,1.41666667 L0,10.1666667 C0,10.6268229 0.363847656,11 0.8125,11 L12.59375,11 C12.8182031,11 13,10.8135417 13,10.5833333 L13,10.1666667 C13,9.93645833 12.8182031,9.75 12.59375,9.75 Z M2.7625,8.5 L3.33125,8.5 C3.49375,8.5 3.65625,8.33333333 3.65625,8.16666667 L3.65625,6.33333333 C3.65625,6.16666667 3.49375,6 3.33125,6 L2.7625,6 C2.6,6 2.4375,6.16666667 2.4375,6.33333333 L2.4375,8.16666667 C2.4375,8.33333333 2.6,8.5 2.7625,8.5 L2.7625,8.5 Z" id="Shape" fill="#676A6C" fill-rule="nonzero"></path>
    </g>
</svg>