<?xml version="1.0" encoding="UTF-8"?>
<svg width="13px" height="13px" viewBox="0 0 13 13" version="1.1" xmlns="http://www.w3.org/2000/svg" xmlns:xlink="http://www.w3.org/1999/xlink">
    <!-- Generator: Sketch 58 (84663) - https://sketch.com -->
    <title>icons/web-application/bars</title>
    <desc>Created with Sketch.</desc>
    <g id="icons/web-application/bars" stroke="none" stroke-width="1" fill="none" fill-rule="evenodd">
        <g id="bars" transform="translate(0.000000, 1.000000)" fill="#676A6C" fill-rule="nonzero">
            <path d="M0.464285714,2.02040816 L12.5357143,2.02040816 C12.7921451,2.02040816 13,1.81940561 13,1.57142857 L13,0.448979592 C13,0.201002551 12.7921451,0 12.5357143,0 L0.464285714,0 C0.207854911,0 0,0.201002551 0,0.448979592 L0,1.57142857 C0,1.81940561 0.207854911,2.02040816 0.464285714,2.02040816 Z M0.464285714,6.51020408 L12.5357143,6.51020408 C12.7921451,6.51020408 13,6.30920153 13,6.06122449 L13,4.93877551 C13,4.69079847 12.7921451,4.48979592 12.5357143,4.48979592 L0.464285714,4.48979592 C0.207854911,4.48979592 0,4.69079847 0,4.93877551 L0,6.06122449 C0,6.30920153 0.207854911,6.51020408 0.464285714,6.51020408 Z M0.464285714,11 L12.5357143,11 C12.7921451,11 13,10.7989974 13,10.5510204 L13,9.42857143 C13,9.18059439 12.7921451,8.97959184 12.5357143,8.97959184 L0.464285714,8.97959184 C0.207854911,8.97959184 0,9.18059439 0,9.42857143 L0,10.5510204 C0,10.7989974 0.207854911,11 0.464285714,11 Z" id="Shape"></path>
        </g>
    </g>
</svg>