<?xml version="1.0" encoding="UTF-8"?>
<svg width="11px" height="13px" viewBox="0 0 11 13" version="1.1" xmlns="http://www.w3.org/2000/svg" xmlns:xlink="http://www.w3.org/1999/xlink">
    <!-- Generator: Sketch 58 (84663) - https://sketch.com -->
    <title>icons/web-application/bell</title>
    <desc>Created with Sketch.</desc>
    <g id="icons/web-application/bell" stroke="none" stroke-width="1" fill="none" fill-rule="evenodd">
        <g id="bell" fill="#676A6C" fill-rule="nonzero">
            <path d="M5.5,13 C6.36337778,13 7.06371111,12.2725586 7.06371111,11.375 L3.93628889,11.375 C3.93628889,12.2725586 4.63662222,13 5.5,13 Z M10.7650889,9.19876953 C10.2928222,8.67166016 9.40915556,7.87871094 9.40915556,5.28125 C9.40915556,3.30839844 8.07742222,1.72910156 6.28173333,1.34164062 L6.28173333,0.8125 C6.28173333,0.363847656 5.93168889,0 5.5,0 C5.06831111,0 4.71826667,0.363847656 4.71826667,0.8125 L4.71826667,1.34164063 C2.92257778,1.72910156 1.59084444,3.30839844 1.59084444,5.28125 C1.59084444,7.87871094 0.707177778,8.67166016 0.234911111,9.19876953 C0.0882444444,9.36253906 0.0232222222,9.55830078 0.0244275438,9.75 C0.0271333333,10.1664062 0.341733333,10.5625 0.809111111,10.5625 L10.1908889,10.5625 C10.6582667,10.5625 10.9731111,10.1664062 10.9755725,9.75 C10.9767778,9.55830078 10.9117556,9.36228516 10.7650889,9.19876953 L10.7650889,9.19876953 Z" id="Shape"></path>
        </g>
    </g>
</svg>