<?xml version="1.0" encoding="UTF-8"?>
<svg width="11px" height="13px" viewBox="0 0 11 13" version="1.1" xmlns="http://www.w3.org/2000/svg" xmlns:xlink="http://www.w3.org/1999/xlink">
    <!-- Generator: Sketch 58 (84663) - https://sketch.com -->
    <title>icons/web-application/book</title>
    <desc>Created with Sketch.</desc>
    <g id="icons/web-application/book" stroke="none" stroke-width="1" fill="none" fill-rule="evenodd">
        <g id="book" fill="#676A6C" fill-rule="nonzero">
            <path d="M11,9.140625 L11,0.609375 C11,0.271679687 10.7372768,0 10.4107143,0 L2.35714286,0 C1.05580357,0 0,1.09179688 0,2.4375 L0,10.5625 C0,11.9082031 1.05580357,13 2.35714286,13 L10.4107143,13 C10.7372768,13 11,12.7283203 11,12.390625 L11,11.984375 C11,11.7939453 10.9140625,11.6212891 10.7814732,11.5095703 C10.6783482,11.1185547 10.6783482,10.0039062 10.7814732,9.61289063 C10.9140625,9.50371094 11,9.33105469 11,9.140625 Z M3.14285714,3.40234375 C3.14285714,3.31855469 3.20915179,3.25 3.29017857,3.25 L8.49553571,3.25 C8.5765625,3.25 8.64285714,3.31855469 8.64285714,3.40234375 L8.64285714,3.91015625 C8.64285714,3.99394531 8.5765625,4.0625 8.49553571,4.0625 L3.29017857,4.0625 C3.20915179,4.0625 3.14285714,3.99394531 3.14285714,3.91015625 L3.14285714,3.40234375 Z M3.14285714,5.02734375 C3.14285714,4.94355469 3.20915179,4.875 3.29017857,4.875 L8.49553571,4.875 C8.5765625,4.875 8.64285714,4.94355469 8.64285714,5.02734375 L8.64285714,5.53515625 C8.64285714,5.61894531 8.5765625,5.6875 8.49553571,5.6875 L3.29017857,5.6875 C3.20915179,5.6875 3.14285714,5.61894531 3.14285714,5.53515625 L3.14285714,5.02734375 Z M9.36473214,11.375 L2.35714286,11.375 C1.92254464,11.375 1.57142857,11.0119141 1.57142857,10.5625 C1.57142857,10.115625 1.925,9.75 2.35714286,9.75 L9.36473214,9.75 C9.31808036,10.1841797 9.31808036,10.9408203 9.36473214,11.375 Z" id="Shape"></path>
        </g>
    </g>
</svg>