<?xml version="1.0" encoding="UTF-8"?>
<svg width="13px" height="12px" viewBox="0 0 13 12" version="1.1" xmlns="http://www.w3.org/2000/svg" xmlns:xlink="http://www.w3.org/1999/xlink">
    <!-- Generator: Sketch 58 (84663) - https://sketch.com -->
    <title>icons/web-application/briefcase</title>
    <desc>Created with Sketch.</desc>
    <g id="icons/web-application/briefcase" stroke="none" stroke-width="1" fill="none" fill-rule="evenodd">
        <path d="M8.125,8.46428571 C8.125,8.68133929 7.94320312,8.85714286 7.71875,8.85714286 L5.28125,8.85714286 C5.05679687,8.85714286 4.875,8.68133929 4.875,8.46428571 L4.875,7.28571429 L0,7.28571429 L0,10.8214286 C0,11.45 0.56875,12 1.21875,12 L11.78125,12 C12.43125,12 13,11.45 13,10.8214286 L13,7.28571429 L8.125,7.28571429 L8.125,8.46428571 Z M11.78125,3.35714286 L9.75,3.35714286 L9.75,2.17857143 C9.75,1.55 9.18125,1 8.53125,1 L4.46875,1 C3.81875,1 3.25,1.55 3.25,2.17857143 L3.25,3.35714286 L1.21875,3.35714286 C0.56875,3.35714286 0,3.90714286 0,4.53571429 L0,6.5 L13,6.5 L13,4.53571429 C13,3.90714286 12.43125,3.35714286 11.78125,3.35714286 Z M8.125,3.35714286 L4.875,3.35714286 L4.875,2.57142857 L8.125,2.57142857 L8.125,3.35714286 Z" id="Shape" fill="#676A6C" fill-rule="nonzero"></path>
    </g>
</svg>