<?xml version="1.0" encoding="UTF-8"?>
<svg width="13px" height="13px" viewBox="0 0 13 13" version="1.1" xmlns="http://www.w3.org/2000/svg" xmlns:xlink="http://www.w3.org/1999/xlink">
    <!-- Generator: Sketch 58 (84663) - https://sketch.com -->
    <title>icons/web-application/bug</title>
    <desc>Created with Sketch.</desc>
    <g id="icons/web-application/bug" stroke="none" stroke-width="1" fill="none" fill-rule="evenodd">
        <path d="M12.9996865,7.33534619 C12.9875498,7.77790446 12.6133172,8.12499405 12.170606,8.12499405 L10.7656151,8.12499405 L10.7656151,8.53124375 C10.7656151,9.08638397 10.641658,9.61247733 10.4203024,10.0837524 L11.9495297,11.6129778 C12.2668111,11.9302842 12.2668111,12.4447233 11.9495297,12.7620297 C11.6321975,13.0793361 11.1177578,13.0793107 10.800451,12.7620297 L9.41066908,11.3722495 C8.78225079,11.8819151 7.98155703,12.1874911 7.10936323,12.1874911 L7.10936323,5.99218311 C7.10936323,5.82391956 6.97293934,5.68749583 6.80467558,5.68749583 L6.19530028,5.68749583 C6.02703652,5.68749583 5.89061262,5.82391956 5.89061262,5.99218311 L5.89061262,12.1874911 C5.01841882,12.1874911 4.21772506,11.8819151 3.58930678,11.3722495 L2.19952483,12.7620297 C1.88219264,13.0793361 1.36775293,13.0793107 1.05044613,12.7620297 C0.733164719,12.4447233 0.733164719,11.9302842 1.05044613,11.6129778 L2.57967346,10.0837524 C2.35831788,9.61247733 2.23436079,9.08638397 2.23436079,8.53124375 L2.23436079,8.12499405 L0.829395236,8.12499405 C0.386684076,8.12499405 0.0124514664,7.77790446 0.000314741534,7.33534619 C-0.0123044054,6.87618246 0.35616453,6.49999524 0.812485071,6.49999524 L2.23436079,6.49999524 L2.23436079,5.00842407 L1.05044613,3.82451087 C0.733164719,3.50720446 0.733164719,2.99276539 1.05044613,2.67545898 C1.36777832,2.35815257 1.88219264,2.35815257 2.19952483,2.67545898 L3.5865392,4.06249702 L9.41341127,4.06249702 L10.8004256,2.67548437 C11.1177578,2.35817796 11.6321721,2.35817796 11.9495043,2.67548437 C12.2667857,2.99279078 12.2667857,3.50722985 11.9495043,3.82453626 L10.7656151,5.00842407 L10.7656151,6.49999524 L12.1874908,6.49999524 C12.6438113,6.49999524 13.0122803,6.87618246 12.9996865,7.33534619 Z M6.52537857,0 C4.95481528,0 3.68162714,1.27318657 3.68162714,2.84374792 L9.36912999,2.84374792 C9.36912999,1.27318657 8.09594185,0 6.52537857,0 Z" id="Shape" fill="#676A6C" fill-rule="nonzero"></path>
    </g>
</svg>