<?xml version="1.0" encoding="UTF-8"?>
<svg width="13px" height="13px" viewBox="0 0 13 13" version="1.1" xmlns="http://www.w3.org/2000/svg" xmlns:xlink="http://www.w3.org/1999/xlink">
    <!-- Generator: Sketch 58 (84663) - https://sketch.com -->
    <title>icons/web-application/building</title>
    <desc>Created with Sketch.</desc>
    <g id="icons/web-application/building" stroke="none" stroke-width="1" fill="none" fill-rule="evenodd">
        <g id="building" transform="translate(1.000000, 0.000000)" fill="#676A6C" fill-rule="nonzero">
            <path d="M10.7053571,12.1875 L10.2142857,12.1875 L10.2142857,0.609375 C10.2142857,0.272822266 9.95045759,0 9.625,0 L1.375,0 C1.04954241,0 0.785714286,0.272822266 0.785714286,0.609375 L0.785714286,12.1875 L0.294642857,12.1875 C0.131926339,12.1875 0,12.3239238 0,12.4921875 L0,13 L11,13 L11,12.4921875 C11,12.3239238 10.8680737,12.1875 10.7053571,12.1875 Z M3.14285714,1.9296875 C3.14285714,1.76142383 3.27478348,1.625 3.4375,1.625 L4.41964286,1.625 C4.58235938,1.625 4.71428571,1.76142383 4.71428571,1.9296875 L4.71428571,2.9453125 C4.71428571,3.11357617 4.58235938,3.25 4.41964286,3.25 L3.4375,3.25 C3.27478348,3.25 3.14285714,3.11357617 3.14285714,2.9453125 L3.14285714,1.9296875 Z M3.14285714,4.3671875 C3.14285714,4.19892383 3.27478348,4.0625 3.4375,4.0625 L4.41964286,4.0625 C4.58235938,4.0625 4.71428571,4.19892383 4.71428571,4.3671875 L4.71428571,5.3828125 C4.71428571,5.55107617 4.58235938,5.6875 4.41964286,5.6875 L3.4375,5.6875 C3.27478348,5.6875 3.14285714,5.55107617 3.14285714,5.3828125 L3.14285714,4.3671875 Z M4.41964286,8.125 L3.4375,8.125 C3.27478348,8.125 3.14285714,7.98857617 3.14285714,7.8203125 L3.14285714,6.8046875 C3.14285714,6.63642383 3.27478348,6.5 3.4375,6.5 L4.41964286,6.5 C4.58235938,6.5 4.71428571,6.63642383 4.71428571,6.8046875 L4.71428571,7.8203125 C4.71428571,7.98857617 4.58235938,8.125 4.41964286,8.125 Z M6.28571429,12.1875 L4.71428571,12.1875 L4.71428571,10.0546875 C4.71428571,9.88642383 4.84621205,9.75 5.00892857,9.75 L5.99107143,9.75 C6.15378795,9.75 6.28571429,9.88642383 6.28571429,10.0546875 L6.28571429,12.1875 Z M7.85714286,7.8203125 C7.85714286,7.98857617 7.72521652,8.125 7.5625,8.125 L6.58035714,8.125 C6.41764062,8.125 6.28571429,7.98857617 6.28571429,7.8203125 L6.28571429,6.8046875 C6.28571429,6.63642383 6.41764062,6.5 6.58035714,6.5 L7.5625,6.5 C7.72521652,6.5 7.85714286,6.63642383 7.85714286,6.8046875 L7.85714286,7.8203125 Z M7.85714286,5.3828125 C7.85714286,5.55107617 7.72521652,5.6875 7.5625,5.6875 L6.58035714,5.6875 C6.41764062,5.6875 6.28571429,5.55107617 6.28571429,5.3828125 L6.28571429,4.3671875 C6.28571429,4.19892383 6.41764062,4.0625 6.58035714,4.0625 L7.5625,4.0625 C7.72521652,4.0625 7.85714286,4.19892383 7.85714286,4.3671875 L7.85714286,5.3828125 Z M7.85714286,2.9453125 C7.85714286,3.11357617 7.72521652,3.25 7.5625,3.25 L6.58035714,3.25 C6.41764062,3.25 6.28571429,3.11357617 6.28571429,2.9453125 L6.28571429,1.9296875 C6.28571429,1.76142383 6.41764062,1.625 6.58035714,1.625 L7.5625,1.625 C7.72521652,1.625 7.85714286,1.76142383 7.85714286,1.9296875 L7.85714286,2.9453125 Z" id="Shape"></path>
        </g>
    </g>
</svg>