<?xml version="1.0" encoding="UTF-8"?>
<svg width="13px" height="13px" viewBox="0 0 13 13" version="1.1" xmlns="http://www.w3.org/2000/svg" xmlns:xlink="http://www.w3.org/1999/xlink">
    <!-- Generator: Sketch 58 (84663) - https://sketch.com -->
    <title>icons/web-application/bullseye</title>
    <desc>Created with Sketch.</desc>
    <g id="icons/web-application/bullseye" stroke="none" stroke-width="1" fill="none" fill-rule="evenodd">
        <path d="M6.5,0 C2.91006048,0 0,2.91006048 0,6.5 C0,10.0899395 2.91006048,13 6.5,13 C10.0899395,13 13,10.0899395 13,6.5 C13,2.91006048 10.0899395,0 6.5,0 Z M6.5,11.3225806 C3.8347379,11.3225806 1.67741935,9.16578629 1.67741935,6.5 C1.67741935,3.8347379 3.83421371,1.67741935 6.5,1.67741935 C9.1652621,1.67741935 11.3225806,3.83421371 11.3225806,6.5 C11.3225806,9.1652621 9.16578629,11.3225806 6.5,11.3225806 Z M6.5,3.14516129 C4.6472379,3.14516129 3.14516129,4.6472379 3.14516129,6.5 C3.14516129,8.3527621 4.6472379,9.85483871 6.5,9.85483871 C8.3527621,9.85483871 9.85483871,8.3527621 9.85483871,6.5 C9.85483871,4.6472379 8.3527621,3.14516129 6.5,3.14516129 Z M6.5,8.17741935 C5.57506048,8.17741935 4.82258065,7.42493952 4.82258065,6.5 C4.82258065,5.57506048 5.57506048,4.82258065 6.5,4.82258065 C7.42493952,4.82258065 8.17741935,5.57506048 8.17741935,6.5 C8.17741935,7.42493952 7.42493952,8.17741935 6.5,8.17741935 Z" id="Shape" fill="#676A6C" fill-rule="nonzero"></path>
    </g>
</svg>