<?xml version="1.0" encoding="UTF-8"?>
<svg width="11px" height="13px" viewBox="0 0 11 13" version="1.1" xmlns="http://www.w3.org/2000/svg" xmlns:xlink="http://www.w3.org/1999/xlink">
    <!-- Generator: Sketch 58 (84663) - https://sketch.com -->
    <title>icons/web-application/calendar</title>
    <desc>Created with Sketch.</desc>
    <g id="icons/web-application/calendar" stroke="none" stroke-width="1" fill="none" fill-rule="evenodd">
        <g id="calendar-alt" fill="#676A6C" fill-rule="nonzero">
            <path d="M0,11.78125 C0,12.4541016 0.527901786,13 1.17857143,13 L9.82142857,13 C10.4720982,13 11,12.4541016 11,11.78125 L11,4.875 L0,4.875 L0,11.78125 Z M7.85714286,6.8046875 C7.85714286,6.63710937 7.98973214,6.5 8.15178571,6.5 L9.13392857,6.5 C9.29598214,6.5 9.42857143,6.63710937 9.42857143,6.8046875 L9.42857143,7.8203125 C9.42857143,7.98789063 9.29598214,8.125 9.13392857,8.125 L8.15178571,8.125 C7.98973214,8.125 7.85714286,7.98789063 7.85714286,7.8203125 L7.85714286,6.8046875 Z M7.85714286,10.0546875 C7.85714286,9.88710937 7.98973214,9.75 8.15178571,9.75 L9.13392857,9.75 C9.29598214,9.75 9.42857143,9.88710937 9.42857143,10.0546875 L9.42857143,11.0703125 C9.42857143,11.2378906 9.29598214,11.375 9.13392857,11.375 L8.15178571,11.375 C7.98973214,11.375 7.85714286,11.2378906 7.85714286,11.0703125 L7.85714286,10.0546875 Z M4.71428571,6.8046875 C4.71428571,6.63710937 4.846875,6.5 5.00892857,6.5 L5.99107143,6.5 C6.153125,6.5 6.28571429,6.63710937 6.28571429,6.8046875 L6.28571429,7.8203125 C6.28571429,7.98789063 6.153125,8.125 5.99107143,8.125 L5.00892857,8.125 C4.846875,8.125 4.71428571,7.98789063 4.71428571,7.8203125 L4.71428571,6.8046875 Z M4.71428571,10.0546875 C4.71428571,9.88710937 4.846875,9.75 5.00892857,9.75 L5.99107143,9.75 C6.153125,9.75 6.28571429,9.88710937 6.28571429,10.0546875 L6.28571429,11.0703125 C6.28571429,11.2378906 6.153125,11.375 5.99107143,11.375 L5.00892857,11.375 C4.846875,11.375 4.71428571,11.2378906 4.71428571,11.0703125 L4.71428571,10.0546875 Z M1.57142857,6.8046875 C1.57142857,6.63710937 1.70401786,6.5 1.86607143,6.5 L2.84821429,6.5 C3.01026786,6.5 3.14285714,6.63710937 3.14285714,6.8046875 L3.14285714,7.8203125 C3.14285714,7.98789063 3.01026786,8.125 2.84821429,8.125 L1.86607143,8.125 C1.70401786,8.125 1.57142857,7.98789063 1.57142857,7.8203125 L1.57142857,6.8046875 Z M1.57142857,10.0546875 C1.57142857,9.88710937 1.70401786,9.75 1.86607143,9.75 L2.84821429,9.75 C3.01026786,9.75 3.14285714,9.88710937 3.14285714,10.0546875 L3.14285714,11.0703125 C3.14285714,11.2378906 3.01026786,11.375 2.84821429,11.375 L1.86607143,11.375 C1.70401786,11.375 1.57142857,11.2378906 1.57142857,11.0703125 L1.57142857,10.0546875 Z M9.82142857,1.625 L8.64285714,1.625 L8.64285714,0.40625 C8.64285714,0.1828125 8.46607143,0 8.25,0 L7.46428571,0 C7.24821429,0 7.07142857,0.1828125 7.07142857,0.40625 L7.07142857,1.625 L3.92857143,1.625 L3.92857143,0.40625 C3.92857143,0.1828125 3.75178571,0 3.53571429,0 L2.75,0 C2.53392857,0 2.35714286,0.1828125 2.35714286,0.40625 L2.35714286,1.625 L1.17857143,1.625 C0.527901786,1.625 0,2.17089844 0,2.84375 L0,4.0625 L11,4.0625 L11,2.84375 C11,2.17089844 10.4720982,1.625 9.82142857,1.625 Z" id="Shape"></path>
        </g>
    </g>
</svg>