<?xml version="1.0" encoding="UTF-8"?>
<svg width="11px" height="13px" viewBox="0 0 11 13" version="1.1" xmlns="http://www.w3.org/2000/svg" xmlns:xlink="http://www.w3.org/1999/xlink">
    <!-- Generator: Sketch 58 (84663) - https://sketch.com -->
    <title>icons/web-application/calendar-o</title>
    <desc>Created with Sketch.</desc>
    <g id="icons/web-application/calendar-o" stroke="none" stroke-width="1" fill="none" fill-rule="evenodd">
        <g id="calendar-alt" fill="#676A6C" fill-rule="nonzero">
            <path d="M3.63392857,7.3125 L2.65178571,7.3125 C2.48973214,7.3125 2.35714286,7.17539063 2.35714286,7.0078125 L2.35714286,5.9921875 C2.35714286,5.82460938 2.48973214,5.6875 2.65178571,5.6875 L3.63392857,5.6875 C3.79598214,5.6875 3.92857143,5.82460938 3.92857143,5.9921875 L3.92857143,7.0078125 C3.92857143,7.17539063 3.79598214,7.3125 3.63392857,7.3125 Z M6.28571429,7.0078125 L6.28571429,5.9921875 C6.28571429,5.82460938 6.153125,5.6875 5.99107143,5.6875 L5.00892857,5.6875 C4.846875,5.6875 4.71428571,5.82460938 4.71428571,5.9921875 L4.71428571,7.0078125 C4.71428571,7.17539063 4.846875,7.3125 5.00892857,7.3125 L5.99107143,7.3125 C6.153125,7.3125 6.28571429,7.17539063 6.28571429,7.0078125 Z M8.64285714,7.0078125 L8.64285714,5.9921875 C8.64285714,5.82460938 8.51026786,5.6875 8.34821429,5.6875 L7.36607143,5.6875 C7.20401786,5.6875 7.07142857,5.82460938 7.07142857,5.9921875 L7.07142857,7.0078125 C7.07142857,7.17539063 7.20401786,7.3125 7.36607143,7.3125 L8.34821429,7.3125 C8.51026786,7.3125 8.64285714,7.17539063 8.64285714,7.0078125 Z M6.28571429,9.4453125 L6.28571429,8.4296875 C6.28571429,8.26210937 6.153125,8.125 5.99107143,8.125 L5.00892857,8.125 C4.846875,8.125 4.71428571,8.26210937 4.71428571,8.4296875 L4.71428571,9.4453125 C4.71428571,9.61289063 4.846875,9.75 5.00892857,9.75 L5.99107143,9.75 C6.153125,9.75 6.28571429,9.61289063 6.28571429,9.4453125 Z M3.92857143,9.4453125 L3.92857143,8.4296875 C3.92857143,8.26210937 3.79598214,8.125 3.63392857,8.125 L2.65178571,8.125 C2.48973214,8.125 2.35714286,8.26210937 2.35714286,8.4296875 L2.35714286,9.4453125 C2.35714286,9.61289063 2.48973214,9.75 2.65178571,9.75 L3.63392857,9.75 C3.79598214,9.75 3.92857143,9.61289063 3.92857143,9.4453125 Z M8.64285714,9.4453125 L8.64285714,8.4296875 C8.64285714,8.26210937 8.51026786,8.125 8.34821429,8.125 L7.36607143,8.125 C7.20401786,8.125 7.07142857,8.26210937 7.07142857,8.4296875 L7.07142857,9.4453125 C7.07142857,9.61289063 7.20401786,9.75 7.36607143,9.75 L8.34821429,9.75 C8.51026786,9.75 8.64285714,9.61289063 8.64285714,9.4453125 Z M11,2.84375 L11,11.78125 C11,12.4541016 10.4720982,13 9.82142857,13 L1.17857143,13 C0.527901786,13 0,12.4541016 0,11.78125 L0,2.84375 C0,2.17089844 0.527901786,1.625 1.17857143,1.625 L2.35714286,1.625 L2.35714286,0.3046875 C2.35714286,0.137109375 2.48973214,0 2.65178571,0 L3.63392857,0 C3.79598214,0 3.92857143,0.137109375 3.92857143,0.3046875 L3.92857143,1.625 L7.07142857,1.625 L7.07142857,0.3046875 C7.07142857,0.137109375 7.20401786,0 7.36607143,0 L8.34821429,0 C8.51026786,0 8.64285714,0.137109375 8.64285714,0.3046875 L8.64285714,1.625 L9.82142857,1.625 C10.4720982,1.625 11,2.17089844 11,2.84375 Z M9.82142857,11.6289062 L9.82142857,4.0625 L1.17857143,4.0625 L1.17857143,11.6289062 C1.17857143,11.7126953 1.24486607,11.78125 1.32589286,11.78125 L9.67410714,11.78125 C9.75513393,11.78125 9.82142857,11.7126953 9.82142857,11.6289062 Z" id="Shape"></path>
        </g>
    </g>
</svg>