<?xml version="1.0" encoding="UTF-8"?>
<svg width="13px" height="11px" viewBox="0 0 13 11" version="1.1" xmlns="http://www.w3.org/2000/svg" xmlns:xlink="http://www.w3.org/1999/xlink">
    <!-- Generator: Sketch 58 (84663) - https://sketch.com -->
    <title>icons/web-application/camera</title>
    <desc>Created with Sketch.</desc>
    <g id="icons/web-application/camera" stroke="none" stroke-width="1" fill="none" fill-rule="evenodd">
        <g id="camera" fill="#676A6C" fill-rule="nonzero">
            <path d="M13,2.75 L13,9.82142857 C13,10.4720982 12.4541016,11 11.78125,11 L1.21875,11 C0.545898438,11 0,10.4720982 0,9.82142857 L0,2.75 C0,2.09933036 0.545898438,1.57142857 1.21875,1.57142857 L3.453125,1.57142857 L3.76542969,0.763616071 C3.94316406,0.304464286 4.39765625,0 4.90546875,0 L8.09199219,0 C8.59980469,0 9.05429688,0.304464286 9.23203125,0.763616071 L9.546875,1.57142857 L11.78125,1.57142857 C12.4541016,1.57142857 13,2.09933036 13,2.75 Z M9.546875,6.28571429 C9.546875,4.66026786 8.18085938,3.33928571 6.5,3.33928571 C4.81914063,3.33928571 3.453125,4.66026786 3.453125,6.28571429 C3.453125,7.91116071 4.81914063,9.23214286 6.5,9.23214286 C8.18085938,9.23214286 9.546875,7.91116071 9.546875,6.28571429 Z M8.734375,6.28571429 C8.734375,7.4765625 7.73144531,8.44642857 6.5,8.44642857 C5.26855469,8.44642857 4.265625,7.4765625 4.265625,6.28571429 C4.265625,5.09486607 5.26855469,4.125 6.5,4.125 C7.73144531,4.125 8.734375,5.09486607 8.734375,6.28571429 Z" id="Shape"></path>
        </g>
    </g>
</svg>