<?xml version="1.0" encoding="UTF-8"?>
<svg width="13px" height="13px" viewBox="0 0 13 13" version="1.1" xmlns="http://www.w3.org/2000/svg" xmlns:xlink="http://www.w3.org/1999/xlink">
    <!-- Generator: Sketch 58 (84663) - https://sketch.com -->
    <title>icons/web-application/certificate</title>
    <desc>Created with Sketch.</desc>
    <g id="icons/web-application/certificate" stroke="none" stroke-width="1" fill="none" fill-rule="evenodd">
        <g id="certificate" fill="#676A6C" fill-rule="nonzero">
            <path d="M11.622,6.48530214 L12.7873119,5.34482456 C13.1346881,5.01597271 12.9727076,4.43155556 12.5170741,4.32258869 L10.9294522,3.91738402 L11.3770019,2.3458538 C11.5034795,1.89381871 11.0772417,1.46745419 10.6253587,1.59395712 L9.05436062,2.04165887 L8.64930799,0.453504873 C8.54211501,0.00499220273 7.95115984,-0.159040936 7.6274269,0.183165692 L6.48732943,1.35752437 L5.34725731,0.183191033 C5.02719883,-0.155138402 4.43378558,-1.12543689e-05 4.32537622,0.453530214 L3.92032359,2.04168421 L2.34930019,1.59398246 C1.89729045,1.46742885 1.47120468,1.89394542 1.59765692,2.34587914 L2.04520663,3.91740936 L0.457584795,4.32261404 C0.00174853801,4.43160624 -0.159902534,5.01612476 0.187321637,5.34482456 L1.35263353,6.48530214 L0.187321637,7.62575439 C-0.160054581,7.95460624 0.00192592593,8.53902339 0.457559454,8.64799025 L2.04518129,9.05319493 L1.59763158,10.6247251 C1.471154,11.0767602 1.89739181,11.5031248 2.34927485,11.3766218 L3.9202729,10.9289201 L4.32532554,12.5170741 C4.43781481,12.9877856 5.02717349,13.1257173 5.34720663,12.7874133 L6.48732943,11.6216959 L7.62740156,12.7874133 C7.94416569,13.1292144 8.53935283,12.977117 8.64928265,12.5170741 L9.05433528,10.9289201 L10.6253333,11.3766218 C11.0773177,11.5031754 11.5034288,11.0766589 11.3769766,10.6247251 L10.9294269,9.05319493 L12.5170487,8.64799025 C12.9728596,8.53897271 13.1345107,7.95447953 12.7872865,7.62575439 L11.622,6.48530214 L11.622,6.48530214 Z" id="Path"></path>
        </g>
    </g>
</svg>