<?xml version="1.0" encoding="UTF-8"?>
<svg width="13px" height="13px" viewBox="0 0 13 13" version="1.1" xmlns="http://www.w3.org/2000/svg" xmlns:xlink="http://www.w3.org/1999/xlink">
    <!-- Generator: Sketch 58 (84663) - https://sketch.com -->
    <title>icons/web-application/clock-o</title>
    <desc>Created with Sketch.</desc>
    <g id="icons/web-application/clock-o" stroke="none" stroke-width="1" fill="none" fill-rule="evenodd">
        <path d="M6.5,0 C2.90927419,0 0,2.90927419 0,6.5 C0,10.0907258 2.90927419,13 6.5,13 C10.0907258,13 13,10.0907258 13,6.5 C13,2.90927419 10.0907258,0 6.5,0 Z M6.5,11.7419355 C3.60383065,11.7419355 1.25806452,9.39616935 1.25806452,6.5 C1.25806452,3.60383065 3.60383065,1.25806452 6.5,1.25806452 C9.39616935,1.25806452 11.7419355,3.60383065 11.7419355,6.5 C11.7419355,9.39616935 9.39616935,11.7419355 6.5,11.7419355 Z M8.11975806,9.00564516 L5.89455645,7.38850806 C5.81330645,7.32822581 5.76612903,7.23387097 5.76612903,7.13427419 L5.76612903,2.83064516 C5.76612903,2.65766129 5.90766129,2.51612903 6.08064516,2.51612903 L6.91935484,2.51612903 C7.09233871,2.51612903 7.23387097,2.65766129 7.23387097,2.83064516 L7.23387097,6.54455645 L8.98467742,7.81834677 C9.12620968,7.92056452 9.15504032,8.1171371 9.05282258,8.25866935 L8.56008065,8.9375 C8.4578629,9.07641129 8.26129032,9.1078629 8.11975806,9.00564516 Z" id="Shape" fill="#676A6C" fill-rule="nonzero"></path>
    </g>
</svg>