<?xml version="1.0" encoding="UTF-8"?>
<svg width="13px" height="9px" viewBox="0 0 13 9" version="1.1" xmlns="http://www.w3.org/2000/svg" xmlns:xlink="http://www.w3.org/1999/xlink">
    <!-- Generator: Sketch 58 (84663) - https://sketch.com -->
    <title>icons/web-application/cloud-upload</title>
    <desc>Created with Sketch.</desc>
    <g id="icons/web-application/cloud-upload" stroke="none" stroke-width="1" fill="none" fill-rule="evenodd">
        <path d="M10.92,3.909375 C11.0032813,3.69441964 11.05,3.459375 11.05,3.21428571 C11.05,2.14955357 10.1765625,1.28571429 9.1,1.28571429 C8.69984375,1.28571429 8.32609375,1.40625 8.01734375,1.61116071 C7.4546875,0.646875 6.40453125,0 5.2,0 C3.404375,0 1.95,1.43839286 1.95,3.21428571 C1.95,3.26852679 1.95203125,3.32276786 1.9540625,3.37700893 C0.8165625,3.77276786 0,4.84553571 0,6.10714286 C0,7.70424107 1.31015625,9 2.925,9 L10.4,9 C11.8360937,9 13,7.84888393 13,6.42857143 C13,5.18504464 12.10625,4.14642857 10.92,3.909375 Z M7.9909375,5.14285714 L6.6625,5.14285714 L6.6625,7.39285714 C6.6625,7.56964286 6.51625,7.71428571 6.3375,7.71428571 L5.3625,7.71428571 C5.18375,7.71428571 5.0375,7.56964286 5.0375,7.39285714 L5.0375,5.14285714 L3.7090625,5.14285714 C3.41859375,5.14285714 3.274375,4.79732143 3.47953125,4.59441964 L5.62046875,2.47700893 C5.74640625,2.35245536 5.95359375,2.35245536 6.07953125,2.47700893 L8.22046875,4.59441964 C8.425625,4.79732143 8.279375,5.14285714 7.9909375,5.14285714 L7.9909375,5.14285714 Z" id="Shape" fill="#676A6C" fill-rule="nonzero"></path>
    </g>
</svg>