<?xml version="1.0" encoding="UTF-8"?>
<svg width="13px" height="9px" viewBox="0 0 13 9" version="1.1" xmlns="http://www.w3.org/2000/svg" xmlns:xlink="http://www.w3.org/1999/xlink">
    <!-- Generator: Sketch 58 (84663) - https://sketch.com -->
    <title>icons/web-application/cloud-download</title>
    <desc>Created with Sketch.</desc>
    <g id="icons/web-application/cloud-download" stroke="none" stroke-width="1" fill="none" fill-rule="evenodd">
        <path d="M10.92,3.909375 C11.0032813,3.69441964 11.05,3.459375 11.05,3.21428571 C11.05,2.14955357 10.1765625,1.28571429 9.1,1.28571429 C8.69984375,1.28571429 8.32609375,1.40625 8.01734375,1.61116071 C7.4546875,0.646875 6.40453125,0 5.2,0 C3.404375,0 1.95,1.43839286 1.95,3.21428571 C1.95,3.26852679 1.95203125,3.32276786 1.9540625,3.37700893 C0.8165625,3.77276786 0,4.84553571 0,6.10714286 C0,7.70424107 1.31015625,9 2.925,9 L10.4,9 C11.8360937,9 13,7.84888393 13,6.42857143 C13,5.18504464 12.10625,4.14642857 10.92,3.909375 Z M8.22046875,5.69129464 L6.07953125,7.80870536 C5.95359375,7.93325893 5.74640625,7.93325893 5.62046875,7.80870536 L3.47953125,5.69129464 C3.274375,5.48839286 3.420625,5.14285714 3.7090625,5.14285714 L5.0375,5.14285714 L5.0375,2.89285714 C5.0375,2.71607143 5.18375,2.57142857 5.3625,2.57142857 L6.3375,2.57142857 C6.51625,2.57142857 6.6625,2.71607143 6.6625,2.89285714 L6.6625,5.14285714 L7.9909375,5.14285714 C8.279375,5.14285714 8.425625,5.48839286 8.22046875,5.69129464 L8.22046875,5.69129464 Z" id="Shape" fill="#676A6C" fill-rule="nonzero"></path>
    </g>
</svg>