<?xml version="1.0" encoding="UTF-8"?>
<svg width="13px" height="13px" viewBox="0 0 13 13" version="1.1" xmlns="http://www.w3.org/2000/svg" xmlns:xlink="http://www.w3.org/1999/xlink">
    <!-- Generator: Sketch 58 (84663) - https://sketch.com -->
    <title>icons/web-application/code-branch</title>
    <desc>Created with Sketch.</desc>
    <g id="icons/web-application/code-branch" stroke="none" stroke-width="1" fill="none" fill-rule="evenodd">
        <g id="code-branch" transform="translate(2.000000, 0.000000)" fill="#676A6C" fill-rule="nonzero">
            <path d="M10,3.65625 C10,2.53398437 9.06770833,1.625 7.91666667,1.625 C6.765625,1.625 5.83333333,2.53398437 5.83333333,3.65625 C5.83333333,4.58046875 6.46614583,5.35996094 7.33072917,5.60625 C7.31510417,6.01503906 7.22135417,6.32988281 7.04427083,6.54316406 C6.64322917,7.03066406 5.76041667,7.11191406 4.82552083,7.19570312 C4.09114583,7.26171875 3.33072917,7.3328125 2.70833333,7.62480469 L2.70833333,3.96855469 C3.5546875,3.70957031 4.16666667,2.94023437 4.16666667,2.03125 C4.16666667,0.908984375 3.234375,-4.26325641e-14 2.08333333,-4.26325641e-14 C0.932291667,-4.26325641e-14 0,0.908984375 0,2.03125 C0,2.94023437 0.611979167,3.70957031 1.45833333,3.96855469 L1.45833333,9.02890625 C0.611979167,9.29042969 0,10.0597656 0,10.96875 C0,12.0910156 0.932291667,13 2.08333333,13 C3.234375,13 4.16666667,12.0910156 4.16666667,10.96875 C4.16666667,10.1054687 3.61458333,9.36660156 2.83333333,9.07460937 C2.9140625,8.94257812 3.03645833,8.82578125 3.22135417,8.734375 C3.64322917,8.52617187 4.2734375,8.4703125 4.94270833,8.409375 C6.04166667,8.31035156 7.28645833,8.19609375 8.02083333,7.30742187 C8.38541667,6.865625 8.5703125,6.296875 8.58333333,5.58339844 C9.40625,5.30917969 10,4.55 10,3.65625 Z M2.08333333,1.625 C2.3125,1.625 2.5,1.8078125 2.5,2.03125 C2.5,2.2546875 2.3125,2.4375 2.08333333,2.4375 C1.85416667,2.4375 1.66666667,2.2546875 1.66666667,2.03125 C1.66666667,1.8078125 1.85416667,1.625 2.08333333,1.625 Z M2.08333333,11.375 C1.85416667,11.375 1.66666667,11.1921875 1.66666667,10.96875 C1.66666667,10.7453125 1.85416667,10.5625 2.08333333,10.5625 C2.3125,10.5625 2.5,10.7453125 2.5,10.96875 C2.5,11.1921875 2.3125,11.375 2.08333333,11.375 Z M7.91666667,3.25 C8.14583333,3.25 8.33333333,3.4328125 8.33333333,3.65625 C8.33333333,3.8796875 8.14583333,4.0625 7.91666667,4.0625 C7.6875,4.0625 7.5,3.8796875 7.5,3.65625 C7.5,3.4328125 7.6875,3.25 7.91666667,3.25 Z" id="Shape"></path>
        </g>
    </g>
</svg>