<?xml version="1.0" encoding="UTF-8"?>
<svg width="13px" height="10px" viewBox="0 0 13 10" version="1.1" xmlns="http://www.w3.org/2000/svg" xmlns:xlink="http://www.w3.org/1999/xlink">
    <!-- Generator: Sketch 58 (84663) - https://sketch.com -->
    <title>icons/web-application/code</title>
    <desc>Created with Sketch.</desc>
    <g id="icons/web-application/code" stroke="none" stroke-width="1" fill="none" fill-rule="evenodd">
        <g id="code" fill="#676A6C" fill-rule="nonzero">
            <path d="M5.66775701,9.99023438 L4.43255452,9.64453125 C4.3029595,9.609375 4.23006231,9.47851562 4.2665109,9.35351563 L7.0305296,0.169921875 C7.06697819,0.044921875 7.20264798,-0.025390625 7.33224299,0.009765625 L8.56744548,0.35546875 C8.6970405,0.390625 8.76993769,0.521484375 8.7334891,0.646484375 L5.9694704,9.83007812 C5.93099688,9.95507812 5.79735202,10.0273438 5.66775701,9.99023438 L5.66775701,9.99023438 Z M3.35934579,7.79882813 L4.24018692,6.89257813 C4.33333333,6.796875 4.32725857,6.64453125 4.22398754,6.55664063 L2.3894081,5 L4.22398754,3.44335938 C4.32725857,3.35546875 4.33535826,3.203125 4.24018692,3.10742188 L3.35934579,2.20117188 C3.2682243,2.10742188 3.11433022,2.1015625 3.01510903,2.19140625 L0.0971962617,4.828125 C-0.00607476636,4.91992188 -0.00607476636,5.078125 0.0971962617,5.16992188 L3.01510903,7.80859375 C3.11433022,7.8984375 3.2682243,7.89453125 3.35934579,7.79882812 L3.35934579,7.79882813 Z M9.98489097,7.81054688 L12.9028037,5.171875 C13.0060748,5.08007813 13.0060748,4.921875 12.9028037,4.83007813 L9.98489097,2.18945312 C9.8876947,2.1015625 9.73380062,2.10546875 9.64065421,2.19921875 L8.75981308,3.10546875 C8.66666667,3.20117188 8.67274143,3.35351563 8.77601246,3.44140625 L10.6105919,5 L8.77601246,6.55664063 C8.67274143,6.64453125 8.66464174,6.796875 8.75981308,6.89257813 L9.64065421,7.79882812 C9.7317757,7.89453125 9.88566978,7.8984375 9.98489097,7.81054688 Z" id="Shape"></path>
        </g>
    </g>
</svg>