<?xml version="1.0" encoding="UTF-8"?>
<svg width="13px" height="10px" viewBox="0 0 13 10" version="1.1" xmlns="http://www.w3.org/2000/svg" xmlns:xlink="http://www.w3.org/1999/xlink">
    <!-- Generator: Sketch 58 (84663) - https://sketch.com -->
    <title>icons/web-application/comments-o</title>
    <desc>Created with Sketch.</desc>
    <g id="icons/web-application/comments-o" stroke="none" stroke-width="1" fill="none" fill-rule="evenodd">
        <path d="M12.0056565,7.90625 C12.6262418,7.30133929 12.998593,6.54241071 12.998593,5.71428571 C12.998593,3.92857143 11.2722375,2.453125 9.02233377,2.18973214 C8.31148153,0.904017857 6.64154293,0 4.69403345,0 C2.10111528,0 0.000151989562,1.59821429 0.000151989562,3.57142857 C0.000151989562,4.39732143 0.372503163,5.15625 0.993088453,5.76339286 C0.647817365,6.44866071 0.151349133,6.97991071 0.142322438,6.98883929 C0.000151989562,7.13839286 -0.0404681385,7.35714286 0.0430287914,7.546875 C0.124269048,7.73660714 0.313829645,7.859375 0.521443633,7.859375 C1.72876411,7.859375 2.70364718,7.40848214 3.34679921,6.99330357 C3.5544132,7.04017857 3.7687972,7.07589286 3.98769456,7.10267857 C4.69629013,8.38392857 6.35945871,9.28571429 8.3047115,9.28571429 C8.77409965,9.28571429 9.22543441,9.23214286 9.65420243,9.13392857 C10.2973545,9.546875 11.2699809,10 12.479558,10 C12.687172,10 12.8744759,9.87723214 12.9579728,9.6875 C13.0392131,9.49776786 13.0008496,9.27901786 12.8586792,9.12946429 C12.8496525,9.12276786 12.3509276,8.59151786 12.0056565,7.90625 L12.0056565,7.90625 Z M3.14144189,5.84598214 L2.75555068,6.09375 C2.43735967,6.296875 2.11239865,6.45758929 1.78292428,6.57142857 C1.84385447,6.46651786 1.90478466,6.35491071 1.96345818,6.24107143 L2.31324262,5.546875 L1.75358752,5 C1.44893656,4.70089286 1.0833554,4.21205357 1.0833554,3.57142857 C1.0833554,2.21651786 2.73749729,1.07142857 4.69403345,1.07142857 C6.65056962,1.07142857 8.3047115,2.21651786 8.3047115,3.57142857 C8.3047115,4.92633929 6.65056962,6.07142857 4.69403345,6.07142857 C4.32168228,6.07142857 3.94933111,6.02901786 3.5882633,5.94642857 L3.14144189,5.84598214 Z M11.2451574,7.14285714 L10.687759,7.6875 L11.0375435,8.38169643 C11.096217,8.49553571 11.1571472,8.60714286 11.2180774,8.71205357 C10.888603,8.59821429 10.563642,8.4375 10.245451,8.234375 L9.85955974,7.98660714 L9.41048166,8.08928571 C9.04941385,8.171875 8.67706268,8.21428571 8.3047115,8.21428571 C7.08610766,8.21428571 5.9983909,7.765625 5.34169883,7.10491071 C7.62770937,6.86383929 9.38791492,5.37723214 9.38791492,3.57142857 C9.38791492,3.49553571 9.37888822,3.421875 9.3721182,3.34821429 C10.8254161,3.671875 11.9153896,4.61607143 11.9153896,5.71428571 C11.9153896,6.35491071 11.5498084,6.84375 11.2451574,7.14285714 Z" id="Shape" fill="#676A6C" fill-rule="nonzero"></path>
    </g>
</svg>