<?xml version="1.0" encoding="UTF-8"?>
<svg width="13px" height="11px" viewBox="0 0 13 11" version="1.1" xmlns="http://www.w3.org/2000/svg" xmlns:xlink="http://www.w3.org/1999/xlink">
    <!-- Generator: Sketch 58 (84663) - https://sketch.com -->
    <title>icons/web-application/comment-o</title>
    <desc>Created with Sketch.</desc>
    <g id="icons/web-application/comment-o" stroke="none" stroke-width="1" fill="none" fill-rule="evenodd">
        <g id="comment" fill="#676A6C" fill-rule="nonzero">
            <path d="M6.51267057,0 C2.9294347,0 0.0253411306,2.2859375 0.0253411306,5.10714286 C0.0253411306,6.27589286 0.52962963,7.34642857 1.36588694,8.20825893 C0.988304094,9.17566964 0.202729045,9.99575893 0.19005848,10.0055804 C0.0228070175,10.1774554 -0.0228070175,10.4279018 0.0734892788,10.6439732 C0.169785575,10.8600446 0.390253411,11 0.633528265,11 C2.1920078,11 3.42105263,10.3689732 4.15847953,9.86316964 C4.89083821,10.0866071 5.68148148,10.2142857 6.51267057,10.2142857 C10.0959064,10.2142857 13,7.92834821 13,5.10714286 C13,2.2859375 10.0959064,0 6.51267057,0 Z M6.51267057,9.03571429 C5.83606238,9.03571429 5.16705653,8.93504464 4.52592593,8.73861607 L3.95068226,8.56183036 L3.45653021,8.90066964 C3.09415205,9.14866071 2.59746589,9.42611607 1.9994152,9.61272321 C2.18440546,9.315625 2.36432749,8.98169643 2.5037037,8.62566964 L2.77231969,7.93571429 L2.2502924,7.40044643 C1.79161793,6.9265625 1.2417154,6.14330357 1.2417154,5.10714286 C1.2417154,2.94151786 3.60604288,1.17857143 6.51267057,1.17857143 C9.41929825,1.17857143 11.7836257,2.94151786 11.7836257,5.10714286 C11.7836257,7.27276786 9.41929825,9.03571429 6.51267057,9.03571429 Z" id="Shape"></path>
        </g>
    </g>
</svg>