<?xml version="1.0" encoding="UTF-8"?>
<svg width="13px" height="13px" viewBox="0 0 13 13" version="1.1" xmlns="http://www.w3.org/2000/svg" xmlns:xlink="http://www.w3.org/1999/xlink">
    <!-- Generator: Sketch 58 (84663) - https://sketch.com -->
    <title>icons/web-application/compass</title>
    <desc>Created with Sketch.</desc>
    <g id="icons/web-application/compass" stroke="none" stroke-width="1" fill="none" fill-rule="evenodd">
        <path d="M5.9071371,5.906875 C5.57951613,6.23449597 5.57951613,6.76550403 5.9071371,7.0928629 C6.23449597,7.42048387 6.76576613,7.42048387 7.093125,7.0928629 C7.42074597,6.76524194 7.42074597,6.23423387 7.093125,5.906875 C6.76550403,5.57951613 6.23449597,5.57951613 5.9071371,5.906875 Z M6.5,0 C2.91006048,0 0,2.91006048 0,6.5 C0,10.0899395 2.91006048,13 6.5,13 C10.0899395,13 13,10.0899395 13,6.5 C13,2.91006048 10.0899395,0 6.5,0 Z M9.80608871,3.88034274 L8.07703629,7.66370968 C7.99340367,7.84667592 7.84667592,7.99340367 7.66370968,8.07703629 L3.88060484,9.80608871 C3.44421371,10.0055444 2.99445565,9.55578629 3.19391129,9.11939516 L4.92322581,5.33602823 C5.00685843,5.15306198 5.15358618,5.00633423 5.33655242,4.92270161 L9.11965726,3.19364919 C9.55604839,2.99445565 10.0055444,3.44395161 9.80608871,3.88034274 L9.80608871,3.88034274 Z" id="Shape" fill="#676A6C" fill-rule="nonzero"></path>
    </g>
</svg>