<?xml version="1.0" encoding="UTF-8"?>
<svg width="13px" height="10px" viewBox="0 0 13 10" version="1.1" xmlns="http://www.w3.org/2000/svg" xmlns:xlink="http://www.w3.org/1999/xlink">
    <!-- Generator: Sketch 58 (84663) - https://sketch.com -->
    <title>icons/web-application/credit-card</title>
    <desc>Created with Sketch.</desc>
    <g id="icons/web-application/credit-card" stroke="none" stroke-width="1" fill="none" fill-rule="evenodd">
        <path d="M0,8.92857143 C0,9.52008929 0.485243056,10 1.08333333,10 L11.9166667,10 C12.5147569,10 13,9.52008929 13,8.92857143 L13,5 L0,5 L0,8.92857143 Z M4.33333333,7.41071429 C4.33333333,7.26339286 4.45520833,7.14285714 4.60416667,7.14285714 L7.67361111,7.14285714 C7.82256944,7.14285714 7.94444444,7.26339286 7.94444444,7.41071429 L7.94444444,8.30357143 C7.94444444,8.45089286 7.82256944,8.57142857 7.67361111,8.57142857 L4.60416667,8.57142857 C4.45520833,8.57142857 4.33333333,8.45089286 4.33333333,8.30357143 L4.33333333,7.41071429 Z M1.44444444,7.41071429 C1.44444444,7.26339286 1.56631944,7.14285714 1.71527778,7.14285714 L3.34027778,7.14285714 C3.48923611,7.14285714 3.61111111,7.26339286 3.61111111,7.41071429 L3.61111111,8.30357143 C3.61111111,8.45089286 3.48923611,8.57142857 3.34027778,8.57142857 L1.71527778,8.57142857 C1.56631944,8.57142857 1.44444444,8.45089286 1.44444444,8.30357143 L1.44444444,7.41071429 Z M13,1.07142857 L13,2.14285714 L0,2.14285714 L0,1.07142857 C0,0.479910714 0.485243056,0 1.08333333,0 L11.9166667,0 C12.5147569,0 13,0.479910714 13,1.07142857 Z" id="Shape" fill="#676A6C" fill-rule="nonzero"></path>
    </g>
</svg>