<?xml version="1.0" encoding="UTF-8"?>
<svg width="13px" height="13px" viewBox="0 0 13 13" version="1.1" xmlns="http://www.w3.org/2000/svg" xmlns:xlink="http://www.w3.org/1999/xlink">
    <!-- Generator: Sketch 58 (84663) - https://sketch.com -->
    <title>icons/web-application/crop</title>
    <desc>Created with Sketch.</desc>
    <g id="icons/web-application/crop" stroke="none" stroke-width="1" fill="none" fill-rule="evenodd">
        <path d="M12.390625,8.9375 L11.375,8.9375 L11.375,2.77392578 L12.880918,1.26800781 C13.0396094,1.10931641 13.0396094,0.852109375 12.880918,0.693417969 L12.306582,0.119082031 C12.1478906,-0.039609375 11.8906836,-0.039609375 11.7319922,0.119082031 L10.2260742,1.625 L4.875,1.625 L4.875,4.0625 L7.78857422,4.0625 L4.0625,7.78857422 L4.0625,0.609375 C4.0625,0.272695313 3.78955078,0 3.453125,0 L2.234375,0 C1.89794922,0 1.625,0.272695313 1.625,0.609375 L1.625,1.625 L0.609375,1.625 C0.272949219,1.625 0,1.89769531 0,2.234375 L0,3.453125 C0,3.78955078 0.272949219,4.0625 0.609375,4.0625 L1.625,4.0625 L1.625,10.765625 C1.625,11.1020508 1.89794922,11.375 2.234375,11.375 L8.125,11.375 L8.125,8.9375 L5.21142578,8.9375 L8.9375,5.21142578 L8.9375,12.390625 C8.9375,12.7270508 9.21044922,13 9.546875,13 L10.765625,13 C11.1020508,13 11.375,12.7270508 11.375,12.390625 L11.375,11.375 L12.390625,11.375 C12.7270508,11.375 13,11.1020508 13,10.765625 L13,9.546875 C13,9.21019531 12.7270508,8.9375 12.390625,8.9375 Z" id="Path" fill="#676A6C" fill-rule="nonzero"></path>
    </g>
</svg>