<?xml version="1.0" encoding="UTF-8"?>
<svg width="13px" height="13px" viewBox="0 0 13 13" version="1.1" xmlns="http://www.w3.org/2000/svg" xmlns:xlink="http://www.w3.org/1999/xlink">
    <!-- Generator: Sketch 58 (84663) - https://sketch.com -->
    <title>icons/web-application/crosshairs</title>
    <desc>Created with Sketch.</desc>
    <g id="icons/web-application/crosshairs" stroke="none" stroke-width="1" fill="none" fill-rule="evenodd">
        <path d="M12.6953125,5.6875 L11.9243516,5.6875 C11.5711172,3.3090332 9.6909668,1.42888281 7.3125,1.07564844 L7.3125,0.3046875 C7.3125,0.136423828 7.17607617,0 7.0078125,0 L5.9921875,0 C5.82392383,0 5.6875,0.136423828 5.6875,0.3046875 L5.6875,1.07564844 C3.3090332,1.42888281 1.42888281,3.3090332 1.07564844,5.6875 L0.3046875,5.6875 C0.136423828,5.6875 0,5.82392383 0,5.9921875 L0,7.0078125 C0,7.17607617 0.136423828,7.3125 0.3046875,7.3125 L1.07564844,7.3125 C1.42888281,9.6909668 3.3090332,11.5711172 5.6875,11.9243516 L5.6875,12.6953125 C5.6875,12.8635762 5.82392383,13 5.9921875,13 L7.0078125,13 C7.17607617,13 7.3125,12.8635762 7.3125,12.6953125 L7.3125,11.9243516 C9.6909668,11.5711172 11.5711172,9.6909668 11.9243516,7.3125 L12.6953125,7.3125 C12.8635762,7.3125 13,7.17607617 13,7.0078125 L13,5.9921875 C13,5.82392383 12.8635762,5.6875 12.6953125,5.6875 Z M7.3125,10.2739102 L7.3125,9.2421875 C7.3125,9.07392383 7.17607617,8.9375 7.0078125,8.9375 L5.9921875,8.9375 C5.82392383,8.9375 5.6875,9.07392383 5.6875,9.2421875 L5.6875,10.2739102 C4.21042578,9.95901562 3.04136523,8.79132617 2.72608984,7.3125 L3.7578125,7.3125 C3.92607617,7.3125 4.0625,7.17607617 4.0625,7.0078125 L4.0625,5.9921875 C4.0625,5.82392383 3.92607617,5.6875 3.7578125,5.6875 L2.72608984,5.6875 C3.04098437,4.21042578 4.20867383,3.04136523 5.6875,2.72608984 L5.6875,3.7578125 C5.6875,3.92607617 5.82392383,4.0625 5.9921875,4.0625 L7.0078125,4.0625 C7.17607617,4.0625 7.3125,3.92607617 7.3125,3.7578125 L7.3125,2.72608984 C8.78957422,3.04098437 9.95863477,4.20867383 10.2739102,5.6875 L9.2421875,5.6875 C9.07392383,5.6875 8.9375,5.82392383 8.9375,5.9921875 L8.9375,7.0078125 C8.9375,7.17607617 9.07392383,7.3125 9.2421875,7.3125 L10.2739102,7.3125 C9.95901562,8.78957422 8.79132617,9.95863477 7.3125,10.2739102 Z M7.3125,6.5 C7.3125,6.94872852 6.94872852,7.3125 6.5,7.3125 C6.05127148,7.3125 5.6875,6.94872852 5.6875,6.5 C5.6875,6.05127148 6.05127148,5.6875 6.5,5.6875 C6.94872852,5.6875 7.3125,6.05127148 7.3125,6.5 Z" id="Shape" fill="#676A6C" fill-rule="nonzero"></path>
    </g>
</svg>