<?xml version="1.0" encoding="UTF-8"?>
<svg width="13px" height="10px" viewBox="0 0 13 10" version="1.1" xmlns="http://www.w3.org/2000/svg" xmlns:xlink="http://www.w3.org/1999/xlink">
    <!-- Generator: Sketch 58 (84663) - https://sketch.com -->
    <title>icons/web-application/dashboard</title>
    <desc>Created with Sketch.</desc>
    <g id="icons/web-application/dashboard" stroke="none" stroke-width="1" fill="none" fill-rule="evenodd">
        <path d="M6.5,0 C2.91010417,0 0,2.878125 0,6.42857143 C0,7.60714286 0.321614583,8.71116071 0.8815625,9.66071429 C1.00817708,9.87544643 1.24944444,10 1.50086806,10 L11.4991319,10 C11.7505556,10 11.9918229,9.87544643 12.1184375,9.66071429 C12.6783854,8.71116071 13,7.60714286 13,6.42857143 C13,2.878125 10.0898958,0 6.5,0 Z M6.5,1.42857143 C6.83199653,1.42857143 7.09989583,1.6546875 7.18430556,1.95647321 C7.15925347,2.00691964 7.12472222,2.05089286 7.10644097,2.10535714 L6.89835069,2.72299107 C6.78256944,2.80089286 6.65076389,2.85714286 6.50022569,2.85714286 C6.10142361,2.85714286 5.77800347,2.53727679 5.77800347,2.14285714 C5.77800347,1.7484375 6.10119792,1.42857143 6.5,1.42857143 Z M2.16666667,7.85714286 C1.76786458,7.85714286 1.44444444,7.53727679 1.44444444,7.14285714 C1.44444444,6.7484375 1.76786458,6.42857143 2.16666667,6.42857143 C2.56546875,6.42857143 2.88888889,6.7484375 2.88888889,7.14285714 C2.88888889,7.53727679 2.56546875,7.85714286 2.16666667,7.85714286 Z M3.25,4.28571429 C2.85119792,4.28571429 2.52777778,3.96584821 2.52777778,3.57142857 C2.52777778,3.17700893 2.85119792,2.85714286 3.25,2.85714286 C3.64880208,2.85714286 3.97222222,3.17700893 3.97222222,3.57142857 C3.97222222,3.96584821 3.64880208,4.28571429 3.25,4.28571429 Z M8.81946181,2.66941964 L7.43527778,6.7765625 C7.74425347,7.03861607 7.94444444,7.42276786 7.94444444,7.85714286 C7.94444444,8.11875 7.86815972,8.36049107 7.74402778,8.57142857 L5.25597222,8.57142857 C5.13184028,8.36049107 5.05555556,8.11875 5.05555556,7.85714286 C5.05555556,7.09955357 5.65364583,6.4859375 6.40746528,6.43772321 L7.791875,2.33035714 C7.88598958,2.05 8.19203125,1.89620536 8.47708333,1.99174107 C8.76078125,2.08526786 8.91380208,2.38883929 8.81946181,2.66941964 L8.81946181,2.66941964 Z M9.15032986,3.94620536 L9.50060764,2.90714286 C9.57892361,2.87834821 9.66152778,2.85736607 9.75,2.85736607 C10.1488021,2.85736607 10.4722222,3.17723214 10.4722222,3.57165179 C10.4722222,3.96607143 10.1488021,4.2859375 9.75,4.2859375 C9.49315972,4.28571429 9.27852431,4.14575893 9.15032986,3.94620536 Z M10.8333333,7.85714286 C10.4345312,7.85714286 10.1111111,7.53727679 10.1111111,7.14285714 C10.1111111,6.7484375 10.4345312,6.42857143 10.8333333,6.42857143 C11.2321354,6.42857143 11.5555556,6.7484375 11.5555556,7.14285714 C11.5555556,7.53727679 11.2321354,7.85714286 10.8333333,7.85714286 Z" id="Shape" fill="#676A6C" fill-rule="nonzero"></path>
    </g>
</svg>