<?xml version="1.0" encoding="UTF-8"?>
<svg width="13px" height="12px" viewBox="0 0 13 12" version="1.1" xmlns="http://www.w3.org/2000/svg" xmlns:xlink="http://www.w3.org/1999/xlink">
    <!-- Generator: Sketch 58 (84663) - https://sketch.com -->
    <title>icons/web-application/edit</title>
    <desc>Created with Sketch.</desc>
    <g id="icons/web-application/edit" stroke="none" stroke-width="1" fill="none" fill-rule="evenodd">
        <path d="M9.08645833,1.94803673 L11.1222222,4.06251221 C11.2079861,4.15159211 11.2079861,4.29693299 11.1222222,4.38601289 L6.19305556,9.50576284 L4.09861111,9.74721625 C3.81875,9.78003516 3.58177083,9.53389334 3.61336806,9.24321156 L3.84583333,7.06778668 L8.775,1.94803673 C8.86076389,1.85895683 9.00069444,1.85895683 9.08645833,1.94803673 Z M12.7427083,1.41121313 L11.6413194,0.267239695 C11.2982639,-0.0890798984 10.7407986,-0.0890798984 10.3954861,0.267239695 L9.59652778,1.09708928 C9.51076389,1.18616917 9.51076389,1.33151006 9.59652778,1.42058996 L11.6322917,3.53506544 C11.7180556,3.62414534 11.8579861,3.62414534 11.94375,3.53506544 L12.7427083,2.70521586 C13.0857639,2.34655206 13.0857639,1.76753272 12.7427083,1.41121313 Z M8.66666667,8.11330338 L8.66666667,10.499707 L1.44444444,10.499707 L1.44444444,2.99824184 L6.63090278,2.99824184 C6.703125,2.99824184 6.77083333,2.96776714 6.82274306,2.91619457 L7.72552083,1.97851143 C7.89704861,1.80035163 7.77517361,1.49794882 7.53368056,1.49794882 L1.08333333,1.49794882 C0.485243056,1.49794882 0,2.00195351 0,2.62316859 L0,10.8747802 C0,11.4959953 0.485243056,12 1.08333333,12 L9.02777778,12 C9.62586806,12 10.1111111,11.4959953 10.1111111,10.8747802 L10.1111111,7.17562024 C10.1111111,6.92479 9.81996528,6.80054698 9.6484375,6.97636257 L8.74565972,7.91404571 C8.69600694,7.96796249 8.66666667,8.03828873 8.66666667,8.11330338 Z" id="edit" fill="#676A6C" fill-rule="nonzero"></path>
    </g>
</svg>