<?xml version="1.0" encoding="UTF-8"?>
<svg width="4px" height="13px" viewBox="0 0 4 13" version="1.1" xmlns="http://www.w3.org/2000/svg" xmlns:xlink="http://www.w3.org/1999/xlink">
    <!-- Generator: Sketch 58 (84663) - https://sketch.com -->
    <title>icons/web-application/ellipsis-v</title>
    <desc>Created with Sketch.</desc>
    <g id="icons/web-application/ellipsis-v" stroke="none" stroke-width="1" fill="none" fill-rule="evenodd">
        <g id="ellipsis-v" fill="#676A6C" fill-rule="nonzero">
            <path d="M2,4.61290323 C3.10555556,4.61290323 4,5.45685484 4,6.5 C4,7.54314516 3.10555556,8.38709677 2,8.38709677 C0.894444444,8.38709677 0,7.54314516 0,6.5 C0,5.45685484 0.894444444,4.61290323 2,4.61290323 Z M0,1.88709677 C0,2.93024194 0.894444444,3.77419355 2,3.77419355 C3.10555556,3.77419355 4,2.93024194 4,1.88709677 C4,0.843951613 3.10555556,0 2,0 C0.894444444,0 0,0.843951613 0,1.88709677 Z M0,11.1129032 C0,12.1560484 0.894444444,13 2,13 C3.10555556,13 4,12.1560484 4,11.1129032 C4,10.0697581 3.10555556,9.22580645 2,9.22580645 C0.894444444,9.22580645 0,10.0697581 0,11.1129032 Z" id="Shape"></path>
        </g>
    </g>
</svg>