<?xml version="1.0" encoding="UTF-8"?>
<svg width="13px" height="4px" viewBox="0 0 13 4" version="1.1" xmlns="http://www.w3.org/2000/svg" xmlns:xlink="http://www.w3.org/1999/xlink">
    <!-- Generator: Sketch 58 (84663) - https://sketch.com -->
    <title>icons/web-application/ellipsis-h</title>
    <desc>Created with Sketch.</desc>
    <g id="icons/web-application/ellipsis-h" stroke="none" stroke-width="1" fill="none" fill-rule="evenodd">
        <path d="M8.38709677,2 C8.38709677,3.10555556 7.54314516,4 6.5,4 C5.45685484,4 4.61290323,3.10555556 4.61290323,2 C4.61290323,0.894444444 5.45685484,0 6.5,0 C7.54314516,0 8.38709677,0.894444444 8.38709677,2 Z M11.1129032,0 C10.0697581,0 9.22580645,0.894444444 9.22580645,2 C9.22580645,3.10555556 10.0697581,4 11.1129032,4 C12.1560484,4 13,3.10555556 13,2 C13,0.894444444 12.1560484,0 11.1129032,0 Z M1.88709677,0 C0.843951613,0 0,0.894444444 0,2 C0,3.10555556 0.843951613,4 1.88709677,4 C2.93024194,4 3.77419355,3.10555556 3.77419355,2 C3.77419355,0.894444444 2.93024194,0 1.88709677,0 Z" id="Shape" fill="#676A6C" fill-rule="nonzero"></path>
    </g>
</svg>