<?xml version="1.0" encoding="UTF-8"?>
<svg width="13px" height="10px" viewBox="0 0 13 10" version="1.1" xmlns="http://www.w3.org/2000/svg" xmlns:xlink="http://www.w3.org/1999/xlink">
    <!-- Generator: Sketch 58 (84663) - https://sketch.com -->
    <title>icons/web-application/envelope</title>
    <desc>Created with Sketch.</desc>
    <g id="icons/web-application/envelope" stroke="none" stroke-width="1" fill="none" fill-rule="evenodd">
        <path d="M12.7537109,3.30208333 C12.8527344,3.22135417 13,3.296875 13,3.42447917 L13,8.75 C13,9.44010417 12.4541016,10 11.78125,10 L1.21875,10 C0.545898438,10 0,9.44010417 0,8.75 L0,3.42708333 C0,3.296875 0.144726563,3.22395833 0.246289062,3.3046875 C0.815039062,3.7578125 1.56914062,4.33333333 4.15898437,6.26302083 C4.69472656,6.6640625 5.59863281,7.5078125 6.5,7.50260417 C7.40644531,7.51041667 8.328125,6.6484375 8.84355469,6.26302083 C11.4333984,4.33333333 12.1849609,3.75520833 12.7537109,3.30208333 Z M6.5,6.66666667 C7.0890625,6.67708333 7.93710937,5.90625 8.36367187,5.58854167 C11.7330078,3.08072917 11.9894531,2.86197917 12.7664062,2.23697917 C12.9136719,2.11979167 13,1.9375 13,1.74479167 L13,1.25 C13,0.559895833 12.4541016,0 11.78125,0 L1.21875,0 C0.545898437,0 0,0.559895833 0,1.25 L0,1.74479167 C0,1.9375 0.086328125,2.1171875 0.23359375,2.23697917 C1.01054687,2.859375 1.26699219,3.08072917 4.63632812,5.58854167 C5.06289062,5.90625 5.9109375,6.67708333 6.5,6.66666667 Z" id="Shape" fill="#676A6C" fill-rule="nonzero"></path>
    </g>
</svg>