<?xml version="1.0" encoding="UTF-8"?>
<svg width="13px" height="10px" viewBox="0 0 13 10" version="1.1" xmlns="http://www.w3.org/2000/svg" xmlns:xlink="http://www.w3.org/1999/xlink">
    <!-- Generator: Sketch 58 (84663) - https://sketch.com -->
    <title>icons/web-application/envelope-o</title>
    <desc>Created with Sketch.</desc>
    <g id="icons/web-application/envelope-o" stroke="none" stroke-width="1" fill="none" fill-rule="evenodd">
        <path d="M11.78125,0 L1.21875,0 C0.545644531,0 0,0.559635417 0,1.25 L0,8.75 C0,9.44036458 0.545644531,10 1.21875,10 L11.78125,10 C12.4543555,10 13,9.44036458 13,8.75 L13,1.25 C13,0.559635417 12.4543555,0 11.78125,0 Z M11.78125,1.25 L11.78125,2.31263021 C11.2119414,2.788125 10.3043281,3.5275 8.36400195,5.08580729 C7.93639844,5.43078125 7.08936719,6.25955729 6.5,6.24989583 C5.91073438,6.25966146 5.06342383,5.43065104 4.63599805,5.08580729 C2.69597656,3.52773437 1.78813477,2.78820312 1.21875,2.31263021 L1.21875,1.25 L11.78125,1.25 Z M1.21875,8.75 L1.21875,3.91661458 C1.80055078,4.39190104 2.62561914,5.05885417 3.88319141,6.06885417 C4.4381543,6.51690104 5.41003125,7.50598958 6.5,7.49997396 C7.58461133,7.50598958 8.54417383,6.53125 9.11658008,6.0690625 C10.374127,5.05908854 11.1994238,4.39195312 11.78125,3.91661458 L11.78125,8.75 L1.21875,8.75 Z" id="Shape" fill="#676A6C" fill-rule="nonzero"></path>
    </g>
</svg>