<?xml version="1.0" encoding="UTF-8"?>
<svg width="13px" height="11px" viewBox="0 0 13 11" version="1.1" xmlns="http://www.w3.org/2000/svg" xmlns:xlink="http://www.w3.org/1999/xlink">
    <!-- Generator: Sketch 58 (84663) - https://sketch.com -->
    <title>icons/web-application/eraser</title>
    <desc>Created with Sketch.</desc>
    <g id="icons/web-application/eraser" stroke="none" stroke-width="1" fill="none" fill-rule="evenodd">
        <g id="eraser" fill="#676A6C" fill-rule="nonzero">
            <path d="M12.643729,5.94051563 C13.1187485,5.48025893 13.1187485,4.73402679 12.643729,4.27377009 L8.58914815,0.345198661 C8.11412865,-0.115058036 7.34398635,-0.115082589 6.86891618,0.345198661 L0.381586745,6.63091295 C-0.0934327485,7.09116964 -0.0934327485,7.83740179 0.381586745,8.29765848 L2.81433528,10.6548013 C3.04246092,10.8758236 3.3518555,10.9999969 3.67446394,10.9999969 L12.6959064,10.9999969 C12.8638421,10.9999969 13,10.8680737 13,10.7053571 L13,9.72321429 C13,9.56049777 12.8638421,9.42857143 12.6959064,9.42857143 L9.04381871,9.42857143 L12.643729,5.94051563 L12.643729,5.94051563 Z M4.97481871,4.40279911 L8.45600585,7.77579687 L6.75019298,9.42857143 L3.84242495,9.42857143 L1.8151345,7.46428571 L4.97481871,4.40279911 Z" id="Shape"></path>
        </g>
    </g>
</svg>