<?xml version="1.0" encoding="UTF-8"?>
<svg width="13px" height="10px" viewBox="0 0 13 10" version="1.1" xmlns="http://www.w3.org/2000/svg" xmlns:xlink="http://www.w3.org/1999/xlink">
    <!-- Generator: Sketch 58 (84663) - https://sketch.com -->
    <title>icons/web-application/exchange</title>
    <desc>Created with Sketch.</desc>
    <g id="icons/web-application/exchange" stroke="none" stroke-width="1" fill="none" fill-rule="evenodd">
        <path d="M3.55271368e-15,2.80030123 L3.55271368e-15,2.40034366 C3.55271368e-15,2.06900381 0.272822266,1.80040731 0.609375,1.80040731 L9.75,1.80040731 L9.75,0.600534607 C9.75,0.0664162726 10.4075918,-0.200430417 10.7902793,0.176304614 L12.8215293,2.17609245 C13.0594902,2.4103926 13.0594902,2.79025229 12.8215293,3.02452744 L10.7902793,5.02431528 C10.4090391,5.39957547 9.75,5.13645338 9.75,4.60011028 L9.75,3.40023758 L0.609375,3.40023758 C0.272822266,3.40023758 3.55271368e-15,3.13164108 3.55271368e-15,2.80030123 Z M12.390625,6.59989812 L3.25,6.59989812 L3.25,5.40002542 C3.25,4.86723194 2.59334766,4.5981105 2.2097207,4.97579543 L0.178470703,6.97558326 C-0.0594902344,7.20988341 -0.0594902344,7.58974311 0.178470703,7.82401825 L2.2097207,9.82380609 C2.59129102,10.1994412 3.25,9.93546924 3.25,9.39960109 L3.25,8.19972839 L12.390625,8.19972839 C12.7271777,8.19972839 13,7.93113189 13,7.59979204 L13,7.19983447 C13,6.86849463 12.7271777,6.59989812 12.390625,6.59989812 Z" id="Shape" fill="#676A6C" fill-rule="nonzero"></path>
    </g>
</svg>