<?xml version="1.0" encoding="UTF-8"?>
<svg width="13px" height="13px" viewBox="0 0 13 13" version="1.1" xmlns="http://www.w3.org/2000/svg" xmlns:xlink="http://www.w3.org/1999/xlink">
    <!-- Generator: Sketch 58 (84663) - https://sketch.com -->
    <title>icons/web-application/exclamation-circle</title>
    <desc>Created with Sketch.</desc>
    <g id="icons/web-application/exclamation-circle" stroke="none" stroke-width="1" fill="none" fill-rule="evenodd">
        <path d="M13,6.5 C13,10.0906472 10.0895988,13 6.5,13 C2.91040121,13 0,10.0906472 0,6.5 C0,2.9114496 2.91040121,0 6.5,0 C10.0895988,0 13,2.9114496 13,6.5 Z M6.5,7.81048387 C5.83414315,7.81048387 5.29435484,8.35027218 5.29435484,9.01612903 C5.29435484,9.68198589 5.83414315,10.2217742 6.5,10.2217742 C7.16585685,10.2217742 7.70564516,9.68198589 7.70564516,9.01612903 C7.70564516,8.35027218 7.16585685,7.81048387 6.5,7.81048387 Z M5.35534476,3.47681855 L5.54976815,7.04133468 C5.5588629,7.20813306 5.69677823,7.33870968 5.8638125,7.33870968 L7.1361875,7.33870968 C7.30322177,7.33870968 7.4411371,7.20813306 7.45023185,7.04133468 L7.64465524,3.47681855 C7.65448387,3.29665323 7.51103831,3.14516129 7.33061089,3.14516129 L5.6693629,3.14516129 C5.48893548,3.14516129 5.34551613,3.29665323 5.35534476,3.47681855 L5.35534476,3.47681855 Z" id="Shape" fill="#676A6C" fill-rule="nonzero"></path>
    </g>
</svg>