<?xml version="1.0" encoding="UTF-8"?>
<svg width="13px" height="12px" viewBox="0 0 13 12" version="1.1" xmlns="http://www.w3.org/2000/svg" xmlns:xlink="http://www.w3.org/1999/xlink">
    <!-- Generator: Sketch 58 (84663) - https://sketch.com -->
    <title>icons/web-application/exclamation-triangle</title>
    <desc>Created with Sketch.</desc>
    <g id="icons/web-application/exclamation-triangle" stroke="none" stroke-width="1" fill="none" fill-rule="evenodd">
        <path d="M12.8536851,10.3128048 C13.2702718,11.0626642 12.7473605,12 11.9153156,12 L1.08455825,12 C0.250910913,12 -0.269585467,11.0612111 0.14618872,10.3128048 L5.5616351,0.562148553 C5.97842491,-0.188062384 7.02232913,-0.186703009 7.43837415,0.562148553 L12.8536851,10.3128048 Z M6.50000462,8.29687512 C5.92662805,8.29687512 5.46181047,8.77957043 5.46181047,9.37500012 C5.46181047,9.9704298 5.92662805,10.4531251 6.50000462,10.4531251 C7.0733812,10.4531251 7.53819877,9.9704298 7.53819877,9.37500012 C7.53819877,8.77957043 7.0733812,8.29687512 6.50000462,8.29687512 Z M5.51432956,4.42157824 L5.68174965,7.60907824 C5.68958124,7.75823449 5.80834163,7.87500012 5.95217665,7.87500012 L7.04783259,7.87500012 C7.19166762,7.87500012 7.31042801,7.75823449 7.3182596,7.60907824 L7.48567969,4.42157824 C7.49414323,4.26046887 7.3706207,4.12500012 7.21525269,4.12500012 L5.78473399,4.12500012 C5.62936598,4.12500012 5.50586602,4.26046887 5.51432956,4.42157824 L5.51432956,4.42157824 Z" id="Shape" fill="#676A6C" fill-rule="nonzero"></path>
    </g>
</svg>