<?xml version="1.0" encoding="UTF-8"?>
<svg width="13px" height="13px" viewBox="0 0 13 13" version="1.1" xmlns="http://www.w3.org/2000/svg" xmlns:xlink="http://www.w3.org/1999/xlink">
    <!-- Generator: Sketch 58 (84663) - https://sketch.com -->
    <title>icons/web-application/external-link-square</title>
    <desc>Created with Sketch.</desc>
    <g id="icons/web-application/external-link-square" stroke="none" stroke-width="1" fill="none" fill-rule="evenodd">
        <path d="M13,1.39285714 L13,11.6071429 C13,12.3764063 12.3764063,13 11.6071429,13 L1.39285714,13 C0.62359375,13 0,12.3764063 0,11.6071429 L0,1.39285714 C0,0.62359375 0.62359375,0 1.39285714,0 L11.6071429,0 C12.3764063,0 13,0.62359375 13,1.39285714 Z M10.4464286,1.85714286 L7.19727009,1.85714286 C6.5788125,1.85714286 6.26637723,2.60757366 6.70480804,3.04603348 L7.63291518,3.97422768 L1.95914063,9.64800223 C1.82316295,9.78397991 1.82316295,10.0044576 1.95914063,10.1404643 L2.85953571,11.0408594 C2.99554241,11.1768371 3.21602009,11.1768371 3.35199777,11.0408594 L9.0257433,5.36711384 L9.95396652,6.29542411 C10.3900759,6.73147545 11.1428571,6.42527902 11.1428571,5.80296205 L11.1428571,2.55357143 C11.1428571,2.16893973 10.8310603,1.85714286 10.4464286,1.85714286 Z" id="Shape" fill="#676A6C" fill-rule="nonzero"></path>
    </g>
</svg>