<?xml version="1.0" encoding="UTF-8"?>
<svg width="13px" height="12px" viewBox="0 0 13 12" version="1.1" xmlns="http://www.w3.org/2000/svg" xmlns:xlink="http://www.w3.org/1999/xlink">
    <!-- Generator: Sketch 58 (84663) - https://sketch.com -->
    <title>icons/web-application/external-link</title>
    <desc>Created with Sketch.</desc>
    <g id="icons/web-application/external-link" stroke="none" stroke-width="1" fill="none" fill-rule="evenodd">
        <path d="M13,0.5625 L13,3.562125 C13,4.06511719 12.4140972,4.31165625 12.0753073,3.95988281 L11.2694201,3.12295312 L5.77324132,8.83052344 C5.56169792,9.05020312 5.21875521,9.05020312 5.00721181,8.83052344 L4.49653299,8.30020312 C4.28498958,8.08052344 4.28498958,7.72436719 4.49653299,7.50471094 L9.99275694,1.79709375 L9.18696007,0.960257812 C8.84681597,0.60703125 9.08772222,0 9.56998611,0 L12.4583333,0 C12.7574913,0 13,0.251835937 13,0.5625 Z M9.1864184,6.34673437 L8.82530729,6.72173437 C8.72372419,6.82722632 8.66665895,6.97030532 8.66666667,7.11949219 L8.66666667,10.5 L1.44444444,10.5 L1.44444444,3 L7.40277778,3 C7.54642941,3 7.68419633,2.94073349 7.78578125,2.83525781 L8.14689236,2.46025781 C8.48811979,2.10588281 8.24644618,1.5 7.76388889,1.5 L1.08333333,1.5 C0.485017361,1.5 0,2.00367187 0,2.625 L0,10.875 C0,11.4963281 0.485017361,12 1.08333333,12 L9.02777778,12 C9.62609375,12 10.1111111,11.4963281 10.1111111,10.875 L10.1111111,6.74446875 C10.1111111,6.24332812 9.52764583,5.99235937 9.1864184,6.34673437 Z" id="Shape" fill="#676A6C" fill-rule="nonzero"></path>
    </g>
</svg>