<?xml version="1.0" encoding="UTF-8"?>
<svg width="13px" height="10px" viewBox="0 0 13 10" version="1.1" xmlns="http://www.w3.org/2000/svg" xmlns:xlink="http://www.w3.org/1999/xlink">
    <!-- Generator: Sketch 58 (84663) - https://sketch.com -->
    <title>icons/web-application/eye-slash</title>
    <desc>Created with Sketch.</desc>
    <g id="icons/web-application/eye-slash" stroke="none" stroke-width="1" fill="none" fill-rule="evenodd">
        <g id="eye-slash" fill="#676A6C" fill-rule="nonzero">
            <path d="M12.8582555,9.19921875 L0.749221184,0.0685546875 C0.682144552,0.0167545761 0.596481255,-0.00722262511 0.511076249,0.00189779696 C0.425671242,0.011018219 0.347520463,0.0524891665 0.293816199,0.1171875 L0.0913239875,0.361132812 C0.0374925016,0.425854775 0.0125573082,0.508569428 0.0220155477,0.591041741 C0.0314737873,0.673514053 0.0745488556,0.748972327 0.141744548,0.80078125 L12.2507788,9.93144531 C12.3178554,9.98324542 12.4035187,10.0072226 12.4889238,9.9981022 C12.5743288,9.98898178 12.6524795,9.94751083 12.7061838,9.8828125 L12.908676,9.63886719 C12.9625075,9.57414523 12.9874427,9.49143057 12.9779845,9.40895826 C12.9685262,9.32648595 12.9254511,9.25102767 12.8582555,9.19921875 Z M6.03001558,2.86074219 L8.7594081,4.91894531 C8.71445483,3.74824219 7.7246729,2.8125 6.5,2.8125 C6.3420262,2.81278534 6.18451355,2.82895344 6.03001558,2.86074219 Z M6.96998442,7.13945312 L4.2405919,5.08125 C4.28574766,6.25175781 5.2755296,7.1875 6.5,7.1875 C6.65796091,7.18717459 6.81546231,7.1710731 6.96998442,7.13945312 L6.96998442,7.13945312 Z M6.5,2.1875 C8.49758567,2.1875 10.3289252,3.26171875 11.3178972,5 C11.0754703,5.427807 10.7759281,5.82310397 10.4269315,6.17578125 L11.1911371,6.75195312 C11.6166104,6.3129286 11.9770869,5.819254 12.2623209,5.28496094 C12.3562625,5.10572269 12.3562625,4.89408199 12.2623209,4.71484375 C11.1631931,2.64824219 8.98923676,1.25 6.5,1.25 C5.75685358,1.25 5.04792835,1.38671875 4.38132399,1.61738281 L5.32109034,2.32617187 C5.70461059,2.2421875 6.09744548,2.1875 6.5,2.1875 Z M6.5,7.8125 C4.50241433,7.8125 2.67127726,6.73828125 1.6821028,5 C1.92484658,4.57219795 2.22473169,4.17696325 2.574081,3.82441406 L1.80987539,3.24824219 C1.38446862,3.6872031 1.02405922,4.18081338 0.738894081,4.71503906 C0.644952459,4.89427731 0.644952459,5.10591801 0.738894081,5.28515625 C1.83700935,7.35175781 4.01096573,8.75 6.5,8.75 C7.24314642,8.75 7.95207165,8.61230469 8.61867601,8.38261719 L7.67890966,7.67402344 C7.29538941,7.7578125 6.90275701,7.8125 6.5,7.8125 Z" id="Shape"></path>
        </g>
    </g>
</svg>