<?xml version="1.0" encoding="UTF-8"?>
<svg width="13px" height="9px" viewBox="0 0 13 9" version="1.1" xmlns="http://www.w3.org/2000/svg" xmlns:xlink="http://www.w3.org/1999/xlink">
    <!-- Generator: Sketch 58 (84663) - https://sketch.com -->
    <title>icons/web-application/eye</title>
    <desc>Created with Sketch.</desc>
    <g id="icons/web-application/eye" stroke="none" stroke-width="1" fill="none" fill-rule="evenodd">
        <path d="M6.5,1.87498797 C6.26079217,1.87888262 6.02335478,1.91834631 5.79492922,1.9921875 C5.90059067,2.18515233 5.95684929,2.40302554 5.9583323,2.625 C5.9583323,3.34987373 5.3924689,3.9375 4.69444102,3.9375 C4.48068743,3.93595995 4.27088319,3.87753765 4.08506486,3.7678125 C3.78440645,4.85064003 4.18470605,6.01177077 5.07883715,6.65040232 C5.97296825,7.28903387 7.16030382,7.26186872 8.02648232,6.58296292 C8.89266082,5.90405711 9.24332728,4.72574496 8.89703681,3.65771903 C8.55074634,2.58969309 7.58520032,1.8715993 6.5,1.87498797 L6.5,1.87498797 Z M12.9214705,4.1578125 C11.6975272,1.67789063 9.27446707,0 6.5,0 C3.72553293,0 1.30179569,1.6790625 0.0785294738,4.15804688 C-0.0261764913,4.37313277 -0.0261764913,4.62710161 0.0785294738,4.8421875 C1.30247277,7.32210938 3.72553293,9 6.5,9 C9.27446707,9 11.6982043,7.3209375 12.9214705,4.84195313 C13.0261765,4.62686723 13.0261765,4.37289839 12.9214705,4.1578125 Z M6.5,7.875 C4.27352008,7.875 2.23233565,6.5859375 1.13004189,4.5 C2.23233565,2.4140625 4.27329438,1.125 6.5,1.125 C8.72670562,1.125 10.7676644,2.4140625 11.8699581,4.5 C10.76789,6.5859375 8.72670562,7.875 6.5,7.875 Z" id="Shape" fill="#676A6C" fill-rule="nonzero"></path>
    </g>
</svg>