<?xml version="1.0" encoding="UTF-8"?>
<svg width="10px" height="13px" viewBox="0 0 10 13" version="1.1" xmlns="http://www.w3.org/2000/svg" xmlns:xlink="http://www.w3.org/1999/xlink">
    <!-- Generator: Sketch 58 (84663) - https://sketch.com -->
    <title>icons/web-application/file-download</title>
    <desc>Created with Sketch.</desc>
    <g id="icons/web-application/file-download" stroke="none" stroke-width="1" fill="none" fill-rule="evenodd">
        <g id="file-download" fill="#676A6C" fill-rule="nonzero">
            <path d="M5.83333333,3.453125 L5.83333333,0 L0.625,0 C0.278645833,0 0,0.271679687 0,0.609375 L0,12.390625 C0,12.7283203 0.278645833,13 0.625,13 L9.375,13 C9.72135417,13 10,12.7283203 10,12.390625 L10,4.0625 L6.45833333,4.0625 C6.11458333,4.0625 5.83333333,3.78828125 5.83333333,3.453125 Z M7.82421875,8.8196875 L5.31328125,11.2495703 C5.14010417,11.4174023 4.86041667,11.4174023 4.68723958,11.2495703 L2.17630208,8.8196875 C1.91197917,8.56400391 2.09739583,8.125 2.46927083,8.125 L4.16666667,8.125 L4.16666667,6.09375 C4.16666667,5.86929687 4.353125,5.6875 4.58333333,5.6875 L5.41666667,5.6875 C5.646875,5.6875 5.83333333,5.86929687 5.83333333,6.09375 L5.83333333,8.125 L7.53072917,8.125 C7.90260417,8.125 8.08802083,8.56400391 7.82421875,8.8196875 Z M9.81770833,2.66601562 L7.26822917,0.177734375 C7.15104167,0.0634765625 6.9921875,0 6.82552083,0 L6.66666667,0 L6.66666667,3.25 L10,3.25 L10,3.09511719 C10,2.93515625 9.93489583,2.78027344 9.81770833,2.66601562 Z" id="Shape"></path>
        </g>
    </g>
</svg>