<?xml version="1.0" encoding="UTF-8"?>
<svg width="13px" height="13px" viewBox="0 0 13 13" version="1.1" xmlns="http://www.w3.org/2000/svg" xmlns:xlink="http://www.w3.org/1999/xlink">
    <!-- Generator: Sketch 58 (84663) - https://sketch.com -->
    <title>icons/web-application/flag-o</title>
    <desc>Created with Sketch.</desc>
    <g id="icons/web-application/flag-o" stroke="none" stroke-width="1" fill="none" fill-rule="evenodd">
        <path d="M8.53566797,2.03125113 C7.28817578,2.03125113 6.1665957,1.21875121 4.4245957,1.21875121 C3.62984375,1.21875121 2.94424609,1.38333323 2.37503906,1.60387617 C2.43145294,1.43454418 2.45001853,1.25489487 2.42942578,1.07760474 C2.3630293,0.497022771 1.88314648,0.0404739897 1.30002539,0.00264196235 C0.590128906,-0.0434166267 0,0.518757144 0,1.21875121 C0,1.66979023 0.245197266,2.06329409 0.609375,2.27403626 L0.609375,12.59375 C0.609375,12.818127 0.791248047,13 1.015625,13 L1.421875,13 C1.64625195,13 1.828125,12.818127 1.828125,12.59375 L1.828125,10.4750803 C2.78964258,10.0364066 3.63743555,9.75000033 5.07370703,9.75000033 C6.32119922,9.75000033 7.4427793,10.5625003 9.1847793,10.5625003 C10.6695977,10.5625003 11.7739121,9.98824054 12.4486934,9.54735778 C12.7929648,9.32244764 13,8.93879534 13,8.52756882 L13,2.43590148 C13,1.56096602 12.104625,0.969136004 11.3012656,1.31574339 C10.389666,1.70901874 9.43619727,2.03125113 8.53566797,2.03125113 Z M11.78125,8.53125046 C11.228166,8.92257073 10.2368906,9.34375038 9.1847793,9.34375038 C7.66273828,9.34375038 6.59488477,8.53125046 5.07370703,8.53125046 C3.97274414,8.53125046 2.62658398,8.76999848 1.828125,9.1406254 L1.828125,3.250001 C2.38123438,2.85868073 3.37248438,2.43750109 4.4245957,2.43750109 C5.94663672,2.43750109 7.01449023,3.250001 8.53566797,3.250001 C9.6343457,3.250001 10.981293,2.80906745 11.78125,2.43750109 L11.78125,8.53125046 Z" id="Shape" fill="#676A6C" fill-rule="nonzero"></path>
    </g>
</svg>