<?xml version="1.0" encoding="UTF-8"?>
<svg width="13px" height="13px" viewBox="0 0 13 13" version="1.1" xmlns="http://www.w3.org/2000/svg" xmlns:xlink="http://www.w3.org/1999/xlink">
    <!-- Generator: Sketch 58 (84663) - https://sketch.com -->
    <title>icons/web-application/flag</title>
    <desc>Created with Sketch.</desc>
    <g id="icons/web-application/flag" stroke="none" stroke-width="1" fill="none" fill-rule="evenodd">
        <path d="M8.81020833,2.50815489 C7.42800397,2.50815489 6.28645437,1.62499217 4.54865873,1.62499217 C3.90497817,1.62499217 3.3283869,1.73630475 2.79352976,1.93000996 C2.86765482,1.73944611 2.89920256,1.53539872 2.88602579,1.33175564 C2.84031944,0.609747334 2.23904365,0.0306121697 1.50475,0.00120980567 C0.67953373,-0.0318488108 0,0.616882104 0,1.42186703 C0,1.9049494 0.244962302,2.3314868 0.619047619,2.5884401 L0.619047619,12.3906246 C0.619047619,12.7271775 0.896200397,13 1.23809524,13 L1.65079365,13 C1.99268849,13 2.26984127,12.7271775 2.26984127,12.3906246 L2.26984127,9.99374793 C3.00008532,9.68743522 3.90985317,9.43205614 5.2215377,9.43205614 C6.60376786,9.43205614 7.74529167,10.3152189 9.4830873,10.3152189 C10.7255417,10.3152189 11.7185456,9.90150373 12.6429385,9.27780799 C12.8669048,9.12670827 13,8.87582333 13,8.60856143 L13,2.43609625 C13,1.84213295 12.3740139,1.44916197 11.8267758,1.69936136 C10.9410734,2.10429133 9.85474802,2.50815489 8.81020833,2.50815489 Z" id="Path" fill="#676A6C" fill-rule="nonzero"></path>
    </g>
</svg>