<?xml version="1.0" encoding="UTF-8"?>
<svg width="13px" height="9px" viewBox="0 0 13 9" version="1.1" xmlns="http://www.w3.org/2000/svg" xmlns:xlink="http://www.w3.org/1999/xlink">
    <!-- Generator: Sketch 58 (84663) - https://sketch.com -->
    <title>icons/web-application/folder-open-o</title>
    <desc>Created with Sketch.</desc>
    <g id="icons/web-application/folder-open-o" stroke="none" stroke-width="1" fill="none" fill-rule="evenodd">
        <path d="M11.9147987,3.75 L10.833687,3.75 L10.833687,2.625 C10.833687,2.00390625 10.3484281,1.5 9.75031829,1.5 L6.1390893,1.5 L4.6945977,0 L1.0833687,0 C0.485258897,0 0,0.50390625 0,1.125 L0,7.875 C0,8.49609375 0.485258897,9 1.0833687,9 L10.1114412,9 C10.4838492,9 10.83143,8.80078125 11.0300476,8.4703125 L12.833405,5.4703125 C13.2848087,4.72265625 12.7656945,3.75 11.9147987,3.75 Z M1.0833687,1.265625 C1.0833687,1.18828125 1.14430819,1.125 1.21878979,1.125 L4.24545109,1.125 L5.68994269,2.625 L9.61489721,2.625 C9.6893788,2.625 9.75031829,2.68828125 9.75031829,2.765625 L9.75031829,3.75 L3.43066755,3.75 C3.0514885,3.75 2.69939368,3.95625 2.5030331,4.29375 L1.0833687,6.7359375 L1.0833687,1.265625 Z M10.1114412,7.875 L1.62505305,7.875 L3.36747104,4.875 L11.9170557,4.875 L10.1114412,7.875 Z" id="Shape" fill="#676A6C" fill-rule="nonzero"></path>
    </g>
</svg>