<?xml version="1.0" encoding="UTF-8"?>
<svg width="13px" height="10px" viewBox="0 0 13 10" version="1.1" xmlns="http://www.w3.org/2000/svg" xmlns:xlink="http://www.w3.org/1999/xlink">
    <!-- Generator: Sketch 58 (84663) - https://sketch.com -->
    <title>icons/web-application/folder-o</title>
    <desc>Created with Sketch.</desc>
    <g id="icons/web-application/folder-o" stroke="none" stroke-width="1" fill="none" fill-rule="evenodd">
        <path d="M11.78125,1.66666667 L6.90625,1.66666667 L5.51916016,0.244010417 C5.36681641,0.0877604167 5.16013672,0 4.94457031,0 L1.21875,0 C0.545644531,0 0,0.559635417 0,1.25 L0,8.75 C0,9.44036458 0.545644531,10 1.21875,10 L11.78125,10 C12.4543555,10 13,9.44036458 13,8.75 L13,2.91666667 C13,2.22630208 12.4543555,1.66666667 11.78125,1.66666667 Z M11.78125,8.75 L1.21875,8.75 L1.21875,1.25 L4.77648438,1.25 L6.16357422,2.67265625 C6.31591797,2.82890625 6.52259766,2.91666667 6.73816406,2.91666667 L11.78125,2.91666667 L11.78125,8.75 Z" id="Shape" fill="#676A6C" fill-rule="nonzero"></path>
    </g>
</svg>