<?xml version="1.0" encoding="UTF-8"?>
<svg width="13px" height="13px" viewBox="0 0 13 13" version="1.1" xmlns="http://www.w3.org/2000/svg" xmlns:xlink="http://www.w3.org/1999/xlink">
    <!-- Generator: Sketch 58 (84663) - https://sketch.com -->
    <title>icons/web-application/frown-o</title>
    <desc>Created with Sketch.</desc>
    <g id="icons/web-application/frown-o" stroke="none" stroke-width="1" fill="none" fill-rule="evenodd">
        <path d="M6.5,0 C2.90927419,0 0,2.90927419 0,6.5 C0,10.0907258 2.90927419,13 6.5,13 C10.0907258,13 13,10.0907258 13,6.5 C13,2.90927419 10.0907258,0 6.5,0 Z M6.5,11.7419355 C3.60907258,11.7419355 1.25806452,9.39092742 1.25806452,6.5 C1.25806452,3.60907258 3.60907258,1.25806452 6.5,1.25806452 C9.39092742,1.25806452 11.7419355,3.60907258 11.7419355,6.5 C11.7419355,9.39092742 9.39092742,11.7419355 6.5,11.7419355 Z M4.40322581,6.08064516 C4.8671371,6.08064516 5.24193548,5.70584677 5.24193548,5.24193548 C5.24193548,4.77802419 4.8671371,4.40322581 4.40322581,4.40322581 C3.93931452,4.40322581 3.56451613,4.77802419 3.56451613,5.24193548 C3.56451613,5.70584677 3.93931452,6.08064516 4.40322581,6.08064516 Z M8.59677419,4.40322581 C8.1328629,4.40322581 7.75806452,4.77802419 7.75806452,5.24193548 C7.75806452,5.70584677 8.1328629,6.08064516 8.59677419,6.08064516 C9.06068548,6.08064516 9.43548387,5.70584677 9.43548387,5.24193548 C9.43548387,4.77802419 9.06068548,4.40322581 8.59677419,4.40322581 Z M6.5,7.75806452 C5.44637097,7.75806452 4.45564516,8.22197581 3.77943548,9.03185484 C3.55665323,9.29919355 3.59334677,9.69495968 3.86068548,9.91774194 C4.12802419,10.1379032 4.52379032,10.1038306 4.74657258,9.83649194 C5.18165323,9.31491935 5.82116935,9.01350806 6.5,9.01350806 C7.17883065,9.01350806 7.81834677,9.31229839 8.25342742,9.83649194 C8.46572581,10.0907258 8.85887097,10.1483871 9.13931452,9.91774194 C9.40665323,9.69495968 9.44072581,9.29919355 9.22056452,9.03185484 C8.54435484,8.22197581 7.55362903,7.75806452 6.5,7.75806452 Z" id="Shape" fill="#676A6C" fill-rule="nonzero"></path>
    </g>
</svg>