<?xml version="1.0" encoding="UTF-8"?>
<svg width="13px" height="13px" viewBox="0 0 13 13" version="1.1" xmlns="http://www.w3.org/2000/svg" xmlns:xlink="http://www.w3.org/1999/xlink">
    <!-- Generator: Sketch 58 (84663) - https://sketch.com -->
    <title>icons/web-application/gears</title>
    <desc>Created with Sketch.</desc>
    <g id="icons/web-application/gears" stroke="none" stroke-width="1" fill="none" fill-rule="evenodd">
        <g id="cogs" transform="translate(0.000000, 1.000000)" fill="#676A6C" fill-rule="nonzero">
            <path d="M10.4060842,3.87363495 L10.2397816,4.16365055 C10.1789392,4.27113885 10.049142,4.31575663 9.93354134,4.27316693 C9.69422777,4.18393136 9.47519501,4.05616225 9.2825273,3.89594384 C9.18923557,3.81887676 9.1648986,3.68299532 9.22574103,3.5775351 L9.39204368,3.2875195 C9.25210608,3.12527301 9.1425897,2.93666147 9.06957878,2.73182527 L8.7349454,2.73182527 C8.61326053,2.73182527 8.50780031,2.64461778 8.4875195,2.52293292 C8.44695788,2.27956318 8.4449298,2.02402496 8.4875195,1.77051482 C8.50780031,1.64882995 8.61326053,1.55959438 8.7349454,1.55959438 L9.06957878,1.55959438 C9.1425897,1.35475819 9.25210608,1.16614665 9.39204368,1.00390016 L9.22574103,0.713884555 C9.1648986,0.608424337 9.18720749,0.472542902 9.2825273,0.395475819 C9.47519501,0.23525741 9.69625585,0.1074883 9.93354134,0.0182527301 C10.049142,-0.0243369735 10.1789392,0.0202808112 10.2397816,0.127769111 L10.4060842,0.417784711 C10.6190328,0.37925117 10.8360374,0.37925117 11.048986,0.417784711 L11.2152886,0.127769111 C11.276131,0.0202808112 11.4059282,-0.0243369735 11.5215289,0.0182527301 C11.7608424,0.1074883 11.9798752,0.23525741 12.1725429,0.395475819 C12.2658346,0.472542902 12.2901716,0.608424337 12.2293292,0.713884555 L12.0630265,1.00390016 C12.2029641,1.16614665 12.3124805,1.35475819 12.3854914,1.55959438 L12.7201248,1.55959438 C12.8418097,1.55959438 12.9472699,1.64680187 12.9675507,1.76848674 C13.0081123,2.01185647 13.0101404,2.2673947 12.9675507,2.52090484 C12.9472699,2.6425897 12.8418097,2.73182527 12.7201248,2.73182527 L12.3854914,2.73182527 C12.3124805,2.93666147 12.2029641,3.12527301 12.0630265,3.2875195 L12.2293292,3.5775351 C12.2901716,3.68299532 12.2678627,3.81887676 12.1725429,3.89594384 C11.9798752,4.05616225 11.7588144,4.18393136 11.5215289,4.27316693 C11.4059282,4.31575663 11.276131,4.27113885 11.2152886,4.16365055 L11.048986,3.87363495 C10.8380655,3.91216849 10.6190328,3.91216849 10.4060842,3.87363495 L10.4060842,3.87363495 Z M10.1931357,2.68112324 C10.973947,3.28143526 11.8642746,2.39110764 11.2639626,1.61029641 C10.4831513,1.00795632 9.59282371,1.90031201 10.1931357,2.68112324 L10.1931357,2.68112324 Z M7.85475819,5.80234009 L8.53822153,6.14305772 C8.74305772,6.26068643 8.83229329,6.51014041 8.75117005,6.73322933 C8.57067083,7.22402496 8.21575663,7.67425897 7.88720749,8.06770671 C7.73712949,8.24820593 7.4775351,8.29282371 7.27269891,8.17519501 L6.6825273,7.83447738 C6.35803432,8.11232449 5.98081123,8.33338534 5.56911076,8.4773791 L5.56911076,9.15881435 C5.56911076,9.39407176 5.40078003,9.59687988 5.16957878,9.6374415 C4.67067083,9.7226209 4.1474259,9.72667707 3.63026521,9.6374415 C3.39703588,9.59687988 3.22464899,9.39609984 3.22464899,9.15881435 L3.22464899,8.4773791 C2.81294852,8.33135725 2.43572543,8.11232449 2.11123245,7.83447738 L1.52106084,8.17316693 C1.31825273,8.29079563 1.05663027,8.24617785 0.906552262,8.06567863 C0.57800312,7.67223089 0.231201248,7.22199688 0.0507020281,6.73322933 C-0.0304212168,6.51216849 0.0588143526,6.26271451 0.263650546,6.14305772 L0.93900156,5.80234009 C0.859906396,5.37847114 0.859906396,4.9424337 0.93900156,4.51653666 L0.263650546,4.17379095 C0.0588143526,4.05616225 -0.032449298,3.80670827 0.0507020281,3.58564743 C0.231201248,3.09485179 0.57800312,2.64461778 0.906552262,2.25117005 C1.05663027,2.07067083 1.31622465,2.02605304 1.52106084,2.14368175 L2.11123245,2.48439938 C2.43572543,2.20655226 2.81294852,1.98549142 3.22464899,1.84149766 L3.22464899,1.15803432 C3.22464899,0.924804992 3.39095164,0.72199688 3.62215289,0.681435257 C4.12106084,0.59625585 4.64633385,0.592199688 5.16349454,0.679407176 C5.39672387,0.719968799 5.56911076,0.92074883 5.56911076,1.15803432 L5.56911076,1.83946958 C5.98081123,1.98549142 6.35803432,2.20452418 6.6825273,2.48237129 L7.27269891,2.14165367 C7.47550702,2.02402496 7.73712949,2.06864275 7.88720749,2.24914197 C8.21575663,2.6425897 8.56053042,3.09282371 8.74102964,3.58361934 C8.82215289,3.80468019 8.74305772,4.05413417 8.53822153,4.17379095 L7.85475819,4.51450858 C7.93385335,4.94040562 7.93385335,5.37644306 7.85475819,5.80234009 Z M5.46973479,6.23026521 C6.67035881,4.66864275 4.88767551,2.88595944 3.32605304,4.08658346 C2.12542902,5.64820593 3.90811232,7.43088924 5.46973479,6.23026521 Z M10.4060842,9.93556942 L10.2397816,10.225585 C10.1789392,10.3330733 10.049142,10.3776911 9.93354134,10.3351014 C9.69422777,10.2458658 9.47519501,10.1180967 9.2825273,9.95787832 C9.18923557,9.88081123 9.1648986,9.7449298 9.22574103,9.63946958 L9.39204368,9.34945398 C9.25210608,9.18720749 9.1425897,8.99859594 9.06957878,8.79375975 L8.7349454,8.79375975 C8.61326053,8.79375975 8.50780031,8.70655226 8.4875195,8.58486739 C8.44695788,8.34149766 8.4449298,8.08595944 8.4875195,7.8324493 C8.50780031,7.71076443 8.61326053,7.62152886 8.7349454,7.62152886 L9.06957878,7.62152886 C9.1425897,7.41669267 9.25210608,7.22808112 9.39204368,7.06583463 L9.22574103,6.77581903 C9.1648986,6.67035881 9.18720749,6.53447738 9.2825273,6.4574103 C9.47519501,6.29719189 9.69625585,6.16942278 9.93354134,6.08018721 C10.049142,6.0375975 10.1789392,6.08221529 10.2397816,6.18970359 L10.4060842,6.47971919 C10.6190328,6.44118565 10.8360374,6.44118565 11.048986,6.47971919 L11.2152886,6.18970359 C11.276131,6.08221529 11.4059282,6.0375975 11.5215289,6.08018721 C11.7608424,6.16942278 11.9798752,6.29719189 12.1725429,6.4574103 C12.2658346,6.53447738 12.2901716,6.67035881 12.2293292,6.77581903 L12.0630265,7.06583463 C12.2029641,7.22808112 12.3124805,7.41669267 12.3854914,7.62152886 L12.7201248,7.62152886 C12.8418097,7.62152886 12.9472699,7.70873635 12.9675507,7.83042122 C13.0081123,8.07379095 13.0101404,8.32932917 12.9675507,8.58283931 C12.9472699,8.70452418 12.8418097,8.79375975 12.7201248,8.79375975 L12.3854914,8.79375975 C12.3124805,8.99859594 12.2029641,9.18720749 12.0630265,9.34945398 L12.2293292,9.63946958 C12.2901716,9.7449298 12.2678627,9.88081123 12.1725429,9.95787832 C11.9798752,10.1180967 11.7588144,10.2458658 11.5215289,10.3351014 C11.4059282,10.3776911 11.276131,10.3330733 11.2152886,10.225585 L11.048986,9.93556942 C10.8380655,9.97410296 10.6190328,9.97410296 10.4060842,9.93556942 Z M10.1931357,8.74102964 C10.973947,9.34134165 11.8642746,8.45101404 11.2639626,7.67020281 C10.4831513,7.0698908 9.59282371,7.96021841 10.1931357,8.74102964 L10.1931357,8.74102964 Z" id="Shape"></path>
        </g>
    </g>
</svg>