<?xml version="1.0" encoding="UTF-8"?>
<svg width="12px" height="13px" viewBox="0 0 12 13" version="1.1" xmlns="http://www.w3.org/2000/svg" xmlns:xlink="http://www.w3.org/1999/xlink">
    <!-- Generator: Sketch 58 (84663) - https://sketch.com -->
    <title>icons/web-application/gear</title>
    <desc>Created with Sketch.</desc>
    <g id="icons/web-application/gear" stroke="none" stroke-width="1" fill="none" fill-rule="evenodd">
        <g id="cog" fill="#676A6C" fill-rule="nonzero">
            <path d="M11.8336134,8.04849095 L10.7596639,7.40503018 C10.8680672,6.79818913 10.8680672,6.17565392 10.7596639,5.56881288 L11.8336134,4.92535211 C11.9571429,4.85211268 12.012605,4.70040241 11.9722689,4.55915493 C11.692437,3.62796781 11.2159664,2.78571429 10.5932773,2.08470825 C10.497479,1.97746479 10.3411765,1.95130785 10.2201681,2.02454728 L9.14621849,2.66800805 C8.69495798,2.26519115 8.17563025,1.95392354 7.61344538,1.7498994 L7.61344538,0.465593561 C7.61344538,0.319114688 7.51512605,0.190945674 7.37647059,0.159557344 C6.4512605,-0.0549295775 5.50336134,-0.0444668008 4.62352941,0.159557344 C4.48487395,0.190945674 4.38655462,0.319114688 4.38655462,0.465593561 L4.38655462,1.75251509 C3.82689076,1.95915493 3.30756303,2.27042254 2.85378151,2.67062374 L1.78235294,2.02716298 C1.65882353,1.95392354 1.50504202,1.97746479 1.4092437,2.08732394 C0.786554622,2.78571429 0.310084034,3.62796781 0.0302521008,4.56177062 C-0.012605042,4.70301811 0.0453781513,4.85472837 0.168907563,4.92796781 L1.24285714,5.57142857 C1.13445378,6.17826962 1.13445378,6.80080483 1.24285714,7.40764588 L0.168907563,8.05110664 C0.0453781513,8.12434608 -0.0100840336,8.27605634 0.0302521008,8.41730382 C0.310084034,9.34849095 0.786554622,10.1907445 1.4092437,10.8917505 C1.50504202,10.998994 1.66134454,11.0251509 1.78235294,10.9519115 L2.85630252,10.3084507 C3.30756303,10.7112676 3.82689076,11.0225352 4.38907563,11.2265594 L4.38907563,12.5134809 C4.38907563,12.6599598 4.48739496,12.7881288 4.62605042,12.8195171 C5.5512605,13.034004 6.49915966,13.0235412 7.3789916,12.8195171 C7.51764706,12.7881288 7.61596639,12.6599598 7.61596639,12.5134809 L7.61596639,11.2265594 C8.17563025,11.0199195 8.69495798,10.7086519 9.1487395,10.3084507 L10.2226891,10.9519115 C10.3462185,11.0251509 10.5,11.0016097 10.5957983,10.8917505 C11.2184874,10.1933602 11.694958,9.35110664 11.9747899,8.41730382 C12.012605,8.27344064 11.9571429,8.12173038 11.8336134,8.04849095 Z M6,8.57947686 C4.88823529,8.57947686 3.98319328,7.64044266 3.98319328,6.48692153 C3.98319328,5.3334004 4.88823529,4.3943662 6,4.3943662 C7.11176471,4.3943662 8.01680672,5.3334004 8.01680672,6.48692153 C8.01680672,7.64044266 7.11176471,8.57947686 6,8.57947686 Z" id="Shape"></path>
        </g>
    </g>
</svg>