<?xml version="1.0" encoding="UTF-8"?>
<svg width="13px" height="13px" viewBox="0 0 13 13" version="1.1" xmlns="http://www.w3.org/2000/svg" xmlns:xlink="http://www.w3.org/1999/xlink">
    <!-- Generator: Sketch 58 (84663) - https://sketch.com -->
    <title>icons/web-application/globe</title>
    <desc>Created with Sketch.</desc>
    <g id="icons/web-application/globe" stroke="none" stroke-width="1" fill="none" fill-rule="evenodd">
        <path d="M6.5,0 C2.91006048,0 0,2.91006048 0,6.5 C0,10.0899395 2.91006048,13 6.5,13 C10.0899395,13 13,10.0899395 13,6.5 C13,2.91006048 10.0899395,0 6.5,0 Z M8.65679435,9.37258065 C8.55457661,9.47427419 8.44737903,9.58094758 8.3603629,9.66822581 C8.28199597,9.74685484 8.22669355,9.84383065 8.19864919,9.94893145 C8.15907258,10.0972782 8.12709677,10.2471976 8.07362903,10.3910887 L7.61784274,11.6190121 C7.25719758,11.6976411 6.88397177,11.7419355 6.5,11.7419355 L6.5,11.0243145 C6.54429435,10.6935484 6.29975806,10.0739516 5.906875,9.68106855 C5.74961694,9.52381048 5.66129032,9.31046371 5.66129032,9.08794355 L5.66129032,8.24897177 C5.66129032,7.94389113 5.49695565,7.66344758 5.22987903,7.5158871 C4.85324597,7.30752016 4.31752016,7.01633065 3.95058468,6.83155242 C3.64969758,6.68006048 3.37135081,6.48715726 3.12104839,6.26149194 L3.10008065,6.24262097 C2.92108516,6.08104793 2.76216271,5.89854231 2.62673387,5.69903226 C2.3808871,5.338125 1.98040323,4.74447581 1.72014113,4.35866935 C2.25665323,3.16612903 3.22352823,2.20842742 4.42497984,1.68816532 L5.05427419,2.00294355 C5.33314516,2.14237903 5.66129032,1.93977823 5.66129032,1.62788306 L5.66129032,1.33171371 C5.87070565,1.29790323 6.08379032,1.27641129 6.30054435,1.26828629 L7.04227823,2.01002016 C7.20608871,2.17383065 7.20608871,2.43933468 7.04227823,2.60314516 L6.91935484,2.72580645 L6.64834677,2.99681452 C6.56657258,3.07858871 6.56657258,3.21147177 6.64834677,3.29324597 L6.77127016,3.41616935 C6.85304435,3.49794355 6.85304435,3.63082661 6.77127016,3.71260081 L6.56159274,3.92227823 C6.52222387,3.96157082 6.46886804,3.98362959 6.41324597,3.98360887 L6.17762097,3.98360887 C6.12310484,3.98360887 6.07068548,4.00483871 6.03137097,4.04310484 L5.77137097,4.29602823 C5.70597692,4.35970804 5.68923618,4.45835131 5.72995968,4.54004032 L6.13856855,5.35752016 C6.20828629,5.49695565 6.10685484,5.66102823 5.95116935,5.66102823 L5.80334677,5.66102823 C5.7527621,5.66102823 5.7040121,5.64268145 5.66600806,5.60965726 L5.42278226,5.39840726 C5.31080389,5.30126298 5.15589186,5.2703802 5.01522177,5.31715726 L4.19826613,5.58947581 C4.07035262,5.63212715 3.98409251,5.75185661 3.98413306,5.88669355 C3.98413306,6.00542339 4.05122984,6.11366935 4.15737903,6.166875 L4.44778226,6.31207661 C4.69441532,6.43552419 4.96647177,6.4997379 5.24219758,6.4997379 C5.51792339,6.4997379 5.83427419,7.215 6.08090726,7.33844758 L7.83040323,7.33844758 C8.05292339,7.33844758 8.26600806,7.42677419 8.42352823,7.58403226 L8.78233871,7.94284274 C8.93223672,8.09279805 9.01639114,8.29615717 9.01639114,8.50818548 C9.01628235,8.83268017 8.88687209,9.14375527 8.65679435,9.37258065 Z M10.9294355,6.97832661 C10.7776815,6.94032258 10.6453226,6.84727823 10.5585685,6.71701613 L10.0873185,6.01014113 C9.94631099,5.79894746 9.94631099,5.52363319 10.0873185,5.31243952 L10.6007661,4.54239919 C10.6615726,4.45145161 10.7449194,4.37754032 10.8429435,4.32879032 L11.1831452,4.15868952 C11.5375,4.86425403 11.7419355,5.65788306 11.7419355,6.5 C11.7419355,6.7272379 11.7225403,6.94975806 11.6942339,7.16939516 L10.9294355,6.97832661 Z" id="Shape" fill="#676A6C" fill-rule="nonzero"></path>
    </g>
</svg>