<?xml version="1.0" encoding="UTF-8"?>
<svg width="13px" height="9px" viewBox="0 0 13 9" version="1.1" xmlns="http://www.w3.org/2000/svg" xmlns:xlink="http://www.w3.org/1999/xlink">
    <!-- Generator: Sketch 58 (84663) - https://sketch.com -->
    <title>icons/web-application/hdd</title>
    <desc>Created with Sketch.</desc>
    <g id="icons/web-application/hdd" stroke="none" stroke-width="1" fill="none" fill-rule="evenodd">
        <path d="M13,5.625 L13,7.875 C13,8.49632812 12.5149826,9 11.9166667,9 L1.08333333,9 C0.485017361,9 0,8.49632812 0,7.875 L0,5.625 C0,5.00367188 0.485017361,4.5 1.08333333,4.5 L11.9166667,4.5 C12.5149826,4.5 13,5.00367188 13,5.625 Z M11.9166667,3.75 C12.1551493,3.74978287 12.3912843,3.79890278 12.6112865,3.89449219 L10.4327257,0.500953125 C10.2317914,0.187988664 9.89354058,0 9.53132465,0 L3.46867535,0 C3.10646438,0 2.76821832,0.187985969 2.56729688,0.500953125 L0.388713542,3.89449219 C0.608715726,3.79890278 0.844850742,3.74978287 1.08333333,3.75 L11.9166667,3.75 Z M10.8333333,6 C10.4344635,6 10.1111111,6.33578906 10.1111111,6.75 C10.1111111,7.16421094 10.4344635,7.5 10.8333333,7.5 C11.2322031,7.5 11.5555556,7.16421094 11.5555556,6.75 C11.5555556,6.33578906 11.2322031,6 10.8333333,6 Z M8.66666667,6 C8.26779688,6 7.94444444,6.33578906 7.94444444,6.75 C7.94444444,7.16421094 8.26779688,7.5 8.66666667,7.5 C9.06553646,7.5 9.38888889,7.16421094 9.38888889,6.75 C9.38888889,6.33578906 9.06553646,6 8.66666667,6 Z" id="Shape" fill="#676A6C" fill-rule="nonzero"></path>
    </g>
</svg>