<?xml version="1.0" encoding="UTF-8"?>
<svg width="13px" height="11px" viewBox="0 0 13 11" version="1.1" xmlns="http://www.w3.org/2000/svg" xmlns:xlink="http://www.w3.org/1999/xlink">
    <!-- Generator: Sketch 58 (84663) - https://sketch.com -->
    <title>icons/web-application/heart-o</title>
    <desc>Created with Sketch.</desc>
    <g id="icons/web-application/heart-o" stroke="none" stroke-width="1" fill="none" fill-rule="evenodd">
        <path d="M11.6390569,0.793402509 C10.1714798,-0.399576419 7.90409868,-0.220384111 6.5,1.16160588 C5.09589763,-0.220384111 2.82851649,-0.402031108 1.36093945,0.793402509 C-0.548434138,2.34722074 -0.26913747,4.88045995 1.09179902,6.22317491 L5.54531136,10.6097044 C5.79921742,10.8600827 6.13945154,11 6.5,11 C6.86308382,11 7.20077888,10.8625374 7.45468495,10.6121591 L11.9081973,6.2256296 C13.2665947,4.88291463 13.5509695,2.34967543 11.6390569,0.793402509 Z M11.0398385,5.39594467 L6.58632621,9.78247418 C6.52538876,9.84138672 6.47460755,9.84138672 6.41367009,9.78247418 L1.96015776,5.39594467 C1.03340063,4.4828003 0.845510144,2.75469914 2.14550918,1.69672812 C3.13320377,0.894044764 4.65664014,1.01432453 5.61132693,1.95447048 L6.49999815,2.8307945 L7.38866937,1.95447048 C8.34843429,1.00941515 9.87187066,0.894044764 10.8544871,1.69427343 C12.1519471,2.75224445 11.9589785,4.49016437 11.0398385,5.39594467 L11.0398385,5.39594467 Z" id="Shape" fill="#676A6C" fill-rule="nonzero"></path>
    </g>
</svg>