<?xml version="1.0" encoding="UTF-8"?>
<svg width="13px" height="10px" viewBox="0 0 13 10" version="1.1" xmlns="http://www.w3.org/2000/svg" xmlns:xlink="http://www.w3.org/1999/xlink">
    <!-- Generator: Sketch 58 (84663) - https://sketch.com -->
    <title>icons/web-application/home</title>
    <desc>Created with Sketch.</desc>
    <g id="icons/web-application/home" stroke="none" stroke-width="1" fill="none" fill-rule="evenodd">
        <path d="M6.32764565,2.59426275 L2.16683841,5.98415002 L2.16683841,9.64281728 C2.16683841,9.84008385 2.32850088,10 2.52792164,10 L5.05685834,9.99352606 C5.25557368,9.99254321 5.41613864,9.83291457 5.41613616,9.63634334 L5.41613616,7.49972095 C5.41613616,7.30245438 5.57779863,7.14253823 5.77721939,7.14253823 L7.22155233,7.14253823 C7.42097309,7.14253823 7.58263556,7.30245438 7.58263556,7.49972095 L7.58263556,9.63478067 C7.58233568,9.72970466 7.62024585,9.8208425 7.68799462,9.88806886 C7.75574339,9.95529522 7.84775774,9.99308005 7.9437188,9.99307958 L10.4717528,10 C10.6711736,10 10.832836,9.84008385 10.832836,9.64281728 L10.832836,5.98169439 L6.67293149,2.59426275 C6.57216578,2.51391781 6.42841135,2.51391781 6.32764565,2.59426275 Z M12.9000375,4.89831454 L11.0133776,3.35997321 L11.0133776,0.267887041 C11.0133776,0.119937114 10.8921308,0 10.7425652,0 L9.47877389,0 C9.32920832,0 9.20796147,0.119937114 9.20796147,0.267887041 L9.20796147,1.88882688 L7.1874751,0.244446925 C6.78759178,-0.0810616183 6.21072859,-0.0810616183 5.81084527,0.244446925 L0.0982828305,4.89831454 C0.0429000351,4.94359561 0.00797861651,5.00879203 0.00120637947,5.07955108 C-0.00556585757,5.15031013 0.0163662741,5.22083099 0.0621745071,5.27558879 L0.637650911,5.96763032 C0.683335223,6.02258013 0.749240349,6.05729649 0.820831017,6.06412276 C0.892421685,6.07094903 0.96381697,6.04932446 1.01927075,6.00401831 L6.32764565,1.67898203 C6.42841135,1.59863709 6.57216578,1.59863709 6.67293149,1.67898203 L11.9815321,6.00401831 C12.0368878,6.04933171 12.1081788,6.07102692 12.1797105,6.06432784 C12.2512423,6.05762876 12.3171507,6.02308457 12.3629262,5.96830003 L12.9384026,5.27625851 C12.9841643,5.22118175 13.0058448,5.15033295 12.9986441,5.07939744 C12.9914434,5.00846192 12.9559557,4.94329157 12.9000375,4.89831454 L12.9000375,4.89831454 Z" id="Shape" fill="#676A6C" fill-rule="nonzero"></path>
    </g>
</svg>