<?xml version="1.0" encoding="UTF-8"?>
<svg width="5px" height="13px" viewBox="0 0 5 13" version="1.1" xmlns="http://www.w3.org/2000/svg" xmlns:xlink="http://www.w3.org/1999/xlink">
    <!-- Generator: Sketch 58 (84663) - https://sketch.com -->
    <title>icons/web-application/info</title>
    <desc>Created with Sketch.</desc>
    <g id="icons/web-application/info" stroke="none" stroke-width="1" fill="none" fill-rule="evenodd">
        <g id="info" fill="#676A6C" fill-rule="nonzero">
            <path d="M0.520833333,10.7714395 L1.04166667,10.7714395 L1.04166667,7.10356055 L0.520833333,7.10356055 C0.233177083,7.10356055 0,6.87621289 0,6.59574805 L0,5.3828125 C0,5.10234766 0.233177083,4.875 0.520833333,4.875 L3.4375,4.875 C3.72515625,4.875 3.95833333,5.10234766 3.95833333,5.3828125 L3.95833333,10.7714395 L4.47916667,10.7714395 C4.76682292,10.7714395 5,10.9987871 5,11.279252 L5,12.4921875 C5,12.7726523 4.76682292,13 4.47916667,13 L0.520833333,13 C0.233177083,13 0,12.7726523 0,12.4921875 L0,11.279252 C0,10.9987871 0.233177083,10.7714395 0.520833333,10.7714395 Z M2.5,0 C1.46445313,0 0.625,0.818466797 0.625,1.828125 C0.625,2.8377832 1.46445313,3.65625 2.5,3.65625 C3.53554688,3.65625 4.375,2.8377832 4.375,1.828125 C4.375,0.818466797 3.53552083,0 2.5,0 Z" id="Shape"></path>
        </g>
    </g>
</svg>