<?xml version="1.0" encoding="UTF-8"?>
<svg width="13px" height="13px" viewBox="0 0 13 13" version="1.1" xmlns="http://www.w3.org/2000/svg" xmlns:xlink="http://www.w3.org/1999/xlink">
    <!-- Generator: Sketch 58 (84663) - https://sketch.com -->
    <title>icons/web-application/key</title>
    <desc>Created with Sketch.</desc>
    <g id="icons/web-application/key" stroke="none" stroke-width="1" fill="none" fill-rule="evenodd">
        <path d="M13,4.46877539 C13,6.93679492 10.9992695,8.9375 8.53125,8.9375 C8.24636719,8.9375 7.96783203,8.91053516 7.69775195,8.85957617 L7.08807227,9.54547852 C6.97243243,9.67557432 6.80667697,9.75000626 6.63261523,9.75 L5.6875,9.75 L5.6875,10.765625 C5.6875,11.1021777 5.41467773,11.375 5.078125,11.375 L4.0625,11.375 L4.0625,12.390625 C4.0625,12.7271777 3.78967773,13 3.453125,13 L0.609375,13 C0.272822266,13 0,12.7271777 0,12.390625 L0,10.4086582 C0,10.2470469 0.0642128906,10.0920371 0.178470703,9.97775391 L4.28672461,5.8695 C4.14141406,5.42887109 4.0625,4.95805273 4.0625,4.46875 C4.0625,2.00073047 6.06320508,0 8.53122461,0 C11.0065313,0 13,1.99344336 13,4.46877539 Z M8.53125,3.25 C8.53125,3.92310547 9.07689453,4.46875 9.75,4.46875 C10.4231055,4.46875 10.96875,3.92310547 10.96875,3.25 C10.96875,2.57689453 10.4231055,2.03125 9.75,2.03125 C9.07689453,2.03125 8.53125,2.57689453 8.53125,3.25 Z" id="Shape" fill="#676A6C" fill-rule="nonzero"></path>
    </g>
</svg>