<?xml version="1.0" encoding="UTF-8"?>
<svg width="13px" height="9px" viewBox="0 0 13 9" version="1.1" xmlns="http://www.w3.org/2000/svg" xmlns:xlink="http://www.w3.org/1999/xlink">
    <!-- Generator: Sketch 58 (84663) - https://sketch.com -->
    <title>icons/web-application/keyboard</title>
    <desc>Created with Sketch.</desc>
    <g id="icons/web-application/keyboard" stroke="none" stroke-width="1" fill="none" fill-rule="evenodd">
        <path d="M11.9166667,9 L1.08333333,9 C0.485017361,9 0,8.49632812 0,7.875 L0,1.125 C0,0.503671875 0.485017361,0 1.08333333,0 L11.9166667,0 C12.5149826,0 13,0.503671875 13,1.125 L13,7.875 C13,8.49632812 12.5149826,9 11.9166667,9 Z M2.88888889,2.71875 L2.88888889,1.78125 C2.88888889,1.62592969 2.76762326,1.5 2.61805556,1.5 L1.71527778,1.5 C1.56571007,1.5 1.44444444,1.62592969 1.44444444,1.78125 L1.44444444,2.71875 C1.44444444,2.87407031 1.56571007,3 1.71527778,3 L2.61805556,3 C2.76762326,3 2.88888889,2.87407031 2.88888889,2.71875 Z M5.05555556,2.71875 L5.05555556,1.78125 C5.05555556,1.62592969 4.93428993,1.5 4.78472222,1.5 L3.88194444,1.5 C3.73237674,1.5 3.61111111,1.62592969 3.61111111,1.78125 L3.61111111,2.71875 C3.61111111,2.87407031 3.73237674,3 3.88194444,3 L4.78472222,3 C4.93428993,3 5.05555556,2.87407031 5.05555556,2.71875 Z M7.22222222,2.71875 L7.22222222,1.78125 C7.22222222,1.62592969 7.1009566,1.5 6.95138889,1.5 L6.04861111,1.5 C5.8990434,1.5 5.77777778,1.62592969 5.77777778,1.78125 L5.77777778,2.71875 C5.77777778,2.87407031 5.8990434,3 6.04861111,3 L6.95138889,3 C7.1009566,3 7.22222222,2.87407031 7.22222222,2.71875 Z M9.38888889,2.71875 L9.38888889,1.78125 C9.38888889,1.62592969 9.26762326,1.5 9.11805556,1.5 L8.21527778,1.5 C8.06571007,1.5 7.94444444,1.62592969 7.94444444,1.78125 L7.94444444,2.71875 C7.94444444,2.87407031 8.06571007,3 8.21527778,3 L9.11805556,3 C9.26762326,3 9.38888889,2.87407031 9.38888889,2.71875 Z M11.5555556,2.71875 L11.5555556,1.78125 C11.5555556,1.62592969 11.4342899,1.5 11.2847222,1.5 L10.3819444,1.5 C10.2323767,1.5 10.1111111,1.62592969 10.1111111,1.78125 L10.1111111,2.71875 C10.1111111,2.87407031 10.2323767,3 10.3819444,3 L11.2847222,3 C11.4342899,3 11.5555556,2.87407031 11.5555556,2.71875 Z M3.97222222,4.96875 L3.97222222,4.03125 C3.97222222,3.87592969 3.8509566,3.75 3.70138889,3.75 L2.79861111,3.75 C2.6490434,3.75 2.52777778,3.87592969 2.52777778,4.03125 L2.52777778,4.96875 C2.52777778,5.12407031 2.6490434,5.25 2.79861111,5.25 L3.70138889,5.25 C3.8509566,5.25 3.97222222,5.12407031 3.97222222,4.96875 Z M6.13888889,4.96875 L6.13888889,4.03125 C6.13888889,3.87592969 6.01762326,3.75 5.86805556,3.75 L4.96527778,3.75 C4.81571007,3.75 4.69444444,3.87592969 4.69444444,4.03125 L4.69444444,4.96875 C4.69444444,5.12407031 4.81571007,5.25 4.96527778,5.25 L5.86805556,5.25 C6.01762326,5.25 6.13888889,5.12407031 6.13888889,4.96875 Z M8.30555556,4.96875 L8.30555556,4.03125 C8.30555556,3.87592969 8.18428993,3.75 8.03472222,3.75 L7.13194444,3.75 C6.98237674,3.75 6.86111111,3.87592969 6.86111111,4.03125 L6.86111111,4.96875 C6.86111111,5.12407031 6.98237674,5.25 7.13194444,5.25 L8.03472222,5.25 C8.18428993,5.25 8.30555556,5.12407031 8.30555556,4.96875 Z M10.4722222,4.96875 L10.4722222,4.03125 C10.4722222,3.87592969 10.3509566,3.75 10.2013889,3.75 L9.29861111,3.75 C9.1490434,3.75 9.02777778,3.87592969 9.02777778,4.03125 L9.02777778,4.96875 C9.02777778,5.12407031 9.1490434,5.25 9.29861111,5.25 L10.2013889,5.25 C10.3509566,5.25 10.4722222,5.12407031 10.4722222,4.96875 Z M2.88888889,7.21875 L2.88888889,6.28125 C2.88888889,6.12592969 2.76762326,6 2.61805556,6 L1.71527778,6 C1.56571007,6 1.44444444,6.12592969 1.44444444,6.28125 L1.44444444,7.21875 C1.44444444,7.37407031 1.56571007,7.5 1.71527778,7.5 L2.61805556,7.5 C2.76762326,7.5 2.88888889,7.37407031 2.88888889,7.21875 Z M9.38888889,7.21875 L9.38888889,6.28125 C9.38888889,6.12592969 9.26762326,6 9.11805556,6 L3.88194444,6 C3.73237674,6 3.61111111,6.12592969 3.61111111,6.28125 L3.61111111,7.21875 C3.61111111,7.37407031 3.73237674,7.5 3.88194444,7.5 L9.11805556,7.5 C9.26762326,7.5 9.38888889,7.37407031 9.38888889,7.21875 Z M11.5555556,7.21875 L11.5555556,6.28125 C11.5555556,6.12592969 11.4342899,6 11.2847222,6 L10.3819444,6 C10.2323767,6 10.1111111,6.12592969 10.1111111,6.28125 L10.1111111,7.21875 C10.1111111,7.37407031 10.2323767,7.5 10.3819444,7.5 L11.2847222,7.5 C11.4342899,7.5 11.5555556,7.37407031 11.5555556,7.21875 Z" id="Shape" fill="#676A6C" fill-rule="nonzero"></path>
    </g>
</svg>