<?xml version="1.0" encoding="UTF-8"?>
<svg width="13px" height="13px" viewBox="0 0 13 13" version="1.1" xmlns="http://www.w3.org/2000/svg" xmlns:xlink="http://www.w3.org/1999/xlink">
    <!-- Generator: Sketch 58 (84663) - https://sketch.com -->
    <title>icons/web-application/laptop</title>
    <desc>Created with Sketch.</desc>
    <g id="icons/web-application/laptop" stroke="none" stroke-width="1" fill="none" fill-rule="evenodd">
        <path d="M12.675,10.125 L7.75003125,10.125 C7.735,10.5119141 7.45123438,10.75 7.085,10.75 L5.85,10.75 C5.47035938,10.75 5.17928125,10.4087891 5.18435937,10.125 L0.325,10.125 C0.14625,10.125 0,10.265625 0,10.4375 L0,10.75 C0,11.4375 0.585,12 1.3,12 L11.7,12 C12.415,12 13,11.4375 13,10.75 L13,10.4375 C13,10.265625 12.85375,10.125 12.675,10.125 Z M11.7,2.9375 C11.7,2.421875 11.26125,2 10.725,2 L2.275,2 C1.73875,2 1.3,2.421875 1.3,2.9375 L1.3,9.5 L11.7,9.5 L11.7,2.9375 Z M10.4,8.25 L2.6,8.25 L2.6,3.25 L10.4,3.25 L10.4,8.25 Z" id="Shape" fill="#676A6C" fill-rule="nonzero"></path>
    </g>
</svg>