<?xml version="1.0" encoding="UTF-8"?>
<svg width="14px" height="12px" viewBox="0 0 14 12" version="1.1" xmlns="http://www.w3.org/2000/svg" xmlns:xlink="http://www.w3.org/1999/xlink">
    <!-- Generator: Sketch 58 (84663) - https://sketch.com -->
    <title>icons/web-application/leaf</title>
    <desc>Created with Sketch.</desc>
    <g id="icons/web-application/leaf" stroke="none" stroke-width="1" fill="none" fill-rule="evenodd">
        <g id="leaf" fill="#676A6C" fill-rule="nonzero">
            <path d="M12.3286015,0.249805447 C12.2022006,-0.0420233463 11.8410552,-0.0536964981 11.6898256,0.221789883 C10.9901063,1.48015564 9.73738316,2.26459144 8.30634445,2.26459144 L6.50061737,2.26459144 C4.10802899,2.26459144 2.16687238,4.27237354 2.16687238,6.74708171 C2.16687238,6.91050584 2.18492965,7.06692607 2.20072976,7.22568093 C3.64079711,6.15875486 5.71964041,5.25291829 8.66748986,5.25291829 C8.86611984,5.25291829 9.02863528,5.42101167 9.02863528,5.62645914 C9.02863528,5.83190661 8.86611984,6 8.66748986,6 C2.99299252,6 0.586861184,9.59766537 0.0541716951,10.9494163 C-0.094800789,11.3299611 0.0812576013,11.7642023 0.449174494,11.9206226 C0.819348545,12.0793774 1.23918009,11.8949416 1.39266689,11.5167315 C1.42652428,11.4326848 1.86441309,10.3984436 3.01556411,9.40155642 C3.74688357,10.4264591 5.13729342,11.4046693 6.96333493,11.2038911 C10.5070743,10.9377432 13.0012349,7.65058366 13.0012349,3.62568093 C13.0012349,2.4536965 12.7574617,1.23968872 12.3286015,0.249805447 Z" id="Path"></path>
        </g>
    </g>
</svg>