<?xml version="1.0" encoding="UTF-8"?>
<svg width="11px" height="13px" viewBox="0 0 11 13" version="1.1" xmlns="http://www.w3.org/2000/svg" xmlns:xlink="http://www.w3.org/1999/xlink">
    <!-- Generator: Sketch 58 (84663) - https://sketch.com -->
    <title>icons/web-application/lock</title>
    <desc>Created with Sketch.</desc>
    <g id="icons/web-application/lock" stroke="none" stroke-width="1" fill="none" fill-rule="evenodd">
        <g id="lock" fill="#676A6C" fill-rule="nonzero">
            <path d="M9.82142857,5.6875 L9.23214286,5.6875 L9.23214286,3.859375 C9.23214286,1.73164063 7.55758929,0 5.5,0 C3.44241071,0 1.76785714,1.73164063 1.76785714,3.859375 L1.76785714,5.6875 L1.17857143,5.6875 C0.527901786,5.6875 0,6.23339844 0,6.90625 L0,11.78125 C0,12.4541016 0.527901786,13 1.17857143,13 L9.82142857,13 C10.4720982,13 11,12.4541016 11,11.78125 L11,6.90625 C11,6.23339844 10.4720982,5.6875 9.82142857,5.6875 Z M7.26785714,5.6875 L3.73214286,5.6875 L3.73214286,3.859375 C3.73214286,2.85136719 4.52522321,2.03125 5.5,2.03125 C6.47477679,2.03125 7.26785714,2.85136719 7.26785714,3.859375 L7.26785714,5.6875 Z" id="Shape"></path>
        </g>
    </g>
</svg>