<?xml version="1.0" encoding="UTF-8"?>
<svg width="17px" height="13px" viewBox="0 0 17 13" version="1.1" xmlns="http://www.w3.org/2000/svg" xmlns:xlink="http://www.w3.org/1999/xlink">
    <!-- Generator: Sketch 58 (84663) - https://sketch.com -->
    <title>icons/web-application/microphone-slash</title>
    <desc>Created with Sketch.</desc>
    <g id="icons/web-application/microphone-slash" stroke="none" stroke-width="1" fill="none" fill-rule="evenodd">
        <g id="microphone-slash" fill="#676A6C" fill-rule="nonzero">
            <path d="M16.8095788,11.6087719 L12.6245554,8.51816764 C12.9584555,7.9097271 13.1544462,7.22247563 13.1544462,6.48732943 L13.1544462,5.27095517 C13.1544462,5.04693957 12.9645554,4.86549708 12.7301092,4.86549708 L12.3057722,4.86549708 C12.0713261,4.86549708 11.8814353,5.04693957 11.8814353,5.27095517 L11.8814353,6.48732943 C11.8814353,6.9414425 11.7764119,7.36920078 11.5971295,7.75945419 L10.8929953,7.23945419 C10.9752106,7.00124756 11.0330265,6.75239766 11.0330265,6.48758285 L11.0330265,2.43274854 C11.0330265,1.08916179 9.89315133,0 8.48700468,0 C7.08085803,0 5.94098284,1.08916179 5.94098284,2.43274854 L5.94098284,3.58222222 L1.20591264,0.0853996101 C1.02079563,-0.0519493177 0.75399376,-0.0202729045 0.61024961,0.156608187 L0.089375975,0.796978558 C-0.0543681747,0.973606238 -0.0212168487,1.2282846 0.163900156,1.36588694 L15.7678315,12.8892593 C15.9529485,13.0268616 16.2194852,12.9949318 16.3634945,12.8180507 L16.8843682,12.1776803 C17.0278471,12.0010526 16.9946958,11.7463743 16.8095788,11.6087719 Z M10.6084243,11.7582846 L9.12324493,11.7582846 L9.12324493,10.9025146 C9.4324805,10.8619688 9.72925117,10.7874659 10.016209,10.6919298 L8.68723869,9.71046784 C8.50928237,9.72060429 8.33159126,9.73251462 8.1475351,9.71553606 C6.66633385,9.5774269 5.52884555,8.48319688 5.19892356,7.13454191 L3.81903276,6.11506823 L3.81903276,6.28865497 C3.81903276,8.56023392 5.51558502,10.5852437 7.85023401,10.892885 L7.85023401,11.7582846 L6.3650546,11.7582846 C6.13060842,11.7582846 5.94071763,11.9397271 5.94071763,12.1637427 L5.94071763,12.5692008 C5.94071763,12.7932164 6.13060842,12.9746589 6.3650546,12.9746589 L10.6084243,12.9746589 C10.8428705,12.9746589 11.0327613,12.7932164 11.0327613,12.5692008 L11.0327613,12.1637427 C11.0327613,11.9397271 10.8428705,11.7582846 10.6084243,11.7582846 Z" id="Shape"></path>
        </g>
    </g>
</svg>