<?xml version="1.0" encoding="UTF-8"?>
<svg width="9px" height="13px" viewBox="0 0 9 13" version="1.1" xmlns="http://www.w3.org/2000/svg" xmlns:xlink="http://www.w3.org/1999/xlink">
    <!-- Generator: Sketch 58 (84663) - https://sketch.com -->
    <title>icons/web-application/microphone</title>
    <desc>Created with Sketch.</desc>
    <g id="icons/web-application/microphone" stroke="none" stroke-width="1" fill="none" fill-rule="evenodd">
        <g id="microphone" fill="#676A6C" fill-rule="nonzero">
            <path d="M4.5,8.9375 C5.855625,8.9375 6.95454545,7.84621094 6.95454545,6.5 L6.95454545,2.4375 C6.95454545,1.09128906 5.855625,0 4.5,0 C3.144375,0 2.04545455,1.09128906 2.04545455,2.4375 L2.04545455,6.5 C2.04545455,7.84621094 3.144375,8.9375 4.5,8.9375 Z M8.59090909,4.875 L8.18181818,4.875 C7.95579545,4.875 7.77272727,5.05679687 7.77272727,5.28125 L7.77272727,6.5 C7.77272727,8.39921875 6.12383523,9.92316406 4.17298295,9.73425781 C2.47269886,9.56947266 1.22727273,8.05162109 1.22727273,6.35527344 L1.22727273,5.28125 C1.22727273,5.05679687 1.04420455,4.875 0.818181818,4.875 L0.409090909,4.875 C0.183068182,4.875 0,5.05679687 0,5.28125 L0,6.3009375 C0,8.57695313 1.63559659,10.605918 3.88636364,10.9141602 L3.88636364,11.78125 L2.45454545,11.78125 C2.22852273,11.78125 2.04545455,11.9630469 2.04545455,12.1875 L2.04545455,12.59375 C2.04545455,12.8182031 2.22852273,13 2.45454545,13 L6.54545455,13 C6.77147727,13 6.95454545,12.8182031 6.95454545,12.59375 L6.95454545,12.1875 C6.95454545,11.9630469 6.77147727,11.78125 6.54545455,11.78125 L5.11363636,11.78125 L5.11363636,10.9238086 C7.30508523,10.6252148 9,8.75722656 9,6.5 L9,5.28125 C9,5.05679687 8.81693182,4.875 8.59090909,4.875 Z" id="Shape"></path>
        </g>
    </g>
</svg>