<?xml version="1.0" encoding="UTF-8"?>
<svg width="14px" height="13px" viewBox="0 0 14 13" version="1.1" xmlns="http://www.w3.org/2000/svg" xmlns:xlink="http://www.w3.org/1999/xlink">
    <!-- Generator: Sketch 58 (84663) - https://sketch.com -->
    <title>icons/web-application/moon-o</title>
    <desc>Created with Sketch.</desc>
    <g id="icons/web-application/moon-o" stroke="none" stroke-width="1" fill="none" fill-rule="evenodd">
        <g id="moon" fill="#676A6C" fill-rule="nonzero">
            <path d="M7.14925977,13 C9.34759303,13 11.363653,12.0909141 12.6996354,10.5936035 C13.488742,9.70922266 12.6282333,8.41706836 11.408677,8.62834375 C9.11007948,9.02654492 6.99079644,7.42817969 6.99079644,5.30745313 C6.99079644,4.0779375 7.71821486,2.96410156 8.87309627,2.36630469 C9.95459384,1.80644141 9.68255163,0.315046875 8.45378393,0.108595703 C8.02347376,0.0364138876 7.5868255,0 7.14925977,0 C3.20344751,0 0.00347639485,2.90913086 0.00347639485,6.5 C0.00347639485,10.0892188 3.20166107,13 7.14925977,13 Z M7.14925977,1.21875 C7.51171288,1.21875 7.86632238,1.24924414 8.2104086,1.30705859 C6.68188088,2.09830664 5.65096206,3.59328125 5.65096206,5.30745313 C5.65096206,8.198125 8.54391571,10.3652656 11.6593377,9.8255625 C10.5948393,11.0186172 8.97006678,11.78125 7.14925977,11.78125 C3.94272905,11.78125 1.34331078,9.41674805 1.34331078,6.5 C1.34331078,3.58325195 3.94272905,1.21875 7.14925977,1.21875 Z" id="Shape"></path>
        </g>
    </g>
</svg>