<?xml version="1.0" encoding="UTF-8"?>
<svg width="13px" height="13px" viewBox="0 0 13 13" version="1.1" xmlns="http://www.w3.org/2000/svg" xmlns:xlink="http://www.w3.org/1999/xlink">
    <!-- Generator: Sketch 58 (84663) - https://sketch.com -->
    <title>icons/web-application/pencil-square-o</title>
    <desc>Created with Sketch.</desc>
    <g id="icons/web-application/pencil-square-o" stroke="none" stroke-width="1" fill="none" fill-rule="evenodd">
        <g id="edit" fill="#676A6C" fill-rule="nonzero">
            <path d="M9.07988422,8.09122807 L9.80212209,7.34269006 C9.91497176,7.22573099 10.1113302,7.30760234 10.1113302,7.47602339 L10.1113302,10.877193 C10.1113302,11.497076 9.62607661,12 9.02797338,12 L1.08335681,12 C0.485253569,12 0,11.497076 0,10.877193 L0,2.64327485 C0,2.02339181 0.485253569,1.52046784 1.08335681,1.52046784 L7.2562336,1.52046784 C7.41648013,1.52046784 7.49773189,1.72163743 7.38488222,1.84093567 L6.66264435,2.58947368 C6.62878945,2.6245614 6.58364958,2.64327485 6.53399573,2.64327485 L1.08335681,2.64327485 L1.08335681,10.877193 L9.02797338,10.877193 L9.02797338,8.22222222 C9.02797338,8.17309942 9.04602932,8.12631579 9.07988422,8.09122807 Z M12.6143358,3.37076023 L6.68747128,9.51345029 L4.6471493,9.74736842 C4.05581704,9.81520468 3.55250752,9.29824561 3.61796033,8.68070175 L3.84365966,6.56608187 L9.77052419,0.423391813 C10.2873757,-0.112280702 11.1224632,-0.112280702 11.6370577,0.423391813 L12.6120788,1.43391813 C13.1289303,1.96959064 13.1289303,2.8374269 12.6143358,3.37076023 L12.6143358,3.37076023 Z M10.3844264,4.09356725 L9.07311324,2.73450292 L4.87961961,7.08304094 L4.7148591,8.61052632 L6.18867575,8.43976608 L10.3844264,4.09356725 Z M11.8469581,2.22923977 L10.8719369,1.21871345 C10.7794002,1.12280702 10.6281817,1.12280702 10.5379019,1.21871345 L9.84049098,1.94152047 L11.1518041,3.3005848 L11.8492151,2.57777778 C11.9394948,2.47953216 11.9394948,2.3251462 11.8469581,2.22923977 L11.8469581,2.22923977 Z" id="Shape"></path>
        </g>
    </g>
</svg>