<?xml version="1.0" encoding="UTF-8"?>
<svg width="13px" height="13px" viewBox="0 0 13 13" version="1.1" xmlns="http://www.w3.org/2000/svg" xmlns:xlink="http://www.w3.org/1999/xlink">
    <!-- Generator: Sketch 58 (84663) - https://sketch.com -->
    <title>icons/web-application/pencil</title>
    <desc>Created with Sketch.</desc>
    <g id="icons/web-application/pencil" stroke="none" stroke-width="1" fill="none" fill-rule="evenodd">
        <g id="pencil-alt" fill="#676A6C" fill-rule="nonzero">
            <path d="M12.6425773,3.60097466 L11.4720153,4.76920078 C11.3526738,4.88830409 11.1596961,4.88830409 11.0403547,4.76920078 L8.22186485,1.95633528 C8.10252339,1.83723197 8.10252339,1.64463938 8.22186485,1.52553606 L9.39242684,0.357309942 C9.8672535,-0.116569201 10.6391642,-0.116569201 11.1165301,0.357309942 L12.6425773,1.88031189 C13.1199431,2.35419103 13.1199431,3.1245614 12.6425773,3.60097466 Z M7.21634957,2.52904483 L0.548462855,9.18362573 L0.0101566922,12.2625731 C-0.0634795282,12.6781676 0.299623214,13.0380117 0.716048736,12.9670565 L3.80115245,12.4272904 L10.4690392,5.77270955 C10.5883806,5.65360624 10.5883806,5.46101365 10.4690392,5.34191033 L7.65054935,2.52904483 C7.52866871,2.40994152 7.33569103,2.40994152 7.21634957,2.52904483 Z M3.15112237,8.61345029 C3.01146747,8.47407407 3.01146747,8.25107212 3.15112237,8.11169591 L7.06145959,4.20916179 C7.20111449,4.06978558 7.42456233,4.06978558 7.56421723,4.20916179 C7.70387213,4.34853801 7.70387213,4.57153996 7.56421723,4.71091618 L3.65388001,8.61345029 C3.51422511,8.75282651 3.29077727,8.75282651 3.15112237,8.61345029 L3.15112237,8.61345029 Z M2.23447838,10.7446394 L3.45328479,10.7446394 L3.45328479,11.6645224 L1.81551368,11.9508772 L1.0258287,11.162768 L1.31275604,9.52826511 L2.23447838,9.52826511 L2.23447838,10.7446394 Z" id="Shape"></path>
        </g>
    </g>
</svg>