<?xml version="1.0" encoding="UTF-8"?>
<svg width="13px" height="13px" viewBox="0 0 13 13" version="1.1" xmlns="http://www.w3.org/2000/svg" xmlns:xlink="http://www.w3.org/1999/xlink">
    <!-- Generator: Sketch 58 (84663) - https://sketch.com -->
    <title>icons/web-application/pencil-square</title>
    <desc>Created with Sketch.</desc>
    <g id="icons/web-application/pencil-square" stroke="none" stroke-width="1" fill="none" fill-rule="evenodd">
        <g id="edit" fill="#676A6C" fill-rule="nonzero">
            <path d="M9.08645833,1.95 L11.1222222,4.0640625 C11.2079861,4.153125 11.2079861,4.2984375 11.1222222,4.3875 L6.19305556,9.50625 L4.09861111,9.74765625 C3.81875,9.78046875 3.58177083,9.534375 3.61336806,9.24375 L3.84583333,7.06875 L8.775,1.95 C8.86076389,1.8609375 9.00069444,1.8609375 9.08645833,1.95 Z M12.7427083,1.41328125 L11.6413194,0.26953125 C11.2982639,-0.08671875 10.7407986,-0.08671875 10.3954861,0.26953125 L9.59652778,1.09921875 C9.51076389,1.18828125 9.51076389,1.33359375 9.59652778,1.42265625 L11.6322917,3.53671875 C11.7180556,3.62578125 11.8579861,3.62578125 11.94375,3.53671875 L12.7427083,2.70703125 C13.0857639,2.3484375 13.0857639,1.76953125 12.7427083,1.41328125 Z M8.66666667,8.1140625 L8.66666667,10.5 L1.44444444,10.5 L1.44444444,3 L6.63090278,3 C6.703125,3 6.77083333,2.96953125 6.82274306,2.91796875 L7.72552083,1.98046875 C7.89704861,1.80234375 7.77517361,1.5 7.53368056,1.5 L1.08333333,1.5 C0.485243056,1.5 0,2.00390625 0,2.625 L0,10.875 C0,11.4960938 0.485243056,12 1.08333333,12 L9.02777778,12 C9.62586806,12 10.1111111,11.4960938 10.1111111,10.875 L10.1111111,7.1765625 C10.1111111,6.92578125 9.81996528,6.8015625 9.6484375,6.97734375 L8.74565972,7.91484375 C8.69600694,7.96875 8.66666667,8.0390625 8.66666667,8.1140625 Z" id="Shape"></path>
        </g>
    </g>
</svg>