<?xml version="1.0" encoding="UTF-8"?>
<svg width="13px" height="13px" viewBox="0 0 13 13" version="1.1" xmlns="http://www.w3.org/2000/svg" xmlns:xlink="http://www.w3.org/1999/xlink">
    <!-- Generator: Sketch 58 (84663) - https://sketch.com -->
    <title>icons/web-application/puzzle</title>
    <desc>Created with Sketch.</desc>
    <g id="icons/web-application/puzzle" stroke="none" stroke-width="1" fill="none" fill-rule="evenodd">
        <g id="puzzle-piece" fill="#676A6C" fill-rule="nonzero">
            <path d="M11.7235174,6.51469271 C10.7864566,6.51469271 10.3806354,7.22772917 9.87151389,7.22772917 C8.51791146,7.22772917 9.75,3.25 9.75,3.25 C9.75,3.25 5.31988889,5.05555556 5.31988889,3.17558854 C5.31988889,2.36699306 6.13888889,2.13175174 6.13888889,1.23495486 C6.13888889,0.433694444 5.50434896,0 4.75174826,0 C3.96962674,0 3.25390451,0.426359375 3.25390451,1.27169792 C3.25390451,2.20526042 3.96960417,2.60954687 3.96960417,3.11675 C3.96962674,4.68810243 0,3.76363542 0,3.76363542 L0,11.2846094 C0,11.2846094 4.03169271,12.2110174 4.03169271,10.637724 C4.03169271,10.1305208 3.12891493,9.73253125 3.12891493,8.79896875 C3.12891493,7.95360764 3.78907118,7.52727083 4.5638125,7.52727083 C5.3237934,7.52727083 5.95833333,7.96096528 5.95833333,8.76220312 C5.95833333,9.659 5.13933333,9.89424132 5.13933333,10.7028368 C5.13933333,12.0751267 8.06602604,11.2835486 9.22959375,11.2835486 C9.22959375,11.2835486 8.44586979,8.57293576 9.81249479,8.57293576 C10.6241372,8.57293576 10.8602361,9.38886632 11.7604184,9.38886632 C12.5646806,9.38888889 13,8.75671875 13,7.9995816 C13,7.22772917 12.5720382,6.51469271 11.7235174,6.51469271 Z" id="Path"></path>
        </g>
    </g>
</svg>