<?xml version="1.0" encoding="UTF-8"?>
<svg width="13px" height="13px" viewBox="0 0 13 13" version="1.1" xmlns="http://www.w3.org/2000/svg" xmlns:xlink="http://www.w3.org/1999/xlink">
    <!-- Generator: Sketch 58 (84663) - https://sketch.com -->
    <title>icons/web-application/question-circle</title>
    <desc>Created with Sketch.</desc>
    <g id="icons/web-application/question-circle" stroke="none" stroke-width="1" fill="none" fill-rule="evenodd">
        <g id="question-circle" fill="#676A6C" fill-rule="nonzero">
            <path d="M13,6.5 C13,10.0906472 10.0895988,13 6.5,13 C2.91040121,13 0,10.0906472 0,6.5 C0,2.9114496 2.91040121,0 6.5,0 C10.0895988,0 13,2.9114496 13,6.5 Z M6.6744254,2.14919355 C5.24607661,2.14919355 4.33508065,2.75088911 3.61971371,3.82027016 C3.52703629,3.95881452 3.55804234,4.14566331 3.69087298,4.2463871 L4.60032258,4.93596371 C4.73674395,5.03941331 4.93111492,5.01480242 5.03710685,4.88034677 C5.50531653,4.2864879 5.82635887,3.94211895 6.539,3.94211895 C7.0744375,3.94211895 7.73672984,4.28672379 7.73672984,4.8059375 C7.73672984,5.19845363 7.4126996,5.40003226 6.88402419,5.6964375 C6.26746774,6.04206452 5.4516129,6.47224395 5.4516129,7.5483871 L5.4516129,7.65322581 C5.4516129,7.82691734 5.5924375,7.96774194 5.76612903,7.96774194 L7.23387097,7.96774194 C7.4075625,7.96774194 7.5483871,7.82691734 7.5483871,7.65322581 L7.5483871,7.61828831 C7.5483871,6.87230847 9.72866532,6.84125 9.72866532,4.82258065 C9.72866532,3.30236694 8.15176008,2.14919355 6.6744254,2.14919355 L6.6744254,2.14919355 Z M6.5,8.64919355 C5.83519153,8.64919355 5.29435484,9.19003024 5.29435484,9.85483871 C5.29435484,10.519621 5.83519153,11.0604839 6.5,11.0604839 C7.16480847,11.0604839 7.70564516,10.519621 7.70564516,9.85483871 C7.70564516,9.19003024 7.16480847,8.64919355 6.5,8.64919355 Z" id="Shape"></path>
        </g>
    </g>
</svg>