<?xml version="1.0" encoding="UTF-8"?>
<svg width="13px" height="13px" viewBox="0 0 13 13" version="1.1" xmlns="http://www.w3.org/2000/svg" xmlns:xlink="http://www.w3.org/1999/xlink">
    <!-- Generator: Sketch 58 (84663) - https://sketch.com -->
    <title>icons/web-application/question</title>
    <desc>Created with Sketch.</desc>
    <g id="icons/web-application/question" stroke="none" stroke-width="1" fill="none" fill-rule="evenodd">
        <g id="question" transform="translate(2.000000, 0.000000)" fill="#676A6C" fill-rule="nonzero">
            <path d="M4.49467383,0 C2.46801953,0 1.15534961,0.830349609 0.124769531,2.31120703 C-0.0621816406,2.57983984 -0.00454492188,2.94815625 0.256242187,3.14589844 L1.35154297,3.97640039 C1.61491992,4.17609766 1.98966016,4.1294043 2.19585742,3.87108008 C2.83186719,3.07429688 3.30365039,2.61553906 4.29710937,2.61553906 C5.07822656,2.61553906 6.04439063,3.11824805 6.04439063,3.87570117 C6.04439063,4.44831055 5.57169336,4.74238477 4.80042773,5.17478711 C3.90101562,5.67904492 2.71080469,6.30659961 2.71080469,7.87647656 L2.71080469,8.125 C2.71080469,8.46155273 2.98362695,8.734375 3.32017969,8.734375 L5.16026367,8.734375 C5.49681641,8.734375 5.76963867,8.46155273 5.76963867,8.125 L5.76963867,7.97841992 C5.76963867,6.89017773 8.95027148,6.84485547 8.95027148,3.9 C8.95027148,1.68228125 6.64985547,0 4.49467383,0 Z M4.24023438,9.48235742 C3.27041406,9.48235742 2.48140039,10.2713711 2.48140039,11.2411914 C2.48140039,12.2109863 3.27041406,13 4.24023438,13 C5.21005469,13 5.99906836,12.2109863 5.99906836,11.241166 C5.99906836,10.2713457 5.21005469,9.48235742 4.24023438,9.48235742 Z" id="Shape"></path>
        </g>
    </g>
</svg>