<?xml version="1.0" encoding="UTF-8"?>
<svg width="13px" height="13px" viewBox="0 0 13 13" version="1.1" xmlns="http://www.w3.org/2000/svg" xmlns:xlink="http://www.w3.org/1999/xlink">
    <!-- Generator: Sketch 58 (84663) - https://sketch.com -->
    <title>icons/web-application/quote-left</title>
    <desc>Created with Sketch.</desc>
    <g id="icons/web-application/quote-left" stroke="none" stroke-width="1" fill="none" fill-rule="evenodd">
        <g id="quote-left" transform="translate(0.000000, 1.000000)" fill="#676A6C" fill-rule="nonzero">
            <path d="M11.78125,5.5 L9.75,5.5 L9.75,3.92857143 C9.75,3.06183036 10.4787109,2.35714286 11.375,2.35714286 L11.578125,2.35714286 C11.9158203,2.35714286 12.1875,2.09441964 12.1875,1.76785714 L12.1875,0.589285714 C12.1875,0.262723214 11.9158203,0 11.578125,0 L11.375,0 C9.13046875,0 7.3125,1.75803571 7.3125,3.92857143 L7.3125,9.82142857 C7.3125,10.4720982 7.85839844,11 8.53125,11 L11.78125,11 C12.4541016,11 13,10.4720982 13,9.82142857 L13,6.67857143 C13,6.02790179 12.4541016,5.5 11.78125,5.5 Z M4.46875,5.5 L2.4375,5.5 L2.4375,3.92857143 C2.4375,3.06183036 3.16621094,2.35714286 4.0625,2.35714286 L4.265625,2.35714286 C4.60332031,2.35714286 4.875,2.09441964 4.875,1.76785714 L4.875,0.589285714 C4.875,0.262723214 4.60332031,0 4.265625,0 L4.0625,0 C1.81796875,0 0,1.75803571 0,3.92857143 L0,9.82142857 C0,10.4720982 0.545898438,11 1.21875,11 L4.46875,11 C5.14160156,11 5.6875,10.4720982 5.6875,9.82142857 L5.6875,6.67857143 C5.6875,6.02790179 5.14160156,5.5 4.46875,5.5 Z" id="Shape"></path>
        </g>
    </g>
</svg>