<?xml version="1.0" encoding="UTF-8"?>
<svg width="13px" height="13px" viewBox="0 0 13 13" version="1.1" xmlns="http://www.w3.org/2000/svg" xmlns:xlink="http://www.w3.org/1999/xlink">
    <!-- Generator: Sketch 58 (84663) - https://sketch.com -->
    <title>icons/web-application/quote-right</title>
    <desc>Created with Sketch.</desc>
    <g id="icons/web-application/quote-right" stroke="none" stroke-width="1" fill="none" fill-rule="evenodd">
        <g id="quote-right" transform="translate(0.000000, 1.000000)" fill="#676A6C" fill-rule="nonzero">
            <path d="M11.78125,0 L8.53125,0 C7.85839844,0 7.3125,0.527901786 7.3125,1.17857143 L7.3125,4.32142857 C7.3125,4.97209821 7.85839844,5.5 8.53125,5.5 L10.5625,5.5 L10.5625,7.07142857 C10.5625,7.93816964 9.83378906,8.64285714 8.9375,8.64285714 L8.734375,8.64285714 C8.39667969,8.64285714 8.125,8.90558036 8.125,9.23214286 L8.125,10.4107143 C8.125,10.7372768 8.39667969,11 8.734375,11 L8.9375,11 C11.1820312,11 13,9.24196429 13,7.07142857 L13,1.17857143 C13,0.527901786 12.4541016,0 11.78125,0 Z M4.46875,0 L1.21875,0 C0.545898438,0 0,0.527901786 0,1.17857143 L0,4.32142857 C0,4.97209821 0.545898438,5.5 1.21875,5.5 L3.25,5.5 L3.25,7.07142857 C3.25,7.93816964 2.52128906,8.64285714 1.625,8.64285714 L1.421875,8.64285714 C1.08417969,8.64285714 0.8125,8.90558036 0.8125,9.23214286 L0.8125,10.4107143 C0.8125,10.7372768 1.08417969,11 1.421875,11 L1.625,11 C3.86953125,11 5.6875,9.24196429 5.6875,7.07142857 L5.6875,1.17857143 C5.6875,0.527901786 5.14160156,0 4.46875,0 Z" id="Shape"></path>
        </g>
    </g>
</svg>