<?xml version="1.0" encoding="UTF-8"?>
<svg width="13px" height="11px" viewBox="0 0 13 11" version="1.1" xmlns="http://www.w3.org/2000/svg" xmlns:xlink="http://www.w3.org/1999/xlink">
    <!-- Generator: Sketch 58 (84663) - https://sketch.com -->
    <title>icons/web-application/random</title>
    <desc>Created with Sketch.</desc>
    <g id="icons/web-application/random" stroke="none" stroke-width="1" fill="none" fill-rule="evenodd">
        <g id="random" fill="#676A6C" fill-rule="nonzero">
            <path d="M12.8215105,8.02972991 C13.0594965,8.25987054 13.0594965,8.63298661 12.8215105,8.86310268 L10.7902635,10.8269955 C10.4091508,11.1955446 9.74998572,10.9372411 9.74998572,10.4102969 L9.74998572,9.42857143 L8.25740001,9.42857143 C8.17294663,9.42856304 8.09228268,9.39466878 8.03464839,9.33497321 L6.24319007,7.47882143 L7.59734629,6.0757567 L8.93748691,7.46428571 L9.74998572,7.46428571 L9.74998572,6.48260937 C9.74998572,5.95622991 10.4086937,5.6969442 10.7902635,6.06591071 L12.8215105,8.02972991 Z M0.304687054,3.53571429 L2.43749643,3.53571429 L3.77763704,4.9242433 L5.13179326,3.52117857 L3.34033495,1.66502679 C3.28270966,1.60531888 3.20203988,1.57142857 3.11758332,1.57142857 L0.304687054,1.57142857 C0.136423628,1.57142857 0,1.70335491 0,1.86607143 L0,3.24107143 C0,3.40378795 0.136423628,3.53571429 0.304687054,3.53571429 Z M9.74998572,3.53571429 L9.74998572,4.51746429 C9.74998572,5.04438393 10.4091508,5.3026875 10.7902635,4.93416295 L12.8215105,2.97027009 C13.0594965,2.74012946 13.0594965,2.36701339 12.8215105,2.13689732 L10.7902635,0.173078125 C10.4086937,-0.195912946 9.74998572,0.0633973214 9.74998572,0.589752232 L9.74998572,1.57142857 L8.25740001,1.57142857 C8.17294663,1.57143696 8.09228268,1.60533122 8.03464839,1.66502679 L2.43749643,7.46428571 L0.304687054,7.46428571 C0.136423628,7.46428571 0,7.59621205 0,7.75892857 L0,9.13392857 C0,9.29664509 0.136423628,9.42857143 0.304687054,9.42857143 L3.11758332,9.42857143 C3.20203242,9.42857143 3.28269832,9.39466295 3.34033495,9.33497321 L8.93748691,3.53571429 L9.74998572,3.53571429 Z" id="Shape"></path>
        </g>
    </g>
</svg>