<?xml version="1.0" encoding="UTF-8"?>
<svg width="13px" height="13px" viewBox="0 0 13 13" version="1.1" xmlns="http://www.w3.org/2000/svg" xmlns:xlink="http://www.w3.org/1999/xlink">
    <!-- Generator: Sketch 58 (84663) - https://sketch.com -->
    <title>icons/web-application/refresh</title>
    <desc>Created with Sketch.</desc>
    <g id="icons/web-application/refresh" stroke="none" stroke-width="1" fill="none" fill-rule="evenodd">
        <g id="sync-alt" fill="#676A6C" fill-rule="nonzero">
            <path d="M9.50677419,3.28354839 C8.68740726,2.51633871 7.62408065,2.09577823 6.49601613,2.09677419 C4.46586694,2.09855645 2.71322581,3.49055242 2.22931653,5.42147177 C2.19409073,5.56203427 2.06886089,5.66129032 1.92394758,5.66129032 L0.422054435,5.66129032 C0.225534274,5.66129032 0.0762439516,5.48288105 0.112596774,5.28974194 C0.679695565,2.27825 3.32372782,0 6.5,0 C8.24158065,0 9.82315121,0.685016129 10.9901109,1.80021169 L11.9261895,0.864133065 C12.3224536,0.467868952 13,0.748522177 13,1.3089375 L13,4.82258065 C13,5.16998992 12.718377,5.4516129 12.3709677,5.4516129 L8.8573246,5.4516129 C8.29690927,5.4516129 8.01625605,4.77406653 8.41252016,4.37777621 L9.50677419,3.28354839 Z M0.629032258,7.5483871 L4.1426754,7.5483871 C4.70309073,7.5483871 4.98374395,8.22593347 4.58747984,8.62222379 L3.49322581,9.71647782 C4.31259274,10.4837137 5.37599798,10.9042742 6.50408871,10.903252 C8.53318952,10.9014173 10.2865383,9.51036492 10.7706835,7.57858065 C10.8059093,7.43801815 10.9311391,7.3387621 11.0760524,7.3387621 L12.5779718,7.3387621 C12.7744919,7.3387621 12.9237823,7.51717137 12.8874294,7.71031048 C12.3203044,10.72175 9.67627218,13 6.5,13 C4.75841935,13 3.17684879,12.3149839 2.00988911,11.1997883 L1.07381048,12.1358669 C0.677546371,12.532131 0,12.2514778 0,11.6910625 L0,8.17741935 C0,7.83001008 0.281622984,7.5483871 0.629032258,7.5483871 Z" id="Shape"></path>
        </g>
    </g>
</svg>