<?xml version="1.0" encoding="UTF-8"?>
<svg width="13px" height="10px" viewBox="0 0 13 10" version="1.1" xmlns="http://www.w3.org/2000/svg" xmlns:xlink="http://www.w3.org/1999/xlink">
    <!-- Generator: Sketch 58 (84663) - https://sketch.com -->
    <title>icons/web-application/reply-all</title>
    <desc>Created with Sketch.</desc>
    <g id="icons/web-application/reply-all" stroke="none" stroke-width="1" fill="none" fill-rule="evenodd">
        <g id="reply-all" fill="#676A6C" fill-rule="nonzero">
            <path d="M3.07641907,3.523125 L7.04873242,0.130602679 C7.39645993,-0.166383929 7.94444616,0.0747321429 7.94444616,0.536049107 L7.94444616,2.3834375 C10.8600128,2.61180804 13.0000028,3.54888393 13.0000028,6.48049107 C13.0000028,7.85194196 12.1066589,9.21060268 11.1192229,9.9209375 C10.8110822,10.1426116 10.3719258,9.86439732 10.4855405,9.50506696 C11.3547351,6.75591518 10.3970231,5.72198661 7.94444616,5.44223214 L7.94444616,7.32113839 C7.94444616,7.78321429 7.39600854,8.02321429 7.04873242,7.72658482 L3.07641907,4.33401786 C2.82655269,4.12060268 2.82621415,3.73685268 3.07641907,3.523125 Z M0.187529554,4.33401786 L4.15984291,7.7265625 C4.50711903,8.02319196 5.05555664,7.78319196 5.05555664,7.32111607 L5.05555664,6.96803571 L2.60437903,4.87462054 C2.32629943,4.63721988 2.16650922,4.29184083 2.16666713,3.92852679 C2.16651533,3.56525074 2.32629787,3.21991121 2.60435646,2.98254464 L5.05555664,0.889107143 L5.05555664,0.536049107 C5.05555664,0.0747321429 4.50757042,-0.166383929 4.15984291,0.130602679 L0.187529554,3.523125 C-0.0626753607,3.73685268 -0.062336819,4.12060268 0.187529554,4.33401786 Z" id="Shape"></path>
        </g>
    </g>
</svg>