<?xml version="1.0" encoding="UTF-8"?>
<svg width="14px" height="8px" viewBox="0 0 14 8" version="1.1" xmlns="http://www.w3.org/2000/svg" xmlns:xlink="http://www.w3.org/1999/xlink">
    <!-- Generator: Sketch 58 (84663) - https://sketch.com -->
    <title>icons/web-application/retweet</title>
    <desc>Created with Sketch.</desc>
    <g id="icons/web-application/retweet" stroke="none" stroke-width="1" fill="none" fill-rule="evenodd">
        <g id="retweet" fill="#676A6C" fill-rule="nonzero">
            <path d="M12.8621349,5.78771429 L10.7955537,7.84253061 C10.6031728,8.03379592 10.2912952,8.03379592 10.0989143,7.84253061 L8.03231264,5.78771429 C7.83993173,5.59642857 7.83993173,5.28630612 8.03231264,5.09504082 L8.25445483,4.87416327 C8.45071497,4.67902041 8.7703099,4.68355102 8.96090515,4.88420408 L9.79042343,5.7575102 L9.79042343,2.04081633 L5.94097832,2.04081633 C5.81033304,2.04080985 5.6850389,1.98921131 5.59264838,1.89736735 L5.26424822,1.57083673 C4.95393059,1.26226531 5.1737124,0.734693878 5.61257816,0.734693878 L10.6114238,0.734693878 C10.8834828,0.734693878 11.1040241,0.953979592 11.1040241,1.2244898 L11.1040241,5.7575102 L11.9335629,4.88420408 C12.1241376,4.68357143 12.4437325,4.67902041 12.6400132,4.87416327 L12.8621554,5.09504082 C13.0545158,5.28630612 13.0545158,5.59644898 12.8621349,5.78771429 L12.8621349,5.78771429 Z M7.42017475,6.10263265 C7.32779189,6.01077729 7.20249278,5.9591767 7.0718448,5.95918367 L3.22242022,5.95918367 L3.22242022,2.24246939 L4.05195903,3.11577551 C4.24255427,3.31640816 4.56212868,3.32095918 4.75840935,3.12579592 L4.980531,2.90493878 C5.17291192,2.71365306 5.17291192,2.40353061 4.980531,2.21226531 L2.91394985,0.157469388 C2.72156893,-0.0338163265 2.40967087,-0.0338163265 2.21731048,0.157469388 L0.150708796,2.21228571 C-0.0416721225,2.40357143 -0.0416721225,2.71369388 0.150708796,2.90495918 L0.372830455,3.12581633 C0.569090601,3.32095918 0.888685532,3.31642857 1.07928077,3.11579592 L1.90881958,2.24246939 L1.90881958,6.7755102 C1.90881958,7.04602041 2.12936081,7.26530612 2.40141982,7.26530612 L7.40026549,7.26530612 C7.83913125,7.26530612 8.05891306,6.73773469 7.74859543,6.42916327 L7.42017475,6.10263265 L7.42017475,6.10263265 Z" id="Shape"></path>
        </g>
    </g>
</svg>