<?xml version="1.0" encoding="UTF-8"?>
<svg width="13px" height="13px" viewBox="0 0 13 13" version="1.1" xmlns="http://www.w3.org/2000/svg" xmlns:xlink="http://www.w3.org/1999/xlink">
    <!-- Generator: Sketch 58 (84663) - https://sketch.com -->
    <title>icons/web-application/rocket</title>
    <desc>Created with Sketch.</desc>
    <g id="icons/web-application/rocket" stroke="none" stroke-width="1" fill="none" fill-rule="evenodd">
        <g id="rocket" fill="#676A6C" fill-rule="nonzero">
            <path d="M12.8255126,0.484954077 C12.7921783,0.329753503 12.6709082,0.20851775 12.5156638,0.175192834 C11.697866,0 11.0581044,0 10.4206285,0 C7.7996121,0 6.22751022,1.40154267 5.05440222,3.24995402 L2.40798839,3.24995402 C1.94705499,3.2503439 1.5257556,3.51059736 1.3191999,3.92254216 L0.0640581462,6.43110042 C-0.0301857781,6.62004339 -0.0198829869,6.84429308 0.0912889536,7.02380388 C0.202460894,7.20331469 0.398658472,7.31250388 0.60984925,7.31239655 L3.24534217,7.31239655 L2.67466157,7.88291582 C2.35735719,8.20019827 2.35735719,8.71454289 2.67466157,9.03182535 L3.96739155,10.3244438 C4.11981112,10.4768551 4.32655731,10.5624817 4.54213574,10.5624817 C4.75771417,10.5624817 4.96446036,10.4768551 5.11687993,10.3244438 L5.68756053,9.75392451 L5.68756053,12.3904497 C5.68749705,12.6015078 5.79668287,12.7975702 5.97616802,12.9086955 C6.15565316,13.0198207 6.37987699,13.0301833 6.56885189,12.9360865 L9.07557977,11.6820613 C9.48836025,11.4759222 9.74899718,11.0541047 9.74861207,10.5928189 L9.74861207,7.94182124 C11.5922126,6.76625193 12.9994851,5.18951642 12.9994851,2.58219003 C13.0020248,1.94235533 13.0020248,1.30252063 12.8255126,0.484954077 Z M9.75115182,4.26556465 C9.19008694,4.26556465 8.735254,3.81086028 8.735254,3.24995402 C8.735254,2.68904776 9.19008694,2.23434339 9.75115182,2.23434339 C10.3122167,2.23434339 10.7670496,2.68904776 10.7670496,3.24995402 C10.7670496,3.51931071 10.6600179,3.77763525 10.4695001,3.96809919 C10.2789823,4.15856313 10.0205847,4.26556465 9.75115182,4.26556465 L9.75115182,4.26556465 Z" id="Shape"></path>
        </g>
    </g>
</svg>