<?xml version="1.0" encoding="UTF-8"?>
<svg width="13px" height="13px" viewBox="0 0 13 13" version="1.1" xmlns="http://www.w3.org/2000/svg" xmlns:xlink="http://www.w3.org/1999/xlink">
    <!-- Generator: Sketch 58 (84663) - https://sketch.com -->
    <title>icons/web-application/rss-square</title>
    <desc>Created with Sketch.</desc>
    <g id="icons/web-application/rss-square" stroke="none" stroke-width="1" fill="none" fill-rule="evenodd">
        <g id="rss-square" fill="#676A6C" fill-rule="nonzero">
            <path d="M11.6071429,0 L1.39285714,0 C0.62359375,0 0,0.62359375 0,1.39285714 L0,11.6071429 C0,12.3764063 0.62359375,13 1.39285714,13 L11.6071429,13 C12.3764063,13 13,12.3764063 13,11.6071429 L13,1.39285714 C13,0.62359375 12.3764063,0 11.6071429,0 Z M3.25,11.1428571 C2.48073661,11.1428571 1.85714286,10.5192634 1.85714286,9.75 C1.85714286,8.98073661 2.48073661,8.35714286 3.25,8.35714286 C4.01926339,8.35714286 4.64285714,8.98073661 4.64285714,9.75 C4.64285714,10.5192634 4.01926339,11.1428571 3.25,11.1428571 Z M7.82127009,11.1428571 L6.82494196,11.1428571 C6.65051563,11.1428571 6.50426563,11.0083304 6.49291964,10.8342812 C6.34162054,8.51140179 4.48363616,6.65803125 2.16568973,6.50705134 C1.99166964,6.49573438 1.85714286,6.34945536 1.85714286,6.17505804 L1.85714286,5.17872991 C1.85714286,4.98909821 2.0158125,4.83698661 2.20518304,4.84720089 C5.41299107,5.02055357 7.97964955,7.59043304 8.15279911,10.794817 C8.16301339,10.9841875 8.01090179,11.1428571 7.82127009,11.1428571 Z M10.8108929,11.1428571 L9.81459375,11.1428571 C9.63581473,11.1428571 9.4903192,11.001192 9.4830067,10.822558 C9.32056473,6.86060491 6.14003348,3.6794933 2.17747098,3.51702232 C1.99880804,3.5096808 1.85714286,3.36418527 1.85714286,3.18540625 L1.85714286,2.18910714 C1.85714286,2.00182589 2.01204018,1.85064286 2.19917634,1.857375 C7.0692433,2.03220759 10.9686629,5.95443527 11.142625,10.8008237 C11.1493571,10.9879598 10.9981741,11.1428571 10.8108929,11.1428571 L10.8108929,11.1428571 Z" id="Shape"></path>
        </g>
    </g>
</svg>