<?xml version="1.0" encoding="UTF-8"?>
<svg width="13px" height="13px" viewBox="0 0 13 13" version="1.1" xmlns="http://www.w3.org/2000/svg" xmlns:xlink="http://www.w3.org/1999/xlink">
    <!-- Generator: Sketch 58 (84663) - https://sketch.com -->
    <title>icons/web-application/rss</title>
    <desc>Created with Sketch.</desc>
    <g id="icons/web-application/rss" stroke="none" stroke-width="1" fill="none" fill-rule="evenodd">
        <g id="rss" fill="#676A6C" fill-rule="nonzero">
            <path d="M3.71663292,11.116853 C3.71663292,12.1408998 2.88463364,12.9710468 1.85830195,12.9710468 C0.831970256,12.9710468 0,12.1408998 0,11.116853 C0,10.0928062 0.831999274,9.26265924 1.85833097,9.26265924 C2.88466266,9.26265924 3.71663292,10.0928352 3.71663292,11.116853 L3.71663292,11.116853 Z M8.81390526,12.4848931 C8.57149029,8.00872383 4.97818316,4.41889978 0.487238414,4.17676392 C0.22216052,4.16246102 0,4.37497773 0,4.63984187 L0,6.03159465 C0,6.27523608 0.188325729,6.47955902 0.431988462,6.49536748 C3.67711063,6.70626281 6.27829809,9.29520267 6.49009925,12.5399911 C6.505972,12.7831114 6.71075084,12.9710178 6.95490688,12.9710178 L8.34976504,12.9710178 C8.61524918,12.9710178 8.82824007,12.7493808 8.81390526,12.4848931 Z M12.9996985,12.4932316 C12.7561228,5.72338753 7.29696908,0.244510022 0.478881279,0.000289532294 C0.216850257,-0.00909131403 0,0.202122494 0,0.463714922 L0,1.85543875 C0,2.10516036 0.198336881,2.30841203 0.448412555,2.31866147 C5.99601263,2.54562584 10.4487409,6.98928062 10.6761826,12.5236615 C10.6864259,12.7731804 10.8901311,12.9710757 11.1404389,12.9710757 L12.5352681,12.9710757 C12.7974152,12.9710757 13.0091003,12.7546793 12.9996985,12.4932316 L12.9996985,12.4932316 Z" id="Shape"></path>
        </g>
    </g>
</svg>