<?xml version="1.0" encoding="UTF-8"?>
<svg width="13px" height="13px" viewBox="0 0 13 13" version="1.1" xmlns="http://www.w3.org/2000/svg" xmlns:xlink="http://www.w3.org/1999/xlink">
    <!-- Generator: Sketch 58 (84663) - https://sketch.com -->
    <title>icons/web-application/search</title>
    <desc>Created with Sketch.</desc>
    <g id="icons/web-application/search" stroke="none" stroke-width="1" fill="none" fill-rule="evenodd">
        <g id="search" fill="#676A6C" fill-rule="nonzero">
            <path d="M12.8232036,11.2185185 L10.2915731,8.6920078 C10.1773069,8.57797271 10.0224128,8.51461988 9.85990088,8.51461988 L9.44600342,8.51461988 C10.1468359,7.62007797 10.5632726,6.49493177 10.5632726,5.27095517 C10.5632726,2.35925926 8.19923254,0 5.28163632,0 C2.3640401,0 0,2.35925926 0,5.27095517 C0,8.18265107 2.3640401,10.5419103 5.28163632,10.5419103 C6.50809322,10.5419103 7.63551943,10.1263158 8.53187406,9.42690058 L8.53187406,9.83996101 C8.53187406,10.0021442 8.59535526,10.1567251 8.70962143,10.2707602 L11.2412519,12.797271 C11.4799413,13.0354776 11.865907,13.0354776 12.1020571,12.797271 L12.8206643,12.080117 C13.0593537,11.8419103 13.0593537,11.4567251 12.8232036,11.2185185 Z M5.28163632,8.51461988 C3.48638782,8.51461988 2.03139859,7.06510721 2.03139859,5.27095517 C2.03139859,3.47933723 3.48384857,2.02729045 5.28163632,2.02729045 C7.07688482,2.02729045 8.53187406,3.47680312 8.53187406,5.27095517 C8.53187406,7.0625731 7.07942407,8.51461988 5.28163632,8.51461988 Z" id="Shape"></path>
        </g>
    </g>
</svg>