<?xml version="1.0" encoding="UTF-8"?>
<svg width="13px" height="13px" viewBox="0 0 13 13" version="1.1" xmlns="http://www.w3.org/2000/svg" xmlns:xlink="http://www.w3.org/1999/xlink">
    <!-- Generator: Sketch 58 (84663) - https://sketch.com -->
    <title>icons/web-application/search-plus</title>
    <desc>Created with Sketch.</desc>
    <g id="icons/web-application/search-plus" stroke="none" stroke-width="1" fill="none" fill-rule="evenodd">
        <g id="search-plus" fill="#676A6C" fill-rule="nonzero">
            <path d="M7.71912691,4.86549708 L7.71912691,5.67641326 C7.71912691,5.84366472 7.58201084,5.98050682 7.41442453,5.98050682 L5.9924801,5.98050682 L5.9924801,7.39961014 C5.9924801,7.5668616 5.85536403,7.7037037 5.68777772,7.7037037 L4.87523805,7.7037037 C4.70765174,7.7037037 4.57053567,7.5668616 4.57053567,7.39961014 L4.57053567,5.98050682 L3.14859124,5.98050682 C2.98100493,5.98050682 2.84388886,5.84366472 2.84388886,5.67641326 L2.84388886,4.86549708 C2.84388886,4.69824561 2.98100493,4.56140351 3.14859124,4.56140351 L4.57053567,4.56140351 L4.57053567,3.14230019 C4.57053567,2.97504873 4.70765174,2.83820663 4.87523805,2.83820663 L5.68777772,2.83820663 C5.85536403,2.83820663 5.9924801,2.97504873 5.9924801,3.14230019 L5.9924801,4.56140351 L7.41442453,4.56140351 C7.58201084,4.56140351 7.71912691,4.69824561 7.71912691,4.86549708 Z M12.8228917,12.080117 L12.104302,12.797271 C11.8656184,13.0354776 11.4796621,13.0354776 11.2435177,12.797271 L8.70940964,10.2707602 C8.59514625,10.1567251 8.53166659,10.0021442 8.53166659,9.83996101 L8.53166659,9.42690058 C7.63533376,10.1263158 6.50793496,10.5419103 5.28150789,10.5419103 C2.36398262,10.5419103 0,8.18265107 0,5.27095517 C0,2.35925926 2.36398262,0 5.28150789,0 C8.19903316,0 10.5630158,2.35925926 10.5630158,5.27095517 C10.5630158,6.49493177 10.1465892,7.62007797 9.44577372,8.51461988 L9.85966112,8.51461988 C10.0221691,8.51461988 10.1770594,8.57797271 10.2913228,8.6920078 L12.8228917,11.2185185 C13.0590361,11.4567251 13.0590361,11.8419103 12.8228917,12.080117 Z M8.7348015,5.27095517 C8.7348015,3.36530214 7.19097612,1.8245614 5.28150789,1.8245614 C3.37203965,1.8245614 1.82821427,3.36530214 1.82821427,5.27095517 C1.82821427,7.17660819 3.37203965,8.71734893 5.28150789,8.71734893 C7.19097612,8.71734893 8.7348015,7.17660819 8.7348015,5.27095517 Z" id="Shape"></path>
        </g>
    </g>
</svg>