<?xml version="1.0" encoding="UTF-8"?>
<svg width="13px" height="13px" viewBox="0 0 13 13" version="1.1" xmlns="http://www.w3.org/2000/svg" xmlns:xlink="http://www.w3.org/1999/xlink">
    <!-- Generator: Sketch 58 (84663) - https://sketch.com -->
    <title>icons/web-application/server</title>
    <desc>Created with Sketch.</desc>
    <g id="icons/web-application/server" stroke="none" stroke-width="1" fill="none" fill-rule="evenodd">
        <g id="server" transform="translate(0.000000, 1.000000)" fill="#676A6C" fill-rule="nonzero">
            <path d="M12.1875,3.25 L0.8125,3.25 C0.363771484,3.25 0,2.88622852 0,2.4375 L0,0.8125 C0,0.363771484 0.363771484,0 0.8125,0 L12.1875,0 C12.6362285,0 13,0.363771484 13,0.8125 L13,2.4375 C13,2.88622852 12.6362285,3.25 12.1875,3.25 Z M10.96875,1.015625 C10.6321973,1.015625 10.359375,1.28844727 10.359375,1.625 C10.359375,1.96155273 10.6321973,2.234375 10.96875,2.234375 C11.3053027,2.234375 11.578125,1.96155273 11.578125,1.625 C11.578125,1.28844727 11.3053027,1.015625 10.96875,1.015625 Z M9.34375,1.015625 C9.00719727,1.015625 8.734375,1.28844727 8.734375,1.625 C8.734375,1.96155273 9.00719727,2.234375 9.34375,2.234375 C9.68030273,2.234375 9.953125,1.96155273 9.953125,1.625 C9.953125,1.28844727 9.68030273,1.015625 9.34375,1.015625 Z M12.1875,7.3125 L0.8125,7.3125 C0.363771484,7.3125 0,6.94872852 0,6.5 L0,4.875 C0,4.42627148 0.363771484,4.0625 0.8125,4.0625 L12.1875,4.0625 C12.6362285,4.0625 13,4.42627148 13,4.875 L13,6.5 C13,6.94872852 12.6362285,7.3125 12.1875,7.3125 Z M10.96875,5.078125 C10.6321973,5.078125 10.359375,5.35094727 10.359375,5.6875 C10.359375,6.02405273 10.6321973,6.296875 10.96875,6.296875 C11.3053027,6.296875 11.578125,6.02405273 11.578125,5.6875 C11.578125,5.35094727 11.3053027,5.078125 10.96875,5.078125 Z M9.34375,5.078125 C9.00719727,5.078125 8.734375,5.35094727 8.734375,5.6875 C8.734375,6.02405273 9.00719727,6.296875 9.34375,6.296875 C9.68030273,6.296875 9.953125,6.02405273 9.953125,5.6875 C9.953125,5.35094727 9.68030273,5.078125 9.34375,5.078125 Z M12.1875,11.375 L0.8125,11.375 C0.363771484,11.375 0,11.0112285 0,10.5625 L0,8.9375 C0,8.48877148 0.363771484,8.125 0.8125,8.125 L12.1875,8.125 C12.6362285,8.125 13,8.48877148 13,8.9375 L13,10.5625 C13,11.0112285 12.6362285,11.375 12.1875,11.375 Z M10.96875,9.140625 C10.6321973,9.140625 10.359375,9.41344727 10.359375,9.75 C10.359375,10.0865527 10.6321973,10.359375 10.96875,10.359375 C11.3053027,10.359375 11.578125,10.0865527 11.578125,9.75 C11.578125,9.41344727 11.3053027,9.140625 10.96875,9.140625 Z M9.34375,9.140625 C9.00719727,9.140625 8.734375,9.41344727 8.734375,9.75 C8.734375,10.0865527 9.00719727,10.359375 9.34375,10.359375 C9.68030273,10.359375 9.953125,10.0865527 9.953125,9.75 C9.953125,9.41344727 9.68030273,9.140625 9.34375,9.140625 Z" id="Shape"></path>
        </g>
    </g>
</svg>