<?xml version="1.0" encoding="UTF-8"?>
<svg width="13px" height="13px" viewBox="0 0 13 13" version="1.1" xmlns="http://www.w3.org/2000/svg" xmlns:xlink="http://www.w3.org/1999/xlink">
    <!-- Generator: Sketch 58 (84663) - https://sketch.com -->
    <title>icons/web-application/share-square-o</title>
    <desc>Created with Sketch.</desc>
    <g id="icons/web-application/share-square-o" stroke="none" stroke-width="1" fill="none" fill-rule="evenodd">
        <g id="share-square" fill="#676A6C" fill-rule="nonzero">
            <path d="M12.6826175,3.70453125 L9.43266542,0.33028125 C8.75526671,-0.373171875 7.58332675,0.119460938 7.58332675,1.12575 L7.58332675,2.46632812 C6.62525467,2.51039062 5.68681798,2.61984375 4.85784301,2.88796875 C4.06407633,3.14460937 3.43438938,3.534375 2.98661199,4.04625 C2.44246316,4.66875 2.16666479,5.4515625 2.16666479,6.37359375 C2.16666479,7.81961719 2.91547316,9.00925781 4.08213187,9.76640625 C4.9295235,10.317375 6.0061302,9.46989844 5.68501243,8.46 C5.3348478,7.35564844 5.29781137,6.79774219 7.58332675,6.6140625 L7.58332675,7.875 C7.58332675,8.88264844 8.75621462,9.37296094 9.43266542,8.67046875 L12.6826175,5.29546875 C13.1057942,4.85625 13.1057942,4.14375 12.6826175,3.70453125 Z M8.66665914,7.875 L8.66665914,5.44125 C5.76217729,5.48629687 3.75762868,5.98476563 4.65629804,8.8125 C3.99004862,8.38007813 3.24999718,7.595625 3.24999718,6.37359375 C3.24999718,3.81107813 6.1646127,3.58577344 8.66665914,3.56460938 L8.66665914,1.125 L11.9166563,4.5 L8.66665914,7.875 Z M9.22502671,9.85530469 C9.39181079,9.80583144 9.55113576,9.73244491 9.69839783,9.63726562 C9.87841156,9.52120312 10.1111023,9.656625 10.1111023,9.87665625 L10.1111023,10.875 C10.1111023,11.4963281 9.62608539,12 9.02776994,12 L1.08333239,12 C0.48501694,12 0,11.4963281 0,10.875 L0,2.625 C0,2.00367188 0.48501694,1.5 1.08333239,1.5 L4.06249647,1.5 C4.21206405,1.5 4.33332957,1.62592969 4.33332957,1.78125 L4.33332957,1.88639063 C4.33332957,2.00163281 4.2659147,2.10597656 4.1625016,2.14776563 C3.85325534,2.27271094 3.56675906,2.41816406 3.30373498,2.58335156 C3.26103723,2.61041178 3.21201982,2.62481531 3.16199899,2.625 L1.21874894,2.625 C1.14396045,2.625 1.08333239,2.68795996 1.08333239,2.765625 L1.08333239,10.734375 C1.08333239,10.81204 1.14396045,10.875 1.21874894,10.875 L8.89235339,10.875 C8.96714189,10.875 9.02776994,10.81204 9.02776994,10.734375 L9.02776994,10.1257969 C9.02776994,9.9999375 9.10854591,9.89003906 9.22502671,9.85530469 Z" id="Shape"></path>
        </g>
    </g>
</svg>