<?xml version="1.0" encoding="UTF-8"?>
<svg width="13px" height="13px" viewBox="0 0 13 13" version="1.1" xmlns="http://www.w3.org/2000/svg" xmlns:xlink="http://www.w3.org/1999/xlink">
    <!-- Generator: Sketch 58 (84663) - https://sketch.com -->
    <title>icons/web-application/share-square</title>
    <desc>Created with Sketch.</desc>
    <g id="icons/web-application/share-square" stroke="none" stroke-width="1" fill="none" fill-rule="evenodd">
        <g id="share-square" fill="#676A6C" fill-rule="nonzero">
            <path d="M12.8303229,4.1589375 L9.5802552,7.34608594 C9.23767361,7.6820625 8.66666666,7.43296875 8.66666666,6.93714844 L8.66666666,5.25051562 C5.40368923,5.27325 4.02715625,6.07347656 4.94778646,9.26660156 C5.04896528,9.61753125 4.65785937,9.88926563 4.38341493,9.67277344 C3.50395139,8.97902344 2.70833333,7.6520625 2.70833333,6.31263281 C2.70833333,2.93910937 5.36247743,2.26966406 8.66666666,2.25063281 L8.66666666,0.56278125 C8.66666666,0.066515625 9.23805729,-0.18178125 9.5802552,0.15384375 L12.8303229,3.3410625 C13.0564687,3.56285156 13.0566493,3.93696094 12.8303229,4.1589375 Z M8.66666666,8.8858125 L8.66666666,10.5 L1.44444444,10.5 L1.44444444,3 L2.59359028,3 C2.66728562,2.9999513 2.73777415,2.96869248 2.78877083,2.91344531 C3.12625173,2.54857031 3.51634201,2.25977344 3.94012847,2.03041406 C4.19132639,1.89445313 4.09825,1.5 3.8149809,1.5 L1.08333333,1.5 C0.485017361,1.5 0,2.00367187 0,2.625 L0,10.875 C0,11.4963281 0.485017361,12 1.08333333,12 L9.02777777,12 C9.62609374,12 10.1111111,11.4963281 10.1111111,10.875 L10.1111111,8.79360938 C10.1111111,8.59935938 9.92610937,8.4639375 9.74975173,8.52871875 C9.50249436,8.61952915 9.23771246,8.64668875 8.978125,8.60786719 C8.81404513,8.58335156 8.66666666,8.71366406 8.66666666,8.8858125 L8.66666666,8.8858125 Z" id="Shape"></path>
        </g>
    </g>
</svg>