<?xml version="1.0" encoding="UTF-8"?>
<svg width="13px" height="12px" viewBox="0 0 13 12" version="1.1" xmlns="http://www.w3.org/2000/svg" xmlns:xlink="http://www.w3.org/1999/xlink">
    <!-- Generator: Sketch 58 (84663) - https://sketch.com -->
    <title>icons/web-application/shopping-cart</title>
    <desc>Created with Sketch.</desc>
    <g id="icons/web-application/shopping-cart" stroke="none" stroke-width="1" fill="none" fill-rule="evenodd">
        <g id="shopping-cart" fill="#676A6C" fill-rule="nonzero">
            <path d="M11.9193781,7.06216406 L12.9863037,2.18716406 C13.0633332,1.83517969 12.805703,1.5 12.4581109,1.5 L3.59323704,1.5 L3.38636546,0.449765625 C3.33481683,0.187992188 3.11300428,0 2.85568997,0 L0.541666806,0 C0.242508743,0 0,0.251835937 0,0.5625 L0,0.9375 C0,1.24816406 0.242508743,1.5 0.541666806,1.5 L2.1188877,1.5 L3.70434644,9.54925781 C3.32504426,9.77578125 3.06944524,10.2005156 3.06944524,10.6875 C3.06944524,11.412375 3.63530649,12 4.33333445,12 C5.03136241,12 5.59722367,11.412375 5.59722367,10.6875 C5.59722367,10.3201406 5.45171842,9.98824219 5.21751524,9.75 L9.94913278,9.75 C9.71495216,9.98824219 9.56944691,10.3201406 9.56944691,10.6875 C9.56944691,11.412375 10.1353082,12 10.8333361,12 C11.5313641,12 12.0972253,11.412375 12.0972253,10.6875 C12.0972253,10.1678437 11.8063503,9.71878125 11.3845047,9.50613281 L11.5090203,8.93716406 C11.5860499,8.58517969 11.3284196,8.25 10.9808275,8.25 L4.92278078,8.25 L4.77506373,7.5 L11.3911852,7.5 C11.6440985,7.5 11.8633381,7.31826562 11.9193781,7.06216406 Z" id="Path"></path>
        </g>
    </g>
</svg>