<?xml version="1.0" encoding="UTF-8"?>
<svg width="13px" height="13px" viewBox="0 0 13 13" version="1.1" xmlns="http://www.w3.org/2000/svg" xmlns:xlink="http://www.w3.org/1999/xlink">
    <!-- Generator: Sketch 58 (84663) - https://sketch.com -->
    <title>icons/web-application/sign-out</title>
    <desc>Created with Sketch.</desc>
    <g id="icons/web-application/sign-out" stroke="none" stroke-width="1" fill="none" fill-rule="evenodd">
        <g id="sign-out-alt" transform="translate(0.000000, 2.000000)" fill="#676A6C" fill-rule="nonzero">
            <path d="M12.8200804,5.44041451 L8.48653207,9.79274611 C8.09960812,10.1813472 7.42893993,9.90932642 7.42893993,9.35233161 L7.42893993,6.86528497 L3.92082941,6.86528497 C3.57775683,6.86528497 3.30175108,6.5880829 3.30175108,6.24352332 L3.30175108,3.75647668 C3.30175108,3.4119171 3.57775683,3.13471503 3.92082941,3.13471503 L7.42893993,3.13471503 L7.42893993,0.647668394 C7.42893993,0.0932642487 8.09702862,-0.18134715 8.48653207,0.207253886 L12.8200804,4.55958549 C13.0599732,4.80310881 13.0599732,5.19689119 12.8200804,5.44041451 Z M4.95262662,9.66321244 L4.95262662,8.62694301 C4.95262662,8.45595855 4.81333399,8.31606218 4.64308745,8.31606218 L2.47631331,8.31606218 C2.01974304,8.31606218 1.65087554,7.94559585 1.65087554,7.48704663 L1.65087554,2.51295337 C1.65087554,2.05440415 2.01974304,1.68393782 2.47631331,1.68393782 L4.64308745,1.68393782 C4.81333399,1.68393782 4.95262662,1.54404145 4.95262662,1.37305699 L4.95262662,0.336787565 C4.95262662,0.165803109 4.81333399,0.0259067358 4.64308745,0.0259067358 L2.47631331,0.0259067358 C1.109182,0.0259067358 0,1.13989637 0,2.51295337 L0,7.48704663 C0,8.86010363 1.109182,9.97409326 2.47631331,9.97409326 L4.64308745,9.97409326 C4.81333399,9.97409326 4.95262662,9.83419689 4.95262662,9.66321244 Z" id="Shape"></path>
        </g>
    </g>
</svg>