<?xml version="1.0" encoding="UTF-8"?>
<svg width="13px" height="13px" viewBox="0 0 13 13" version="1.1" xmlns="http://www.w3.org/2000/svg" xmlns:xlink="http://www.w3.org/1999/xlink">
    <!-- Generator: Sketch 58 (84663) - https://sketch.com -->
    <title>icons/web-application/signal</title>
    <desc>Created with Sketch.</desc>
    <g id="icons/web-application/signal" stroke="none" stroke-width="1" fill="none" fill-rule="evenodd">
        <g id="signal" transform="translate(0.000000, 1.000000)" fill="#676A6C" fill-rule="nonzero">
            <path d="M4.21621622,6.1875 L3.16216216,6.1875 C2.96804054,6.1875 2.81081081,6.34132813 2.81081081,6.53125 L2.81081081,10.65625 C2.81081081,10.8461719 2.96804054,11 3.16216216,11 L4.21621622,11 C4.41033784,11 4.56756757,10.8461719 4.56756757,10.65625 L4.56756757,6.53125 C4.56756757,6.34132813 4.41033784,6.1875 4.21621622,6.1875 Z M1.40540541,8.25 L0.351351351,8.25 C0.15722973,8.25 0,8.40382813 0,8.59375 L0,10.65625 C0,10.8461719 0.15722973,11 0.351351351,11 L1.40540541,11 C1.59952703,11 1.75675676,10.8461719 1.75675676,10.65625 L1.75675676,8.59375 C1.75675676,8.40382813 1.59952703,8.25 1.40540541,8.25 Z M7.02702703,4.125 L5.97297297,4.125 C5.77885135,4.125 5.62162162,4.27882812 5.62162162,4.46875 L5.62162162,10.65625 C5.62162162,10.8461719 5.77885135,11 5.97297297,11 L7.02702703,11 C7.22114865,11 7.37837838,10.8461719 7.37837838,10.65625 L7.37837838,4.46875 C7.37837838,4.27882812 7.22114865,4.125 7.02702703,4.125 Z M9.83783784,2.0625 L8.78378378,2.0625 C8.58966216,2.0625 8.43243243,2.21632812 8.43243243,2.40625 L8.43243243,10.65625 C8.43243243,10.8461719 8.58966216,11 8.78378378,11 L9.83783784,11 C10.0319595,11 10.1891892,10.8461719 10.1891892,10.65625 L10.1891892,2.40625 C10.1891892,2.21632812 10.0319595,2.0625 9.83783784,2.0625 Z M12.6486486,0 L11.5945946,0 C11.400473,0 11.2432432,0.153828125 11.2432432,0.34375 L11.2432432,10.65625 C11.2432432,10.8461719 11.400473,11 11.5945946,11 L12.6486486,11 C12.8427703,11 13,10.8461719 13,10.65625 L13,0.34375 C13,0.153828125 12.8427703,0 12.6486486,0 Z" id="Shape"></path>
        </g>
    </g>
</svg>