<?xml version="1.0" encoding="UTF-8"?>
<svg width="13px" height="13px" viewBox="0 0 13 13" version="1.1" xmlns="http://www.w3.org/2000/svg" xmlns:xlink="http://www.w3.org/1999/xlink">
    <!-- Generator: Sketch 58 (84663) - https://sketch.com -->
    <title>icons/web-application/sign-in</title>
    <desc>Created with Sketch.</desc>
    <g id="icons/web-application/sign-in" stroke="none" stroke-width="1" fill="none" fill-rule="evenodd">
        <g id="sign-in-alt" transform="translate(0.000000, 2.000000)" fill="#676A6C" fill-rule="nonzero">
            <path d="M10.5625,9.77099237 L8.4296875,9.77099237 C8.26210937,9.77099237 8.125,9.63358779 8.125,9.46564885 L8.125,8.44783715 C8.125,8.27989822 8.26210937,8.14249364 8.4296875,8.14249364 L10.5625,8.14249364 C11.0119141,8.14249364 11.375,7.77862595 11.375,7.32824427 L11.375,2.44274809 C11.375,1.99236641 11.0119141,1.62849873 10.5625,1.62849873 L8.4296875,1.62849873 C8.26210937,1.62849873 8.125,1.49109415 8.125,1.32315522 L8.125,0.305343511 C8.125,0.13740458 8.26210937,0 8.4296875,0 L10.5625,0 C11.9082031,0 13,1.09414758 13,2.44274809 L13,7.32824427 C13,8.67684478 11.9082031,9.77099237 10.5625,9.77099237 Z M9.36914062,4.65648855 L5.10351562,0.381679389 C4.72265625,4.4408921e-16 4.0625,0.267175573 4.0625,0.814249364 L4.0625,3.25699746 L0.609375,3.25699746 C0.271679687,3.25699746 0,3.52926209 0,3.86768448 L0,6.31043257 C0,6.64885496 0.271679687,6.92111959 0.609375,6.92111959 L4.0625,6.92111959 L4.0625,9.36386768 C4.0625,9.91094148 4.72265625,10.178117 5.10351562,9.79643766 L9.36914062,5.5216285 C9.60527344,5.28244275 9.60527344,4.8956743 9.36914062,4.65648855 Z" id="Shape"></path>
        </g>
    </g>
</svg>