<?xml version="1.0" encoding="UTF-8"?>
<svg width="13px" height="13px" viewBox="0 0 13 13" version="1.1" xmlns="http://www.w3.org/2000/svg" xmlns:xlink="http://www.w3.org/1999/xlink">
    <!-- Generator: Sketch 58 (84663) - https://sketch.com -->
    <title>icons/web-application/sort-alpha-down</title>
    <desc>Created with Sketch.</desc>
    <g id="icons/web-application/sort-alpha-down" stroke="none" stroke-width="1" fill="none" fill-rule="evenodd">
        <g id="sort-alpha-down" fill="#676A6C" fill-rule="nonzero">
            <path d="M5.10727886,9.28571429 L3.71438462,9.28571429 L3.71438462,0.464285714 C3.71438462,0.207867795 3.50651129,0 3.25008655,0 L2.32149039,0 C2.06506564,0 1.85719231,0.207867795 1.85719231,0.464285714 L1.85719231,9.28571429 L0.464298075,9.28571429 C0.0525237173,9.28571429 -0.155539859,9.78598214 0.136677744,10.078192 L2.45816814,12.8639062 C2.63946317,13.0450777 2.93327451,13.0450777 3.11456954,12.8639062 L5.43605994,10.078192 C5.72682661,9.7865625 5.51992378,9.28571429 5.10727886,9.28571429 Z M12.07175,7.42857143 L8.35736541,7.42857143 C8.10094066,7.42857143 7.89306732,7.63643922 7.89306732,7.89285714 L7.89306732,8.82142857 C7.89306732,9.07784649 8.10094066,9.28571429 8.35736541,9.28571429 L9.98240868,9.28571429 L8.20472741,11.3300223 C8.00646484,11.5062563 7.89306732,11.7588666 7.89306732,12.0241295 L7.89306732,12.5357143 C7.89306732,12.7921322 8.10094066,13 8.35736541,13 L12.07175,13 C12.3281748,13 12.5360481,12.7921322 12.5360481,12.5357143 L12.5360481,11.6071429 C12.5360481,11.3507249 12.3281748,11.1428571 12.07175,11.1428571 L10.4467068,11.1428571 L12.224388,9.09854911 C12.4226506,8.9223151 12.5360481,8.66970481 12.5360481,8.40444196 L12.5360481,7.89285714 C12.5360481,7.63643922 12.3281748,7.42857143 12.07175,7.42857143 Z M12.9730687,4.95102679 L11.2531345,0.308169643 C11.1871448,0.123350027 11.0120755,0 10.8158237,0 L9.61329171,0 C9.41703998,0 9.2419706,0.123350027 9.17598096,0.308169643 L7.45604676,4.95102679 C7.40529377,5.09317249 7.42680678,5.25111747 7.51372791,5.37451217 C7.60064903,5.49790686 7.74212914,5.57134968 7.89306733,5.57143044 L8.61359991,5.57143044 C8.81507487,5.57149443 8.9936001,5.44161873 9.05555364,5.24991071 L9.18381599,4.875 L11.2441387,4.875 L11.3721109,5.24991071 C11.4341954,5.44202669 11.6133227,5.57199906 11.8152253,5.57143044 L12.5360481,5.57143044 C12.6869863,5.57134968 12.8284664,5.49790686 12.9153875,5.37451217 C13.0023087,5.25111747 13.0238217,5.09317249 12.9730687,4.95102679 L12.9730687,4.95102679 Z M9.73894238,3.25 L10.2145577,1.85714286 L10.6901731,3.25 L9.73894238,3.25 Z" id="Shape"></path>
        </g>
    </g>
</svg>