<?xml version="1.0" encoding="UTF-8"?>
<svg width="13px" height="13px" viewBox="0 0 13 13" version="1.1" xmlns="http://www.w3.org/2000/svg" xmlns:xlink="http://www.w3.org/1999/xlink">
    <!-- Generator: Sketch 58 (84663) - https://sketch.com -->
    <title>icons/web-application/sort-numeric-down</title>
    <desc>Created with Sketch.</desc>
    <g id="icons/web-application/sort-numeric-down" stroke="none" stroke-width="1" fill="none" fill-rule="evenodd">
        <g id="sort-numeric-down" fill="#676A6C" fill-rule="nonzero">
            <path d="M9.12702079,1.85714286 L9.6073903,1.85714286 L9.6073903,3.71428571 L9.12702079,3.71428571 C8.86172003,3.71428571 8.64665127,3.92215351 8.64665127,4.17857143 L8.64665127,5.10714286 C8.64665127,5.36356078 8.86172003,5.57142857 9.12702079,5.57142857 L12.0092379,5.57142857 C12.2745386,5.57142857 12.4896074,5.36356078 12.4896074,5.10714286 L12.4896074,4.17857143 C12.4896074,3.92215351 12.2745386,3.71428571 12.0092379,3.71428571 L11.5288684,3.71428571 L11.5288684,0.464285714 C11.5288684,0.207867795 11.3137996,0 11.0484988,0 L9.6073903,0 C9.42576249,0.00014852776 9.2597522,0.0992941068 9.17836028,0.256227679 L8.69799076,1.18479911 C8.62337781,1.3286617 8.63116278,1.49960812 8.71856496,1.63657829 C8.80596715,1.77354846 8.96052066,1.85700676 9.12702079,1.85714286 Z M9.91212471,6.58444196 C9.11626995,6.79511166 8.49089782,7.39042355 8.2608545,8.15633929 C7.8330254,9.63770089 8.89764434,10.9934152 10.3279446,11.1315402 C10.1393508,11.2853148 9.92844698,11.4115308 9.70196305,11.5061607 C9.47468822,11.6048214 9.37771363,11.8680134 9.45637413,12.0963839 L9.75360277,12.6767411 C9.83976905,12.9271652 10.1297921,13.068192 10.3810855,12.964308 C12.1224249,12.2458259 12.9705774,11.1765179 12.9705774,9.13395089 L12.9705774,8.82142857 C12.9699769,7.33542411 11.5174596,6.1709375 9.91272517,6.58444196 L9.91212471,6.58444196 Z M10.5681293,9.40178571 C10.2365034,9.40178571 9.96766744,9.14195097 9.96766744,8.82142857 C9.96766744,8.50090617 10.2365034,8.24107143 10.5681293,8.24107143 C10.8997553,8.24107143 11.1685912,8.50090617 11.1685912,8.82142857 C11.1685912,9.14195097 10.8997553,9.40178571 10.5681293,9.40178571 Z M5.28406467,9.28571429 L3.84295612,9.28571429 L3.84295612,0.464285714 C3.84295612,0.207867795 3.62788736,0 3.36258661,0 L2.40184758,0 C2.13654682,0 1.92147806,0.207867795 1.92147806,0.464285714 L1.92147806,9.28571429 L0.480369515,9.28571429 C0.0543418014,9.28571429 -0.160923788,9.78598214 0.141408776,10.078192 L2.54325635,12.8639062 C2.73082682,13.0450777 3.03480829,13.0450777 3.22237875,12.8639062 L5.62422633,10.078192 C5.92505774,9.7865625 5.71099307,9.28571429 5.28406467,9.28571429 Z" id="Shape"></path>
        </g>
    </g>
</svg>