<?xml version="1.0" encoding="UTF-8"?>
<svg width="13px" height="13px" viewBox="0 0 13 13" version="1.1" xmlns="http://www.w3.org/2000/svg" xmlns:xlink="http://www.w3.org/1999/xlink">
    <!-- Generator: Sketch 58 (84663) - https://sketch.com -->
    <title>icons/web-application/sort-numeric-down-alt</title>
    <desc>Created with Sketch.</desc>
    <g id="icons/web-application/sort-numeric-down-alt" stroke="none" stroke-width="1" fill="none" fill-rule="evenodd">
        <g id="sort-numeric-down-alt" fill="#676A6C" fill-rule="nonzero">
            <path d="M5.29609584,9.28571429 L3.851706,9.28571429 L3.851706,0.464285714 C3.851706,0.207867795 3.63614755,0 3.37024272,0 L2.40731616,0 C2.14141133,0 1.92585287,0.207867795 1.92585287,0.464285714 L1.92585287,9.28571429 L0.48146303,9.28571429 C0.0544652828,9.28571429 -0.16129045,9.78598214 0.141730503,10.078192 L2.54904691,12.8639062 C2.73704446,13.0450777 3.04171807,13.0450777 3.22971562,12.8639062 L5.63703203,10.078192 C5.93854841,9.7865625 5.72399633,9.28571429 5.29609584,9.28571429 Z M12.0365818,11.1428571 L11.5551185,11.1428571 L11.5551185,7.89285714 C11.5551185,7.63643922 11.33956,7.42857143 11.0736552,7.42857143 L9.62926537,7.42857143 C9.44722401,7.42871996 9.28083573,7.52786554 9.19925848,7.68479911 L8.7177952,8.61337054 C8.64301236,8.75723313 8.65081505,8.92817955 8.73841625,9.06514972 C8.82601744,9.20211989 8.98092286,9.28557819 9.14780209,9.28571429 L9.62926537,9.28571429 L9.62926537,11.1428571 L9.14780209,11.1428571 C8.88189726,11.1428571 8.66633881,11.3507249 8.66633881,11.6071429 L8.66633881,12.5357143 C8.66633881,12.7921322 8.88189726,13 9.14780209,13 L12.0365818,13 C12.3024866,13 12.5180451,12.7921322 12.5180451,12.5357143 L12.5180451,11.6071429 C12.5180451,11.3507249 12.3024866,11.1428571 12.0365818,11.1428571 L12.0365818,11.1428571 Z M9.93529547,0.0844419643 C9.13762861,0.295111663 8.51083255,0.890423551 8.28026544,1.65633929 C7.85086038,3.13770089 8.91790338,4.49341518 10.3514603,4.63154018 C10.1624371,4.78531478 9.95105308,4.91153079 9.72405346,5.00616071 C9.49626114,5.10482143 9.39906574,5.36801339 9.47790535,5.59638393 L9.77581076,6.17674107 C9.86217324,6.42716518 10.1528567,6.56819196 10.4047222,6.46430804 C12.1500266,5.74553571 13.0001102,4.67651786 13.0001102,2.63395089 L13.0001102,2.32142857 C12.9995083,0.835424107 11.5436837,-0.3290625 9.93529547,0.0844419643 L9.93529547,0.0844419643 Z M10.5921919,2.90178571 C10.2598109,2.90178571 9.99036283,2.64195097 9.99036283,2.32142857 C9.99036283,2.00090617 10.2598109,1.74107143 10.5921919,1.74107143 C10.924573,1.74107143 11.194021,2.00090617 11.194021,2.32142857 C11.194021,2.64195097 10.924573,2.90178571 10.5921919,2.90178571 L10.5921919,2.90178571 Z" id="Shape"></path>
        </g>
    </g>
</svg>