<?xml version="1.0" encoding="UTF-8"?>
<svg width="13px" height="13px" viewBox="0 0 13 13" version="1.1" xmlns="http://www.w3.org/2000/svg" xmlns:xlink="http://www.w3.org/1999/xlink">
    <!-- Generator: Sketch 58 (84663) - https://sketch.com -->
    <title>icons/web-application/sort-alpha-down-alt</title>
    <desc>Created with Sketch.</desc>
    <g id="icons/web-application/sort-alpha-down-alt" stroke="none" stroke-width="1" fill="none" fill-rule="evenodd">
        <g id="sort-alpha-down-alt" fill="#676A6C" fill-rule="nonzero">
            <path d="M5.10727886,9.28571429 L3.71438462,9.28571429 L3.71438462,0.464285714 C3.71438462,0.207867795 3.50651129,0 3.25008655,0 L2.32149039,0 C2.06506564,0 1.85719231,0.207867795 1.85719231,0.464285714 L1.85719231,9.28571429 L0.464298075,9.28571429 C0.0525237173,9.28571429 -0.155539859,9.78598214 0.136677744,10.078192 L2.45816814,12.8639062 C2.63946317,13.0450777 2.93327451,13.0450777 3.11456954,12.8639062 L5.43605994,10.078192 C5.72682661,9.7865625 5.51992378,9.28571429 5.10727886,9.28571429 Z M8.35736541,5.57142857 L12.07175,5.57142857 C12.3281748,5.57142857 12.5360481,5.36356078 12.5360481,5.10714286 L12.5360481,4.17857143 C12.5360481,3.92215351 12.3281748,3.71428571 12.07175,3.71428571 L10.4467068,3.71428571 L12.224388,1.66997768 C12.4226506,1.49374368 12.5360481,1.24113338 12.5360481,0.975870536 L12.5360481,0.464285714 C12.5360481,0.207867795 12.3281748,0 12.07175,0 L8.35736541,0 C8.10094066,0 7.89306732,0.207867795 7.89306732,0.464285714 L7.89306732,1.39285714 C7.89306732,1.64927506 8.10094066,1.85714286 8.35736541,1.85714286 L9.98240868,1.85714286 L8.20472741,3.90145089 C8.00646484,4.0776849 7.89306732,4.33029519 7.89306732,4.59555804 L7.89306732,5.10714286 C7.89306732,5.36356078 8.10094066,5.57142857 8.35736541,5.57142857 Z M12.9730687,12.3795982 L11.2531345,7.73674107 C11.1871448,7.55192146 11.0120755,7.42857143 10.8158237,7.42857143 L9.61329171,7.42857143 C9.41703998,7.42857143 9.2419706,7.55192146 9.17598096,7.73674107 L7.45604676,12.3795982 C7.40529377,12.5217439 7.42680678,12.6796889 7.51372791,12.8030836 C7.60064903,12.9264783 7.74212914,12.9999211 7.89306733,13.0000019 L8.61359991,13.0000019 C8.81507487,13.0000659 8.9936001,12.8701902 9.05555364,12.6784821 L9.18381599,12.3035714 L11.2441387,12.3035714 L11.3721109,12.6784821 C11.4341954,12.8705981 11.6133227,13.0005705 11.8152253,13.0000019 L12.5360481,13.0000019 C12.6869863,12.9999211 12.8284664,12.9264783 12.9153875,12.8030836 C13.0023087,12.6796889 13.0238217,12.5217439 12.9730687,12.3795982 L12.9730687,12.3795982 Z M9.73894238,10.6785714 L10.2145577,9.28571429 L10.6901731,10.6785714 L9.73894238,10.6785714 Z" id="Shape"></path>
        </g>
    </g>
</svg>