<?xml version="1.0" encoding="UTF-8"?>
<svg width="13px" height="13px" viewBox="0 0 13 13" version="1.1" xmlns="http://www.w3.org/2000/svg" xmlns:xlink="http://www.w3.org/1999/xlink">
    <!-- Generator: Sketch 58 (84663) - https://sketch.com -->
    <title>icons/web-application/spinner</title>
    <desc>Created with Sketch.</desc>
    <g id="icons/web-application/spinner" stroke="none" stroke-width="1" fill="none" fill-rule="evenodd">
        <g id="spinner" fill="#676A6C" fill-rule="nonzero">
            <path d="M7.71875,1.21875 C7.71875,1.89185547 7.17310547,2.4375 6.5,2.4375 C5.82689453,2.4375 5.28125,1.89185547 5.28125,1.21875 C5.28125,0.545644531 5.82689453,0 6.5,0 C7.17310547,0 7.71875,0.545644531 7.71875,1.21875 Z M6.5,10.5625 C5.82689453,10.5625 5.28125,11.1081445 5.28125,11.78125 C5.28125,12.4543555 5.82689453,13 6.5,13 C7.17310547,13 7.71875,12.4543555 7.71875,11.78125 C7.71875,11.1081445 7.17310547,10.5625 6.5,10.5625 Z M11.78125,5.28125 C11.1081445,5.28125 10.5625,5.82689453 10.5625,6.5 C10.5625,7.17310547 11.1081445,7.71875 11.78125,7.71875 C12.4543555,7.71875 13,7.17310547 13,6.5 C13,5.82689453 12.4543555,5.28125 11.78125,5.28125 Z M2.4375,6.5 C2.4375,5.82689453 1.89185547,5.28125 1.21875,5.28125 C0.545644531,5.28125 0,5.82689453 0,6.5 C0,7.17310547 0.545644531,7.71875 1.21875,7.71875 C1.89185547,7.71875 2.4375,7.17310547 2.4375,6.5 Z M2.76559766,9.01565234 C2.09249219,9.01565234 1.54684766,9.56129687 1.54684766,10.2344023 C1.54684766,10.9075078 2.09249219,11.4531523 2.76559766,11.4531523 C3.43870312,11.4531523 3.98434766,10.9075078 3.98434766,10.2344023 C3.98434766,9.56132227 3.43867773,9.01565234 2.76559766,9.01565234 Z M10.2344023,9.01565234 C9.56129687,9.01565234 9.01565234,9.56129687 9.01565234,10.2344023 C9.01565234,10.9075078 9.56129687,11.4531523 10.2344023,11.4531523 C10.9075078,11.4531523 11.4531523,10.9075078 11.4531523,10.2344023 C11.4531523,9.56132227 10.9075078,9.01565234 10.2344023,9.01565234 Z M2.76559766,1.54684766 C2.09249219,1.54684766 1.54684766,2.09249219 1.54684766,2.76559766 C1.54684766,3.43870312 2.09249219,3.98434766 2.76559766,3.98434766 C3.43870312,3.98434766 3.98434766,3.43870312 3.98434766,2.76559766 C3.98434766,2.09249219 3.43867773,1.54684766 2.76559766,1.54684766 Z" id="Shape"></path>
        </g>
    </g>
</svg>