<?xml version="1.0" encoding="UTF-8"?>
<svg width="13px" height="13px" viewBox="0 0 13 13" version="1.1" xmlns="http://www.w3.org/2000/svg" xmlns:xlink="http://www.w3.org/1999/xlink">
    <!-- Generator: Sketch 58 (84663) - https://sketch.com -->
    <title>icons/web-application/star-o</title>
    <desc>Created with Sketch.</desc>
    <g id="icons/web-application/star-o" stroke="none" stroke-width="1" fill="none" fill-rule="evenodd">
        <path d="M12.2675239,4.11890935 L8.73662643,3.60738582 L7.15847717,0.427774817 C6.87571536,-0.13898364 6.05643114,-0.146188196 5.77125256,0.427774817 L4.1931033,3.60738582 L0.662205805,4.11890935 C0.029012688,4.21016706 -0.224747912,4.98585766 0.234437936,5.43013866 L2.78896131,7.90370311 L2.18476941,11.3979131 C2.07601486,12.0295126 2.74545949,12.5026118 3.30614958,12.207225 L6.46486486,10.5573815 L9.62358015,12.207225 C10.1842702,12.5002103 10.8537149,12.0295126 10.7449603,11.3979131 L10.1407684,7.90370311 L12.6952918,5.43013866 C13.1544776,4.98585766 12.900717,4.21016706 12.2675239,4.11890935 L12.2675239,4.11890935 Z M8.89613309,7.50024794 L9.46890702,10.8239501 L6.46486486,9.25575825 L3.46082271,10.8239501 L4.03359664,7.50024794 L1.60232841,5.14675943 L4.9616354,4.66165262 L6.46486486,1.63573882 L7.96809433,4.66165262 L11.3274013,5.14675943 L8.89613309,7.50024794 Z" id="star-o" fill="#676A6C" fill-rule="nonzero"></path>
    </g>
</svg>