<?xml version="1.0" encoding="UTF-8"?>
<svg width="13px" height="13px" viewBox="0 0 13 13" version="1.1" xmlns="http://www.w3.org/2000/svg" xmlns:xlink="http://www.w3.org/1999/xlink">
    <!-- Generator: Sketch 58 (84663) - https://sketch.com -->
    <title>icons/web-application/star-half-full</title>
    <desc>Created with Sketch.</desc>
    <g id="icons/web-application/star-half-full" stroke="none" stroke-width="1" fill="none" fill-rule="evenodd">
        <g id="star-half-alt" fill="#676A6C" fill-rule="nonzero">
            <path d="M12.3582571,4.01976562 L8.80827933,3.5203125 L7.22186101,0.417421875 C7.07925071,0.14015625 6.80106362,0 6.52287652,0 C6.24638716,0 5.97014034,0.13828125 5.82704497,0.417421875 L4.24014159,3.52007812 L0.689921235,4.0190625 C0.0532681116,4.108125 -0.201878207,4.86492188 0.259664991,5.29851563 L2.82786306,7.71257813 L2.22007154,11.1222656 C2.13372925,11.6092969 2.53609403,12 2.98672317,12 C3.10629269,12 3.22925769,11.9725781 3.34737201,11.9121094 L6.52336159,10.3024219 L9.69910863,11.9125781 C9.81698041,11.9723438 9.93970288,11.9995312 10.0587873,11.9995312 C10.5099015,11.9995312 10.9129939,11.6102344 10.8266516,11.1229688 L10.2195877,7.71304687 L12.7882709,5.29945312 C13.2500566,4.86585937 12.9949103,4.10882812 12.3582571,4.01976562 Z M9.40564186,6.90726562 L8.9661693,7.32023437 L9.06997408,7.90335937 L9.54340147,10.5623437 L7.06639638,9.30632812 L6.52360412,9.03117187 L6.52433172,1.59703125 L7.7619854,4.01789062 L8.03313899,4.54828125 L8.63971784,4.63359375 L11.4101897,5.02335937 L9.40564186,6.90726562 L9.40564186,6.90726562 Z" id="Shape"></path>
        </g>
    </g>
</svg>