<?xml version="1.0" encoding="UTF-8"?>
<svg width="13px" height="13px" viewBox="0 0 13 13" version="1.1" xmlns="http://www.w3.org/2000/svg" xmlns:xlink="http://www.w3.org/1999/xlink">
    <!-- Generator: Sketch 58 (84663) - https://sketch.com -->
    <title>icons/web-application/street-view</title>
    <desc>Created with Sketch.</desc>
    <g id="icons/web-application/street-view" stroke="none" stroke-width="1" fill="none" fill-rule="evenodd">
        <g id="street-view" fill="#676A6C" fill-rule="nonzero">
            <path d="M9.34121094,8.3728125 C9.22390625,8.50738281 9.09289063,8.62925781 8.9375,8.71939453 L8.9375,9.30185547 C10.6264844,9.53900391 11.78125,10.0140625 11.78125,10.5625 C11.78125,11.347832 9.416875,11.984375 6.5,11.984375 C3.583125,11.984375 1.21875,11.347832 1.21875,10.5625 C1.21875,10.0140625 2.37351562,9.53925781 4.0625,9.30185547 L4.0625,8.71939453 C3.90710938,8.62925781 3.77609375,8.50738281 3.65878906,8.3728125 C1.49474609,8.76839844 0,9.59892578 0,10.5625 C0,11.9087109 2.91027344,13 6.5,13 C10.0897266,13 13,11.9087109 13,10.5625 C13,9.59892578 11.5052539,8.76839844 9.34121094,8.3728125 Z M6.5,3.25 C7.39755859,3.25 8.125,2.52255859 8.125,1.625 C8.125,0.727441406 7.39755859,0 6.5,0 C5.60244141,0 4.875,0.727441406 4.875,1.625 C4.875,2.52255859 5.60244141,3.25 6.5,3.25 Z M4.875,8.125 L4.875,10.5625 C4.875,11.0111523 5.23884766,11.375 5.6875,11.375 L7.3125,11.375 C7.76115234,11.375 8.125,11.0111523 8.125,10.5625 L8.125,8.125 C8.57365234,8.125 8.9375,7.76115234 8.9375,7.3125 L8.9375,4.875 C8.9375,4.20189453 8.39185547,3.65625 7.71875,3.65625 L7.41914062,3.65625 C7.13806641,3.78396484 6.82855469,3.859375 6.5,3.859375 C6.17144531,3.859375 5.86193359,3.78396484 5.58085938,3.65625 L5.28125,3.65625 C4.60814453,3.65625 4.0625,4.20189453 4.0625,4.875 L4.0625,7.3125 C4.0625,7.76115234 4.42634766,8.125 4.875,8.125 Z" id="Shape"></path>
        </g>
    </g>
</svg>