<?xml version="1.0" encoding="UTF-8"?>
<svg width="17px" height="13px" viewBox="0 0 17 13" version="1.1" xmlns="http://www.w3.org/2000/svg" xmlns:xlink="http://www.w3.org/1999/xlink">
    <!-- Generator: Sketch 58 (84663) - https://sketch.com -->
    <title>icons/web-application/tag</title>
    <desc>Created with Sketch.</desc>
    <g id="icons/web-application/tag" stroke="none" stroke-width="1" fill="none" fill-rule="evenodd">
        <g id="tag" fill="#676A6C" fill-rule="nonzero">
            <path d="M-5.32907052e-15,6.40143359 L-5.32907052e-15,1.21875 C-5.32907052e-15,0.545644531 0.545644798,0 1.2187506,0 L6.40143672,0 C6.72466883,0 7.03466157,0.128406448 7.26322034,0.356966797 L12.6430394,5.7367832 C13.1189869,6.21273047 13.1189869,6.98440234 12.6430394,7.46034961 L7.46035325,12.6430332 C6.98440575,13.1189805 6.2127335,13.1189805 5.736786,12.6430332 L0.356966971,7.2632168 C0.128406511,7.03465814 -5.32907052e-15,6.72466554 -5.32907052e-15,6.40143359 Z M2.84375139,1.625 C2.17064559,1.625 1.62500079,2.17064453 1.62500079,2.84375 C1.62500079,3.51685547 2.17064559,4.0625 2.84375139,4.0625 C3.51685719,4.0625 4.06250198,3.51685547 4.06250198,2.84375 C4.06250198,2.17064453 3.51685719,1.625 2.84375139,1.625 Z" id="Shape"></path>
        </g>
    </g>
</svg>