<?xml version="1.0" encoding="UTF-8"?>
<svg width="17px" height="13px" viewBox="0 0 17 13" version="1.1" xmlns="http://www.w3.org/2000/svg" xmlns:xlink="http://www.w3.org/1999/xlink">
    <!-- Generator: Sketch 58 (84663) - https://sketch.com -->
    <title>icons/web-application/tags</title>
    <desc>Created with Sketch.</desc>
    <g id="icons/web-application/tags" stroke="none" stroke-width="1" fill="none" fill-rule="evenodd">
        <path d="M13.1487597,5.7367832 L7.55374842,0.356966797 C7.31604732,0.128406448 6.9936549,-5.32907052e-15 6.65749354,-5.32907052e-15 L1.2675005,-5.32907052e-15 C0.567470534,-5.32907052e-15 -1.59872116e-14,0.545644531 -1.59872116e-14,1.21875 L-1.59872116e-14,6.40143359 C-1.59872116e-14,6.72466554 0.133542758,7.03465814 0.371245614,7.2632168 L5.96625686,12.6430332 C6.46121581,13.1189805 7.26375487,13.1190059 7.75876662,12.6430332 L13.1487597,7.46034961 C13.643745,6.98440234 13.643745,6.21273047 13.1487597,5.7367832 Z M2.95750116,4.0625 C2.25747119,4.0625 1.69000066,3.51685547 1.69000066,2.84375 C1.69000066,2.17064453 2.25747119,1.625 2.95750116,1.625 C3.65753112,1.625 4.22500165,2.17064453 4.22500165,2.84375 C4.22500165,3.51685547 3.65753112,4.0625 2.95750116,4.0625 Z M11.1387679,12.6430332 C10.6437826,13.1189805 9.84124353,13.1189805 9.34625818,12.6430332 L9.33675193,12.6338926 L13.9329992,8.21442578 C14.3818792,7.78281055 14.6290682,7.20895703 14.6290682,6.59856641 C14.6290682,5.98817578 14.3818528,5.41432227 13.9329992,4.98270703 L8.75095545,0 L10.0374949,0 C10.3736562,0 10.6960486,0.128406448 10.9337497,0.356966797 L16.528761,5.7367832 C17.0237463,6.21273047 17.0237463,6.98440234 16.528761,7.46034961 L11.1387679,12.6430332 Z" id="tag" fill="#676A6C" fill-rule="nonzero"></path>
    </g>
</svg>