<?xml version="1.0" encoding="UTF-8"?>
<svg width="13px" height="11px" viewBox="0 0 13 11" version="1.1" xmlns="http://www.w3.org/2000/svg" xmlns:xlink="http://www.w3.org/1999/xlink">
    <!-- Generator: Sketch 58 (84663) - https://sketch.com -->
    <title>icons/web-application/tasks</title>
    <desc>Created with Sketch.</desc>
    <g id="icons/web-application/tasks" stroke="none" stroke-width="1" fill="none" fill-rule="evenodd">
        <g id="tasks" fill="#676A6C" fill-rule="nonzero">
            <path d="M3.54478888,0.114318707 C3.48761871,0.0569191768 3.40995989,0.0246556788 3.32896834,0.0246556788 C3.24797679,0.0246556788 3.17031796,0.0569191768 3.1131478,0.114318707 L1.4962711,1.72265589 L0.919903309,1.16071594 C0.862733147,1.10331641 0.785074321,1.07105291 0.70408277,1.07105291 C0.623091219,1.07105291 0.545432393,1.10331641 0.488262231,1.16071594 L0.0896290003,1.56006928 C0.0322599852,1.61726985 1.36391594e-05,1.69496999 1.36391594e-05,1.77600462 C1.36391594e-05,1.85703925 0.0322599852,1.93473938 0.0896290003,1.99193995 L1.29797011,3.196097 C1.42323196,3.31523067 1.61983764,3.31523067 1.74509949,3.196097 L2.14093975,2.79928406 L3.97414479,0.965357968 C4.09301389,0.846330861 4.09403281,0.653766981 3.97642995,0.533487298 L3.54478888,0.114318707 Z M3.54478888,4.15840647 C3.48761871,4.10100694 3.40995989,4.06874344 3.32896834,4.06874344 C3.24797679,4.06874344 3.17031796,4.10100694 3.1131478,4.15840647 L1.4962711,5.77715935 L0.919903309,5.21572748 C0.862733147,5.15832795 0.785074321,5.12606445 0.70408277,5.12606445 C0.623091219,5.12606445 0.545432393,5.15832795 0.488262231,5.21572748 L0.0896290003,5.61431871 C0.0322599852,5.67151928 1.36391595e-05,5.74921941 1.36391595e-05,5.83025404 C1.36391595e-05,5.91128867 0.0322599852,5.98898881 0.0896290003,6.04618938 L1.29492323,7.25288684 C1.42009986,7.37198814 1.61662208,7.37198814 1.7417987,7.25288684 L2.14043193,6.85429561 L3.97363698,5.01960739 C4.0920704,4.90139268 4.09309046,4.70974719 3.97592214,4.59027714 L3.54478888,4.15840647 Z M1.6250017,8.56120092 C0.952403343,8.56120092 0.391269942,9.1073903 0.391269942,9.78060046 C0.391269942,10.4538106 0.952911156,11 1.6250017,11 C2.29809945,11 2.84375298,10.4540562 2.84375298,9.78060046 C2.84375298,9.10714469 2.29809945,8.56120092 1.6250017,8.56120092 Z M12.5937632,8.96766744 L5.28125554,8.96766744 C5.05688963,8.96766744 4.87500511,9.14964869 4.87500511,9.37413395 L4.87500511,10.187067 C4.87500511,10.4115522 5.05688963,10.5935335 5.28125554,10.5935335 L12.5937632,10.5935335 C12.8181291,10.5935335 13.0000136,10.4115522 13.0000136,10.187067 L13.0000136,9.37413395 C13.0000136,9.14964869 12.8181291,8.96766744 12.5937632,8.96766744 Z M12.5937632,0.838337182 L5.28125554,0.838337182 C5.05688963,0.838337182 4.87500511,1.02031844 4.87500511,1.2448037 L4.87500511,2.05773672 C4.87500511,2.28222198 5.05688963,2.46420323 5.28125554,2.46420323 L12.5937632,2.46420323 C12.8181291,2.46420323 13.0000136,2.28222198 13.0000136,2.05773672 L13.0000136,1.2448037 C13.0000136,1.02031844 12.8181291,0.838337182 12.5937632,0.838337182 Z M12.5937632,4.90300231 L5.28125554,4.90300231 C5.05688963,4.90300231 4.87500511,5.08498357 4.87500511,5.30946882 L4.87500511,6.12240185 C4.87500511,6.3468871 5.05688963,6.52886836 5.28125554,6.52886836 L12.5937632,6.52886836 C12.8181291,6.52886836 13.0000136,6.3468871 13.0000136,6.12240185 L13.0000136,5.30946882 C13.0000136,5.08498357 12.8181291,4.90300231 12.5937632,4.90300231 Z" id="Shape"></path>
        </g>
    </g>
</svg>