<?xml version="1.0" encoding="UTF-8"?>
<svg width="14px" height="13px" viewBox="0 0 14 13" version="1.1" xmlns="http://www.w3.org/2000/svg" xmlns:xlink="http://www.w3.org/1999/xlink">
    <!-- Generator: Sketch 58 (84663) - https://sketch.com -->
    <title>icons/web-application/terminal</title>
    <desc>Created with Sketch.</desc>
    <g id="icons/web-application/terminal" stroke="none" stroke-width="1" fill="none" fill-rule="evenodd">
        <g id="terminal" transform="translate(0.000000, 2.000000)" fill="#676A6C" fill-rule="nonzero">
            <path d="M5.26051566,4.79399323 L1.31292666,8.74227088 C1.12253775,8.932693 0.813869249,8.932693 0.623500653,8.74227088 L0.163057275,8.28176749 C-0.0270066342,8.09167043 -0.0273722589,7.78357788 0.162244775,7.59303386 L3.29081412,4.44920993 L0.162265088,1.30540632 C-0.0273519464,1.1148623 -0.0269863217,0.806769752 0.163077587,0.616672686 L0.623500653,0.1561693 C0.813889562,-0.0342528217 1.12255806,-0.0342528217 1.31292666,0.1561693 L5.26051566,4.10444695 C5.45090457,4.29484876 5.45090457,4.60357111 5.26051566,4.79399323 Z M13.0202703,8.51241535 L13.0202703,7.86230248 C13.0202703,7.59301354 12.8020127,7.37471783 12.5327707,7.37471783 L6.35777571,7.37471783 C6.08853374,7.37471783 5.8702761,7.59301354 5.8702761,7.86230248 L5.8702761,8.51241535 C5.8702761,8.78170429 6.08853374,9 6.35777571,9 L12.5327707,9 C12.8020127,9 13.0202703,8.78170429 13.0202703,8.51241535 Z" id="Shape"></path>
        </g>
    </g>
</svg>