<?xml version="1.0" encoding="UTF-8"?>
<svg width="13px" height="13px" viewBox="0 0 13 13" version="1.1" xmlns="http://www.w3.org/2000/svg" xmlns:xlink="http://www.w3.org/1999/xlink">
    <!-- Generator: Sketch 58 (84663) - https://sketch.com -->
    <title>icons/web-application/thumbs-down-o</title>
    <desc>Created with Sketch.</desc>
    <g id="icons/web-application/thumbs-down-o" stroke="none" stroke-width="1" fill="none" fill-rule="evenodd">
        <g id="thumbs-down-o" fill="#676A6C" fill-rule="nonzero">
            <path d="M12.6281458,5.72076172 C12.7547333,5.14574023 12.6515458,4.58991406 12.3846667,4.12140625 C12.4647792,3.51538281 12.2757646,2.88831055 11.9150417,2.42048828 C11.8892042,1.00097461 10.9448354,0 8.85625,0 C8.66666667,0 8.45,0.00025390625 8.25445833,0.00025390625 C5.44903125,0.00025390625 4.57700208,1.015625 3.46666667,1.015625 L3.17294792,1.015625 C3.02019792,0.889306641 2.81972708,0.8125 2.6,0.8125 L0.866666667,0.8125 C0.388022917,0.8125 0,1.17627148 0,1.625 L0,7.71875 C0,8.16747852 0.388022917,8.53125 0.866666667,8.53125 L2.6,8.53125 C2.92072083,8.53125 3.20057292,8.36778516 3.350425,8.125 L3.54141667,8.125 C4.05995417,8.55544727 4.78760208,9.66501758 5.40366667,10.2425781 C5.77381458,10.5895918 5.67864375,13 7.34716667,13 C8.906625,13 9.92739583,12.189125 9.92739583,10.3408398 C9.92739583,9.87339844 9.82095833,9.48441406 9.68770833,9.15916016 L10.6757083,9.15916016 C11.9920125,9.15916016 13,8.10379883 13,6.98623047 C13,6.5 12.8656667,6.0978125 12.6281458,5.72076172 Z M1.73333333,7.515625 C1.37434375,7.515625 1.08333333,7.24280273 1.08333333,6.90625 C1.08333333,6.56969727 1.37434375,6.296875 1.73333333,6.296875 C2.09232292,6.296875 2.38333333,6.56969727 2.38333333,6.90625 C2.38333333,7.24280273 2.09232292,7.515625 1.73333333,7.515625 Z M10.6757083,7.94041016 L7.8593125,7.94041016 C7.8593125,8.90068359 8.62739583,9.34628906 8.62739583,10.3408398 C8.62739583,10.9438672 8.62739583,11.78125 7.34716667,11.78125 C6.83502083,11.3011133 7.09095833,10.1008984 6.322875,9.38082031 C5.60354167,8.70619141 4.5305,6.90625 3.76241667,6.90625 L3.46666667,6.90625 L3.46666667,2.17927734 C4.91863125,2.17927734 6.17502708,1.21900391 8.11525,1.21900391 L9.13954167,1.21900391 C10.101325,1.21900391 10.78675,1.65369141 10.5782083,2.89224609 C10.989875,3.09943359 11.2959167,3.81748047 10.95575,4.35398437 C11.5402354,4.87154687 11.4621812,5.65055664 11.0968542,6.02011719 C11.3527917,6.02011719 11.7024375,6.50025391 11.7000127,6.98013672 C11.6975625,7.46027344 11.2474375,7.94041016 10.6757083,7.94041016 L10.6757083,7.94041016 Z" id="Shape"></path>
        </g>
    </g>
</svg>