<?xml version="1.0" encoding="UTF-8"?>
<svg width="13px" height="13px" viewBox="0 0 13 13" version="1.1" xmlns="http://www.w3.org/2000/svg" xmlns:xlink="http://www.w3.org/1999/xlink">
    <!-- Generator: Sketch 58 (84663) - https://sketch.com -->
    <title>icons/web-application/thumbs-up</title>
    <desc>Created with Sketch.</desc>
    <g id="icons/web-application/thumbs-up" stroke="none" stroke-width="1" fill="none" fill-rule="evenodd">
        <g id="thumbs-up" fill="#676A6C" fill-rule="nonzero">
            <path d="M2.64062313,5.6875 L0.609374569,5.6875 C0.272822073,5.6875 0,5.96032227 0,6.296875 L0,12.390625 C0,12.7271777 0.272822073,13 0.609374569,13 L2.64062313,13 C2.97717563,13 3.2499977,12.7271777 3.2499977,12.390625 L3.2499977,6.296875 C3.2499977,5.96032227 2.97717563,5.6875 2.64062313,5.6875 Z M1.62499885,11.984375 C1.28844635,11.984375 1.01562428,11.7115527 1.01562428,11.375 C1.01562428,11.0384473 1.28844635,10.765625 1.62499885,10.765625 C1.96155135,10.765625 2.23437342,11.0384473 2.23437342,11.375 C2.23437342,11.7115527 1.96155135,11.984375 1.62499885,11.984375 Z M9.74999311,2.06811719 C9.74999311,3.14508594 9.09059904,3.74917969 8.90506987,4.46875 L11.4878786,4.46875 C12.3358487,4.46875 12.9960045,5.17323828 12.9999828,5.94389453 C13.0020982,6.39935156 12.8083679,6.88966992 12.5063974,7.19303711 L12.5036044,7.19583008 C12.7533465,7.78837109 12.7127469,8.61864453 12.2672687,9.21359766 C12.4876845,9.87108789 12.2655167,10.6787383 11.8513197,11.1117246 C11.9604486,11.5585488 11.9082963,11.9388242 11.6952183,12.244959 C11.176996,12.9895137 9.89258675,13 8.80645276,13 L8.73421648,13 C7.50818024,12.999543 6.50476884,12.5531504 5.6985155,12.194457 C5.29335759,12.014209 4.76360796,11.7910762 4.36167465,11.7836875 C4.19562008,11.7806406 4.06249713,11.6451309 4.06249713,11.4790508 L4.06249713,6.05129688 C4.06249713,5.97004688 4.09504789,5.89207227 4.15283691,5.83494336 C5.15866041,4.84105273 5.59116402,3.78878906 6.41557164,2.96298438 C6.79145418,2.58639062 6.92815721,2.01753906 7.06031532,1.46742578 C7.17322735,0.997673828 7.40941078,0 7.9218694,0 C8.53124397,0 9.74999311,0.203125 9.74999311,2.06811719 Z" id="Shape"></path>
        </g>
    </g>
</svg>