<?xml version="1.0" encoding="UTF-8"?>
<svg width="13px" height="13px" viewBox="0 0 13 13" version="1.1" xmlns="http://www.w3.org/2000/svg" xmlns:xlink="http://www.w3.org/1999/xlink">
    <!-- Generator: Sketch 58 (84663) - https://sketch.com -->
    <title>icons/web-application/thumbs-down</title>
    <desc>Created with Sketch.</desc>
    <g id="icons/web-application/thumbs-down" stroke="none" stroke-width="1" fill="none" fill-rule="evenodd">
        <g id="thumbs-down" fill="#676A6C" fill-rule="nonzero">
            <path d="M0,1.421875 L0,7.515625 C0,7.85217773 0.27282154,8.125 0.609373379,8.125 L2.64061798,8.125 C2.97716981,8.125 3.24999135,7.85217773 3.24999135,7.515625 L3.24999135,1.421875 C3.24999135,1.08532227 2.97716981,0.8125 2.64061798,0.8125 L0.609373379,0.8125 C0.27282154,0.8125 0,1.08532227 0,1.421875 Z M1.0156223,6.5 C1.0156223,6.16344727 1.28844384,5.890625 1.62499568,5.890625 C1.96154752,5.890625 2.23436906,6.16344727 2.23436906,6.5 C2.23436906,6.83655273 1.96154752,7.109375 1.62499568,7.109375 C1.28844384,7.109375 1.0156223,6.83655273 1.0156223,6.5 Z M7.92185393,13 C7.4093963,13 7.17321334,12.0023262 7.06032692,11.5325488 C6.92814368,10.9824355 6.79146631,10.413584 6.4155845,10.0369902 C5.59117849,9.21118555 5.15867573,8.15892188 4.15285419,7.16503125 C4.09504058,7.10788245 4.06251458,7.0299699 4.06251458,6.94867773 L4.06251458,1.52092383 C4.06251458,1.35484375 4.19563728,1.21933398 4.36169152,1.21628711 C4.76364944,1.20892383 5.29337264,0.985765625 5.69852976,0.805517578 C6.50478152,0.446824219 7.50821635,0.000431640625 8.73422481,0 L8.80643556,0 C9.89256743,0 11.1769742,0.0104863281 11.6952208,0.755041016 C11.9082984,1.06117578 11.9604506,1.44145117 11.851322,1.88827539 C12.2654928,2.32126172 12.4876855,3.1289375 12.2672701,3.78640234 C12.712722,4.38135547 12.7533215,5.21162891 12.5036054,5.80416992 L12.5063984,5.80696289 C12.8083683,6.11035547 13.0020982,6.60064844 12.9999828,7.05610547 C12.9960045,7.82676172 12.3358246,8.53125 11.4878815,8.53125 L8.90505248,8.53125 C9.09058129,9.25082031 9.74997406,9.85491406 9.74997406,10.9318828 C9.74997406,12.796875 8.5312273,13 7.92185393,13 Z" id="Shape"></path>
        </g>
    </g>
</svg>