<?xml version="1.0" encoding="UTF-8"?>
<svg width="13px" height="13px" viewBox="0 0 13 13" version="1.1" xmlns="http://www.w3.org/2000/svg" xmlns:xlink="http://www.w3.org/1999/xlink">
    <!-- Generator: Sketch 58 (84663) - https://sketch.com -->
    <title>icons/web-application/thumbs-up-o</title>
    <desc>Created with Sketch.</desc>
    <g id="icons/web-application/thumbs-up-o" stroke="none" stroke-width="1" fill="none" fill-rule="evenodd">
        <g id="thumbs-up-o" fill="#676A6C" fill-rule="nonzero">
            <path d="M12.6281458,7.27923828 C12.8656667,6.9021875 13,6.5 13,6.01376953 C13,4.89620117 11.9920125,3.84083984 10.6757083,3.84083984 L9.68770833,3.84083984 C9.82095833,3.51558594 9.92739583,3.12660156 9.92739583,2.65916016 C9.92739583,0.810875 8.906625,0 7.34716667,0 C5.67864375,0 5.77381458,2.4104082 5.40366667,2.75742187 C4.78760208,3.33498242 4.05992708,4.44455273 3.54141667,4.875 L0.866666667,4.875 C0.388022917,4.875 0,5.23877148 0,5.6875 L0,11.78125 C0,12.2299785 0.388022917,12.59375 0.866666667,12.59375 L2.6,12.59375 C3.00335208,12.59375 3.3423,12.3354258 3.4389875,11.9856445 C4.64443958,12.0110605 5.4718625,12.9997461 8.25445833,12.9997461 C8.45,12.9997461 8.66666667,13 8.85625,13 C10.9448354,13 11.8892042,11.9990254 11.9150417,10.5795117 C12.2757646,10.1116895 12.4648062,9.48461719 12.3846667,8.87859375 C12.6515458,8.41008594 12.7547333,7.85425977 12.6281458,7.27923828 Z M10.95575,8.64601562 C11.2959167,9.18251953 10.989875,9.90056641 10.5782083,10.1077539 C10.78675,11.3463086 10.101325,11.7809961 9.13954167,11.7809961 L8.11525,11.7809961 C6.17502708,11.7809961 4.91863125,10.8207227 3.46666667,10.8207227 L3.46666667,6.09375 L3.76241667,6.09375 C4.5305,6.09375 5.60354167,4.29380859 6.322875,3.61917969 C7.09095833,2.89910156 6.83502083,1.69888672 7.34716667,1.21875 C8.62739583,1.21875 8.62739583,2.05613281 8.62739583,2.65916016 C8.62739583,3.65371094 7.8593125,4.09931641 7.8593125,5.05958984 L10.6757083,5.05958984 C11.2474375,5.05958984 11.6975625,5.53972656 11.7000127,6.01986328 C11.7024375,6.49974609 11.3527917,6.97988281 11.0968542,6.97988281 C11.4621813,7.34944336 11.5402354,8.12845313 10.95575,8.64601562 Z M2.38333333,10.96875 C2.38333333,11.3053027 2.09232292,11.578125 1.73333333,11.578125 C1.37434375,11.578125 1.08333333,11.3053027 1.08333333,10.96875 C1.08333333,10.6321973 1.37434375,10.359375 1.73333333,10.359375 C2.09232292,10.359375 2.38333333,10.6321973 2.38333333,10.96875 Z" id="Shape"></path>
        </g>
    </g>
</svg>