<?xml version="1.0" encoding="UTF-8"?>
<svg width="10px" height="13px" viewBox="0 0 10 13" version="1.1" xmlns="http://www.w3.org/2000/svg" xmlns:xlink="http://www.w3.org/1999/xlink">
    <!-- Generator: Sketch 58 (84663) - https://sketch.com -->
    <title>icons/web-application/thumbtack</title>
    <desc>Created with Sketch.</desc>
    <g id="icons/web-application/thumbtack" stroke="none" stroke-width="1" fill="none" fill-rule="evenodd">
        <g id="thumbtack" fill="#676A6C" fill-rule="nonzero">
            <path d="M7.74098701,5.42976803 L7.42319481,2.43274854 L8.51948052,2.43274854 C8.86376623,2.43274854 9.14285714,2.16045809 9.14285714,1.8245614 L9.14285714,0.608187135 C9.14285714,0.272290448 8.86376623,0 8.51948052,0 L1.45454545,0 C1.11025974,0 0.831168831,0.272290448 0.831168831,0.608187135 L0.831168831,1.8245614 C0.831168831,2.16045809 1.11025974,2.43274854 1.45454545,2.43274854 L2.55083117,2.43274854 L2.23303896,5.42976803 C0.973116883,6.00128655 0,7.02610721 0,8.31189084 C0,8.64778752 0.279090909,8.92007797 0.623376623,8.92007797 L4.15584416,8.92007797 L4.15584416,11.5557329 C4.15584416,11.5872066 4.16335065,11.6182495 4.17779221,11.6464035 L4.80116883,12.8627778 C4.87755844,13.0118343 5.09633766,13.0121131 5.17288312,12.8627778 L5.79625974,11.6464035 C5.81068397,11.6182496 5.81819799,11.5872081 5.81820779,11.5557329 L5.81820779,8.92007797 L9.35067532,8.92007797 C9.69496104,8.92007797 9.97405195,8.64778752 9.97405195,8.31189084 C9.97405195,7.01485575 8.98748052,5.99520468 7.74098701,5.42976803 Z" id="Path"></path>
        </g>
    </g>
</svg>