<?xml version="1.0" encoding="UTF-8"?>
<svg width="13px" height="13px" viewBox="0 0 13 13" version="1.1" xmlns="http://www.w3.org/2000/svg" xmlns:xlink="http://www.w3.org/1999/xlink">
    <!-- Generator: Sketch 58 (84663) - https://sketch.com -->
    <title>icons/web-application/times-circle-o</title>
    <desc>Created with Sketch.</desc>
    <g id="icons/web-application/times-circle-o" stroke="none" stroke-width="1" fill="none" fill-rule="evenodd">
        <g id="times-circle" fill="#676A6C" fill-rule="nonzero">
            <path d="M6.5,0 C2.90927419,0 0,2.90927419 0,6.5 C0,10.0907258 2.90927419,13 6.5,13 C10.0907258,13 13,10.0907258 13,6.5 C13,2.90927419 10.0907258,0 6.5,0 Z M6.5,11.7419355 C3.60383065,11.7419355 1.25806452,9.39616935 1.25806452,6.5 C1.25806452,3.60383065 3.60383065,1.25806452 6.5,1.25806452 C9.39616935,1.25806452 11.7419355,3.60383065 11.7419355,6.5 C11.7419355,9.39616935 9.39616935,11.7419355 6.5,11.7419355 Z M9.16814516,4.86975806 L7.53790323,6.5 L9.16814516,8.13024194 C9.29133065,8.25342742 9.29133065,8.45262097 9.16814516,8.57580645 L8.57580645,9.16814516 C8.45262097,9.29133065 8.25342742,9.29133065 8.13024194,9.16814516 L6.5,7.53790323 L4.86975806,9.16814516 C4.74657258,9.29133065 4.54737903,9.29133065 4.42419355,9.16814516 L3.83185484,8.57580645 C3.70866935,8.45262097 3.70866935,8.25342742 3.83185484,8.13024194 L5.46209677,6.5 L3.83185484,4.86975806 C3.70866935,4.74657258 3.70866935,4.54737903 3.83185484,4.42419355 L4.42419355,3.83185484 C4.54737903,3.70866935 4.74657258,3.70866935 4.86975806,3.83185484 L6.5,5.46209677 L8.13024194,3.83185484 C8.25342742,3.70866935 8.45262097,3.70866935 8.57580645,3.83185484 L9.16814516,4.42419355 C9.29133065,4.54737903 9.29133065,4.74657258 9.16814516,4.86975806 L9.16814516,4.86975806 Z" id="Shape"></path>
        </g>
    </g>
</svg>