<?xml version="1.0" encoding="UTF-8"?>
<svg width="13px" height="13px" viewBox="0 0 13 13" version="1.1" xmlns="http://www.w3.org/2000/svg" xmlns:xlink="http://www.w3.org/1999/xlink">
    <!-- Generator: Sketch 58 (84663) - https://sketch.com -->
    <title>icons/web-application/times-circle</title>
    <desc>Created with Sketch.</desc>
    <g id="icons/web-application/times-circle" stroke="none" stroke-width="1" fill="none" fill-rule="evenodd">
        <g id="times-circle" fill="#676A6C" fill-rule="nonzero">
            <path d="M6.5,0 C2.90927419,0 0,2.90927419 0,6.5 C0,10.0907258 2.90927419,13 6.5,13 C10.0907258,13 13,10.0907258 13,6.5 C13,2.90927419 10.0907258,0 6.5,0 Z M9.68709677,8.20625 C9.81028226,8.32943548 9.81028226,8.52862903 9.68709677,8.65181452 L8.64919355,9.68709677 C8.52600806,9.81028226 8.32681452,9.81028226 8.20362903,9.68709677 L6.5,7.96774194 L4.79375,9.68709677 C4.67056452,9.81028226 4.47137097,9.81028226 4.34818548,9.68709677 L3.31290323,8.64919355 C3.18971774,8.52600806 3.18971774,8.32681452 3.31290323,8.20362903 L5.03225806,6.5 L3.31290323,4.79375 C3.18971774,4.67056452 3.18971774,4.47137097 3.31290323,4.34818548 L4.35080645,3.31028226 C4.47399194,3.18709677 4.67318548,3.18709677 4.79637097,3.31028226 L6.5,5.03225806 L8.20625,3.31290323 C8.32943548,3.18971774 8.52862903,3.18971774 8.65181452,3.31290323 L9.68971774,4.35080645 C9.81290323,4.47399194 9.81290323,4.67318548 9.68971774,4.79637097 L7.96774194,6.5 L9.68709677,8.20625 Z" id="Shape"></path>
        </g>
    </g>
</svg>