<?xml version="1.0" encoding="UTF-8"?>
<svg width="13px" height="13px" viewBox="0 0 13 13" version="1.1" xmlns="http://www.w3.org/2000/svg" xmlns:xlink="http://www.w3.org/1999/xlink">
    <!-- Generator: Sketch 58 (84663) - https://sketch.com -->
    <title>icons/web-application/times</title>
    <desc>Created with Sketch.</desc>
    <g id="icons/web-application/times" stroke="none" stroke-width="1" fill="none" fill-rule="evenodd">
        <g id="times" fill="#676A6C" fill-rule="nonzero">
            <path d="M8.96409091,6.5 L12.659858,2.80423295 C13.1133807,2.35071023 13.1133807,1.61539773 12.659858,1.16150568 L11.8384943,0.340142045 C11.3849716,-0.113380682 10.6496591,-0.113380682 10.195767,0.340142045 L6.5,4.03590909 L2.80423295,0.340142045 C2.35071023,-0.113380682 1.61539773,-0.113380682 1.16150568,0.340142045 L0.340142045,1.16150568 C-0.113380682,1.61502841 -0.113380682,2.35034091 0.340142045,2.80423295 L4.03590909,6.5 L0.340142045,10.195767 C-0.113380682,10.6492898 -0.113380682,11.3846023 0.340142045,11.8384943 L1.16150568,12.659858 C1.61502841,13.1133807 2.35071023,13.1133807 2.80423295,12.659858 L6.5,8.96409091 L10.195767,12.659858 C10.6492898,13.1133807 11.3849716,13.1133807 11.8384943,12.659858 L12.659858,11.8384943 C13.1133807,11.3849716 13.1133807,10.6496591 12.659858,10.195767 L8.96409091,6.5 Z" id="Path"></path>
        </g>
    </g>
</svg>