<?xml version="1.0" encoding="UTF-8"?>
<svg width="13px" height="13px" viewBox="0 0 13 13" version="1.1" xmlns="http://www.w3.org/2000/svg" xmlns:xlink="http://www.w3.org/1999/xlink">
    <!-- Generator: Sketch 58 (84663) - https://sketch.com -->
    <title>icons/web-application/trash</title>
    <desc>Created with Sketch.</desc>
    <g id="icons/web-application/trash" stroke="none" stroke-width="1" fill="none" fill-rule="evenodd">
        <g id="trash" transform="translate(1.000000, 0.000000)" fill="#676A6C" fill-rule="nonzero">
            <path d="M10.6071429,0.812508906 L7.66071429,0.812508906 L7.42991071,0.337704219 C7.33018463,0.130654523 7.12569368,-0.000156992558 6.90200893,4.43074473e-06 L4.09553571,4.43074473e-06 C3.87227166,-0.000878624005 3.66816642,0.130296277 3.57008929,0.337704219 L3.33928571,0.812508906 L0.392857143,0.812508906 C0.175888134,0.812508906 0,0.994393227 0,1.21875891 L0,2.03125891 C0,2.25562459 0.175888134,2.43750891 0.392857143,2.43750891 L10.6071429,2.43750891 C10.8241119,2.43750891 11,2.25562459 11,2.03125891 L11,1.21875891 C11,0.994393227 10.8241119,0.812508906 10.6071429,0.812508906 Z M1.30625,11.8574308 C1.34514041,12.4996323 1.86011951,13.0000089 2.48236607,13.0000089 L8.51763393,13.0000089 C9.13988049,13.0000089 9.65485959,12.4996323 9.69375,11.8574308 L10.2142857,3.25000891 L0.785714286,3.25000891 L1.30625,11.8574308 Z" id="Shape"></path>
        </g>
    </g>
</svg>