<?xml version="1.0" encoding="UTF-8"?>
<svg width="13px" height="13px" viewBox="0 0 13 13" version="1.1" xmlns="http://www.w3.org/2000/svg" xmlns:xlink="http://www.w3.org/1999/xlink">
    <!-- Generator: Sketch 58 (84663) - https://sketch.com -->
    <title>icons/web-application/unlock-alt</title>
    <desc>Created with Sketch.</desc>
    <g id="icons/web-application/unlock-alt" stroke="none" stroke-width="1" fill="none" fill-rule="evenodd">
        <g id="unlock-alt" transform="translate(1.000000, 0.000000)" fill="#676A6C" fill-rule="nonzero">
            <path d="M9.82142857,6.5 L3.73214286,6.5 L3.73214286,3.89241245 C3.73214286,2.89085603 4.51049107,2.05875486 5.4828125,2.04863813 C6.46495536,2.0385214 7.26785714,2.86050584 7.26785714,3.86964981 L7.26785714,4.27431907 C7.26785714,4.61070039 7.53058036,4.88132296 7.85714286,4.88132296 L8.64285714,4.88132296 C8.96941964,4.88132296 9.23214286,4.61070039 9.23214286,4.27431907 L9.23214286,3.86964981 C9.23214286,1.74513619 7.55022321,0.0177042802 5.48772321,0.0252669285 C3.42522321,0.0328793774 1.76785714,1.78307393 1.76785714,3.90758755 L1.76785714,6.5 L1.17857143,6.5 C0.527901786,6.5 0,7.04377432 0,7.71400778 L0,11.7607004 C0,12.4309339 0.527901786,12.9747082 1.17857143,12.9747082 L9.82142857,12.9747082 C10.4720982,12.9747082 11,12.4309339 11,11.7607004 L11,7.71400778 C11,7.04377432 10.4720982,6.5 9.82142857,6.5 Z M6.48214286,10.344358 C6.48214286,10.9033074 6.04263393,11.3560311 5.5,11.3560311 C4.95736607,11.3560311 4.51785714,10.9033074 4.51785714,10.344358 L4.51785714,9.13035019 C4.51785714,8.57140078 4.95736607,8.11867704 5.5,8.11867704 C6.04263393,8.11867704 6.48214286,8.57140078 6.48214286,9.13035019 L6.48214286,10.344358 Z" id="Shape"></path>
        </g>
    </g>
</svg>