<?xml version="1.0" encoding="UTF-8"?>
<svg width="11px" height="13px" viewBox="0 0 11 13" version="1.1" xmlns="http://www.w3.org/2000/svg" xmlns:xlink="http://www.w3.org/1999/xlink">
    <!-- Generator: Sketch 58 (84663) - https://sketch.com -->
    <title>icons/web-application/unlock</title>
    <desc>Created with Sketch.</desc>
    <g id="icons/web-application/unlock" stroke="none" stroke-width="1" fill="none" fill-rule="evenodd">
        <g id="unlock" fill="#676A6C" fill-rule="nonzero">
            <path d="M9.82142857,6.51267057 L3.73214286,6.51267057 L3.73214286,3.9 C3.73214286,2.89649123 4.51049107,2.06276803 5.4828125,2.05263158 C6.46495536,2.04249513 7.26785714,2.86608187 7.26785714,3.87719298 L7.26785714,4.28265107 C7.26785714,4.61968811 7.53058036,4.89083821 7.85714286,4.89083821 L8.64285714,4.89083821 C8.96941964,4.89083821 9.23214286,4.61968811 9.23214286,4.28265107 L9.23214286,3.87719298 C9.23214286,1.74853801 7.55022321,0.0177387914 5.48772321,0.0253161818 C3.42522321,0.0329434698 1.76785714,1.78654971 1.76785714,3.91520468 L1.76785714,6.51267057 L1.17857143,6.51267057 C0.527901786,6.51267057 0,7.05750487 0,7.72904483 L0,11.7836257 C0,12.4551657 0.527901786,13 1.17857143,13 L9.82142857,13 C10.4720982,13 11,12.4551657 11,11.7836257 L11,7.72904483 C11,7.05750487 10.4720982,6.51267057 9.82142857,6.51267057 Z" id="Path"></path>
        </g>
    </g>
</svg>