<?xml version="1.0" encoding="UTF-8"?>
<svg width="13px" height="13px" viewBox="0 0 13 13" version="1.1" xmlns="http://www.w3.org/2000/svg" xmlns:xlink="http://www.w3.org/1999/xlink">
    <!-- Generator: Sketch 58 (84663) - https://sketch.com -->
    <title>icons/web-application/upload</title>
    <desc>Created with Sketch.</desc>
    <g id="icons/web-application/upload" stroke="none" stroke-width="1" fill="none" fill-rule="evenodd">
        <g id="upload" fill="#676A6C" fill-rule="nonzero">
            <path d="M7.515625,9.75 L5.484375,9.75 C5.14667969,9.75 4.875,9.47832031 4.875,9.140625 L4.875,4.875 L2.64824219,4.875 C2.19628906,4.875 1.9703125,4.32910156 2.29023437,4.00917969 L6.15214844,0.144726563 C6.34257812,-0.045703125 6.65488281,-0.045703125 6.8453125,0.144726563 L10.7097656,4.00917969 C11.0296875,4.32910156 10.8037109,4.875 10.3517578,4.875 L8.125,4.875 L8.125,9.140625 C8.125,9.47832031 7.85332031,9.75 7.515625,9.75 Z M13,9.546875 L13,12.390625 C13,12.7283203 12.7283203,13 12.390625,13 L0.609375,13 C0.271679687,13 0,12.7283203 0,12.390625 L0,9.546875 C0,9.20917969 0.271679687,8.9375 0.609375,8.9375 L4.0625,8.9375 L4.0625,9.140625 C4.0625,9.92519531 4.69980469,10.5625 5.484375,10.5625 L7.515625,10.5625 C8.30019531,10.5625 8.9375,9.92519531 8.9375,9.140625 L8.9375,8.9375 L12.390625,8.9375 C12.7283203,8.9375 13,9.20917969 13,9.546875 Z M9.8515625,11.78125 C9.8515625,11.5019531 9.62304688,11.2734375 9.34375,11.2734375 C9.06445312,11.2734375 8.8359375,11.5019531 8.8359375,11.78125 C8.8359375,12.0605469 9.06445312,12.2890625 9.34375,12.2890625 C9.62304688,12.2890625 9.8515625,12.0605469 9.8515625,11.78125 Z M11.4765625,11.78125 C11.4765625,11.5019531 11.2480469,11.2734375 10.96875,11.2734375 C10.6894531,11.2734375 10.4609375,11.5019531 10.4609375,11.78125 C10.4609375,12.0605469 10.6894531,12.2890625 10.96875,12.2890625 C11.2480469,12.2890625 11.4765625,12.0605469 11.4765625,11.78125 Z" id="Shape"></path>
        </g>
    </g>
</svg>