<?xml version="1.0" encoding="UTF-8"?>
<svg width="13px" height="13px" viewBox="0 0 13 13" version="1.1" xmlns="http://www.w3.org/2000/svg" xmlns:xlink="http://www.w3.org/1999/xlink">
    <!-- Generator: Sketch 58 (84663) - https://sketch.com -->
    <title>icons/web-application/user-circle</title>
    <desc>Created with Sketch.</desc>
    <g id="icons/web-application/user-circle" stroke="none" stroke-width="1" fill="none" fill-rule="evenodd">
        <g id="user-circle" fill="#676A6C" fill-rule="nonzero">
            <path d="M6.5,0 C2.90927419,0 0,2.90927419 0,6.5 C0,10.0907258 2.90927419,13 6.5,13 C10.0907258,13 13,10.0907258 13,6.5 C13,2.90927419 10.0907258,0 6.5,0 Z M6.5,2.51612903 C7.77379032,2.51612903 8.80645161,3.54879032 8.80645161,4.82258065 C8.80645161,6.09637097 7.77379032,7.12903226 6.5,7.12903226 C5.22620968,7.12903226 4.19354839,6.09637097 4.19354839,4.82258065 C4.19354839,3.54879032 5.22620968,2.51612903 6.5,2.51612903 Z M6.5,11.5322581 C4.96149194,11.5322581 3.5828629,10.8350806 2.66028226,9.74475806 C3.15302419,8.81693548 4.11754032,8.17741935 5.24193548,8.17741935 C5.30483871,8.17741935 5.36774194,8.18790323 5.42802419,8.20625 C5.76875,8.31633065 6.12520161,8.38709677 6.5,8.38709677 C6.87479839,8.38709677 7.23387097,8.31633065 7.57197581,8.20625 C7.63225806,8.18790323 7.69516129,8.17741935 7.75806452,8.17741935 C8.88245968,8.17741935 9.84697581,8.81693548 10.3397177,9.74475806 C9.4171371,10.8350806 8.03850806,11.5322581 6.5,11.5322581 Z" id="Shape"></path>
        </g>
    </g>
</svg>