<?xml version="1.0" encoding="UTF-8"?>
<svg width="13px" height="9px" viewBox="0 0 13 9" version="1.1" xmlns="http://www.w3.org/2000/svg" xmlns:xlink="http://www.w3.org/1999/xlink">
    <!-- Generator: Sketch 58 (84663) - https://sketch.com -->
    <title>icons/web-application/user-group</title>
    <desc>Created with Sketch.</desc>
    <g id="icons/web-application/user-group" stroke="none" stroke-width="1" fill="none" fill-rule="evenodd">
        <path d="M1.95,3.85714286 C2.66703125,3.85714286 3.25,3.28058036 3.25,2.57142857 C3.25,1.86227679 2.66703125,1.28571429 1.95,1.28571429 C1.23296875,1.28571429 0.65,1.86227679 0.65,2.57142857 C0.65,3.28058036 1.23296875,3.85714286 1.95,3.85714286 Z M11.05,3.85714286 C11.7670312,3.85714286 12.35,3.28058036 12.35,2.57142857 C12.35,1.86227679 11.7670312,1.28571429 11.05,1.28571429 C10.3329688,1.28571429 9.75,1.86227679 9.75,2.57142857 C9.75,3.28058036 10.3329687,3.85714286 11.05,3.85714286 Z M11.7,4.5 L10.4,4.5 C10.0425,4.5 9.71953125,4.64263393 9.48390625,4.87366071 C10.3025,5.31763393 10.8834375,6.11919643 11.009375,7.07142857 L12.35,7.07142857 C12.7095313,7.07142857 13,6.78415179 13,6.42857143 L13,5.78571429 C13,5.0765625 12.4170313,4.5 11.7,4.5 Z M6.5,4.5 C7.75734375,4.5 8.775,3.49352679 8.775,2.25 C8.775,1.00647321 7.75734375,0 6.5,0 C5.24265625,0 4.225,1.00647321 4.225,2.25 C4.225,3.49352679 5.24265625,4.5 6.5,4.5 Z M8.06,5.14285714 L7.89140625,5.14285714 C7.46890625,5.34375 6.9996875,5.46428571 6.5,5.46428571 C6.0003125,5.46428571 5.533125,5.34375 5.10859375,5.14285714 L4.94,5.14285714 C3.648125,5.14285714 2.6,6.17946429 2.6,7.45714286 L2.6,8.03571429 C2.6,8.56808036 3.03671875,9 3.575,9 L9.425,9 C9.96328125,9 10.4,8.56808036 10.4,8.03571429 L10.4,7.45714286 C10.4,6.17946429 9.351875,5.14285714 8.06,5.14285714 Z M3.51609375,4.87366071 C3.28046875,4.64263393 2.9575,4.5 2.6,4.5 L1.3,4.5 C0.58296875,4.5 0,5.0765625 0,5.78571429 L0,6.42857143 C0,6.78415179 0.29046875,7.07142857 0.65,7.07142857 L1.98859375,7.07142857 C2.1165625,6.11919643 2.6975,5.31763393 3.51609375,4.87366071 Z" id="Shape" fill="#676A6C" fill-rule="nonzero"></path>
    </g>
</svg>