<?xml version="1.0" encoding="UTF-8"?>
<svg width="13px" height="13px" viewBox="0 0 13 13" version="1.1" xmlns="http://www.w3.org/2000/svg" xmlns:xlink="http://www.w3.org/1999/xlink">
    <!-- Generator: Sketch 58 (84663) - https://sketch.com -->
    <title>icons/web-application/user-circle-o</title>
    <desc>Created with Sketch.</desc>
    <g id="icons/web-application/user-circle-o" stroke="none" stroke-width="1" fill="none" fill-rule="evenodd">
        <g id="user-circle" fill="#676A6C" fill-rule="nonzero">
            <path d="M6.5,2.51612903 C5.1108871,2.51612903 3.98387097,3.64314516 3.98387097,5.03225806 C3.98387097,6.42137097 5.1108871,7.5483871 6.5,7.5483871 C7.8891129,7.5483871 9.01612903,6.42137097 9.01612903,5.03225806 C9.01612903,3.64314516 7.8891129,2.51612903 6.5,2.51612903 Z M6.5,6.29032258 C5.80544355,6.29032258 5.24193548,5.72681452 5.24193548,5.03225806 C5.24193548,4.33770161 5.80544355,3.77419355 6.5,3.77419355 C7.19455645,3.77419355 7.75806452,4.33770161 7.75806452,5.03225806 C7.75806452,5.72681452 7.19455645,6.29032258 6.5,6.29032258 Z M6.5,0 C2.90927419,0 0,2.90927419 0,6.5 C0,10.0907258 2.90927419,13 6.5,13 C10.0907258,13 13,10.0907258 13,6.5 C13,2.90927419 10.0907258,0 6.5,0 Z M6.5,11.7419355 C5.19737903,11.7419355 4.00745968,11.2622984 3.09012097,10.4733871 C3.48064516,9.87056452 4.14899194,9.46169355 4.91431452,9.43810484 C5.45947581,9.60584677 5.97842742,9.68971774 6.5,9.68971774 C7.02157258,9.68971774 7.54052419,9.60846774 8.08568548,9.43810484 C8.85100806,9.46431452 9.51935484,9.87056452 9.90987903,10.4733871 C8.99254032,11.2622984 7.80262097,11.7419355 6.5,11.7419355 Z M10.7643145,9.53770161 C10.1247984,8.71471774 9.13669355,8.17741935 8.00967742,8.17741935 C7.74233871,8.17741935 7.32822581,8.42903226 6.5,8.42903226 C5.67439516,8.42903226 5.25766129,8.17741935 4.99032258,8.17741935 C3.86592742,8.17741935 2.87782258,8.71471774 2.23568548,9.53770161 C1.62237903,8.68064516 1.25806452,7.63225806 1.25806452,6.5 C1.25806452,3.60907258 3.60907258,1.25806452 6.5,1.25806452 C9.39092742,1.25806452 11.7419355,3.60907258 11.7419355,6.5 C11.7419355,7.63225806 11.377621,8.68064516 10.7643145,9.53770161 Z" id="Shape"></path>
        </g>
    </g>
</svg>