<?xml version="1.0" encoding="UTF-8"?>
<svg width="13px" height="13px" viewBox="0 0 13 13" version="1.1" xmlns="http://www.w3.org/2000/svg" xmlns:xlink="http://www.w3.org/1999/xlink">
    <!-- Generator: Sketch 58 (84663) - https://sketch.com -->
    <title>icons/web-application/video-camera</title>
    <desc>Created with Sketch.</desc>
    <g id="icons/web-application/video-camera" stroke="none" stroke-width="1" fill="none" fill-rule="evenodd">
        <g id="video" transform="translate(0.000000, 2.000000)" fill="#676A6C" fill-rule="nonzero">
            <path d="M7.58784722,0 L1.07881944,0 C0.482986111,0 0,0.5015625 0,1.1203125 L0,7.8796875 C0,8.4984375 0.482986111,9 1.07881944,9 L7.58784722,9 C8.18368056,9 8.66666667,8.4984375 8.66666667,7.8796875 L8.66666667,1.1203125 C8.66666667,0.5015625 8.18368056,0 7.58784722,0 Z M11.8625,0.88359375 L9.38888889,2.65546875 L9.38888889,6.34453125 L11.8625,8.1140625 C12.3409722,8.45625 13,8.10703125 13,7.509375 L13,1.48828125 C13,0.89296875 12.3432292,0.54140625 11.8625,0.88359375 Z" id="Shape"></path>
        </g>
    </g>
</svg>