<?xml version="1.0" encoding="UTF-8"?>
<svg width="13px" height="13px" viewBox="0 0 13 13" version="1.1" xmlns="http://www.w3.org/2000/svg" xmlns:xlink="http://www.w3.org/1999/xlink">
    <!-- Generator: Sketch 58 (84663) - https://sketch.com -->
    <title>icons/web-application/volume-up</title>
    <desc>Created with Sketch.</desc>
    <g id="icons/web-application/volume-up" stroke="none" stroke-width="1" fill="none" fill-rule="evenodd">
        <g id="volume-up" transform="translate(0.000000, 1.000000)" fill="#676A6C" fill-rule="nonzero">
            <path d="M4.85310764,1.26160941 L2.84510417,3.29995111 L0.541666667,3.29995111 C0.242395833,3.29995111 0,3.54606454 0,3.84992526 L0,7.14977018 C0,7.45340174 0.242395833,7.69974433 0.541666667,7.69974433 L2.84510417,7.69974433 L4.85310764,9.73808603 C5.19232639,10.0825073 5.77777778,9.84051872 5.77777778,9.34920847 L5.77777778,1.65048696 C5.77777778,1.15871841 5.191875,0.917646404 4.85310764,1.26160941 Z M10.1190104,0.0910810842 C9.86690972,-0.0768901882 9.52814236,-0.00608101608 9.36270833,0.250344433 C9.19704861,0.506311569 9.26746528,0.850274571 9.51956597,1.01824584 C11.0152431,2.01484484 11.9078646,3.6902036 11.9078646,5.50007687 C11.9078646,7.30995015 11.0152431,8.98530891 9.51956597,9.98190791 C9.26746528,10.14965 9.19704861,10.4938422 9.36270833,10.7495802 C9.52159722,10.9950061 9.85765625,11.0832311 10.1190104,10.9088435 C11.9227604,9.70669167 13,7.68439088 13,5.49984772 C13,3.31530455 11.9227604,1.29323292 10.1190104,0.0910810842 Z M10.8333333,5.49984772 C10.8333333,4.04402031 10.1097569,2.70552071 8.89755208,1.91951599 C8.645,1.75589868 8.31006944,1.83197843 8.15005208,2.09046628 C7.99003472,2.34895414 8.06473958,2.69108389 8.31729167,2.85493036 C9.21442708,3.43675718 9.75,4.42533572 9.75,5.49984772 C9.75,6.57435972 9.21442708,7.56293826 8.31729167,8.14476508 C8.06473958,8.30838239 7.99003472,8.65051215 8.15005208,8.90922915 C8.29697917,9.14663466 8.62671875,9.25617118 8.89755208,9.08017945 C10.1097569,8.29417473 10.8333333,6.95590429 10.8333333,5.49984772 Z M7.63366319,3.73832634 C7.37230903,3.59327066 7.04256944,3.68882867 6.89767361,3.95487866 C6.75345486,4.22092866 6.84892361,4.55526711 7.11095486,4.70215604 C7.40232639,4.86462757 7.58333333,5.17055069 7.58333333,5.49984772 C7.58333333,5.8293739 7.40232639,6.13506786 7.11118056,6.2975394 C6.84914931,6.44442833 6.75368056,6.77876678 6.89789931,7.04481678 C7.04302083,7.31201255 7.37298611,7.40688309 7.63388889,7.2613691 C8.27102431,6.90503168 8.66689236,6.23016756 8.66689236,5.49961856 C8.66689236,4.76906956 8.27102431,4.0944346 7.63366319,3.73832634 Z" id="Shape"></path>
        </g>
    </g>
</svg>