<?xml version="1.0" encoding="UTF-8"?>
<svg width="13px" height="13px" viewBox="0 0 13 13" version="1.1" xmlns="http://www.w3.org/2000/svg" xmlns:xlink="http://www.w3.org/1999/xlink">
    <!-- Generator: Sketch 58 (84663) - https://sketch.com -->
    <title>icons/web-application/volume-down</title>
    <desc>Created with Sketch.</desc>
    <g id="icons/web-application/volume-down" stroke="none" stroke-width="1" fill="none" fill-rule="evenodd">
        <g id="volume-down" transform="translate(0.000000, 2.000000)" fill="#676A6C" fill-rule="nonzero">
            <path d="M5.03963438,0.164169907 L2.95445431,2.2383668 L0.562485352,2.2383668 C0.251712195,2.2383668 0,2.48878131 0,2.79795229 L0,6.15546524 C0,6.46440307 0.251712195,6.71505074 0.562485352,6.71505074 L2.95445431,6.71505074 L5.03963438,8.78901447 C5.39189084,9.13945488 5.99984375,8.89323727 5.99984375,8.39334089 L5.99984375,0.560076643 C5.99984375,0.0594807883 5.3914221,-0.185571025 5.03963438,0.164169907 Z M7.92705919,2.68416991 C7.65566001,2.53657923 7.31324705,2.63380721 7.16278222,2.9045067 C7.01302049,3.17520618 7.11215854,3.51538752 7.38426083,3.66484348 C7.68683107,3.83038752 7.87479493,4.14142379 7.87479493,4.47670877 C7.87479493,4.81199374 7.68683107,5.12303001 7.3844952,5.28834089 C7.11239291,5.43779685 7.01325486,5.7779782 7.16301659,6.04867768 C7.31371579,6.32054296 7.65636312,6.41707146 7.92729356,6.26901447 C8.58891696,5.9064497 9,5.21979167 9,4.47647561 C9,3.73315954 8.58891696,3.04673467 7.92705919,2.68416991 Z" id="Shape"></path>
        </g>
    </g>
</svg>