<?xml version="1.0" encoding="UTF-8"?>
<svg width="13px" height="12px" viewBox="0 0 13 12" version="1.1" xmlns="http://www.w3.org/2000/svg" xmlns:xlink="http://www.w3.org/1999/xlink">
    <!-- Generator: Sketch 58 (84663) - https://sketch.com -->
    <title>icons/web-application/warning</title>
    <desc>Created with Sketch.</desc>
    <g id="icons/web-application/warning" stroke="none" stroke-width="1" fill="none" fill-rule="evenodd">
        <g id="exclamation-triangle" fill="#676A6C" fill-rule="nonzero">
            <path d="M12.8536786,10.3128047 C13.2702653,11.0626641 12.747354,11.9999999 11.9153091,11.9999999 L1.08455178,11.9999999 C0.250904443,11.9999999 -0.269591937,11.0612109 0.14618225,10.3128047 L5.56162863,0.562148438 C5.97841844,-0.1880625 7.02232266,-0.186703125 7.43836768,0.562148438 L12.8536786,10.3128047 Z M6.49999815,8.296875 C5.92662158,8.296875 5.461804,8.77957031 5.461804,9.375 C5.461804,9.97042969 5.92662158,10.453125 6.49999815,10.453125 C7.07337473,10.453125 7.5381923,9.97042969 7.5381923,9.375 C7.5381923,8.77957031 7.07337473,8.296875 6.49999815,8.296875 Z M5.51432309,4.42157812 L5.68174318,7.60907812 C5.68957477,7.75823437 5.80833516,7.875 5.95217018,7.875 L7.04782612,7.875 C7.19166115,7.875 7.31042154,7.75823437 7.31825313,7.60907812 L7.48567322,4.42157812 C7.49413676,4.26046875 7.37061423,4.125 7.21524621,4.125 L5.78472752,4.125 C5.62935951,4.125 5.50585955,4.26046875 5.51432309,4.42157812 L5.51432309,4.42157812 Z" id="Shape"></path>
        </g>
    </g>
</svg>