<?xml version="1.0" encoding="UTF-8"?>
<svg width="13px" height="13px" viewBox="0 0 13 13" version="1.1" xmlns="http://www.w3.org/2000/svg" xmlns:xlink="http://www.w3.org/1999/xlink">
    <!-- Generator: Sketch 58 (84663) - https://sketch.com -->
    <title>icons/web-application/wheelchair</title>
    <desc>Created with Sketch.</desc>
    <g id="icons/web-application/wheelchair" stroke="none" stroke-width="1" fill="none" fill-rule="evenodd">
        <g id="wheelchair" fill="#676A6C" fill-rule="nonzero">
            <path d="M12.5963151,9.79237695 L12.9575475,10.5201484 C13.0573073,10.7211152 12.9752448,10.9648906 12.774278,11.0646504 L11.1120806,11.8996465 C10.7045865,12.1019336 10.2092915,11.9299629 10.0154849,11.5173906 L8.42153751,8.125 L4.87500023,8.125 C4.47065451,8.125 4.12785567,7.82767578 4.07065059,7.42739258 C3.21021305,1.40430469 3.25964859,1.77846094 3.25000016,1.625 C3.25000016,0.701847656 4.01979316,-0.0415136719 4.95249243,0.00180273437 C5.79726395,0.04103125 6.47714875,0.73571875 6.49941633,1.581125 C6.52145539,2.41731445 5.91157255,3.11530273 5.11288501,3.23250586 L5.23145924,4.06252539 L8.53125041,4.06252539 C8.75562737,4.06252539 8.93750043,4.24439844 8.93750043,4.46877539 L8.93750043,5.28127539 C8.93750043,5.50565234 8.75562737,5.68752539 8.53125041,5.68752539 L5.46360573,5.68752539 L5.57969167,6.50002539 L8.93750043,6.50002539 C9.25240571,6.50002962 9.53895028,6.68199659 9.67286375,6.96700977 L11.1332056,10.075 L12.0517877,9.60910742 C12.2527545,9.50934766 12.4965553,9.59141016 12.5963151,9.79237695 Z M7.9055746,8.9375 L7.28335191,8.9375 C7.08560972,10.3137734 5.89885185,11.375 4.46875022,11.375 C2.90070131,11.375 1.62500008,10.0992988 1.62500008,8.53125 C1.62500008,7.47741211 2.20121495,6.55563086 3.05510171,6.06439844 C2.9608517,5.40513086 2.88132826,4.84920312 2.81419545,4.38016211 C1.16685162,5.039125 0,6.6514043 0,8.53125 C0,10.995334 2.00466611,13 4.46875022,13 C6.29357452,13 7.86616835,11.9003828 8.55943401,10.3291094 L7.9055746,8.9375 Z" id="Shape"></path>
        </g>
    </g>
</svg>