<?xml version="1.0" encoding="UTF-8"?>
<svg width="13px" height="13px" viewBox="0 0 13 13" version="1.1" xmlns="http://www.w3.org/2000/svg" xmlns:xlink="http://www.w3.org/1999/xlink">
    <!-- Generator: Sketch 58 (84663) - https://sketch.com -->
    <title>icons/web-application/window-close</title>
    <desc>Created with Sketch.</desc>
    <g id="icons/web-application/window-close" stroke="none" stroke-width="1" fill="none" fill-rule="evenodd">
        <g id="window-close" transform="translate(0.000000, 1.000000)" fill="#676A6C" fill-rule="nonzero">
            <path d="M11.78125,0 L1.21875,0 C0.545898438,0 0,0.527901786 0,1.17857143 L0,9.82142857 C0,10.4720982 0.545898438,11 1.21875,11 L11.78125,11 C12.4541016,11 13,10.4720982 13,9.82142857 L13,1.17857143 C13,0.527901786 12.4541016,0 11.78125,0 Z M9.65859375,7.1328125 C9.78046875,7.25066964 9.78046875,7.4421875 9.65859375,7.56004464 L8.63027344,8.55446429 C8.50839844,8.67232143 8.31035156,8.67232143 8.18847656,8.55446429 L6.5,6.90691964 L4.81152344,8.55446429 C4.68964844,8.67232143 4.49160156,8.67232143 4.36972656,8.55446429 L3.34140625,7.56004464 C3.21953125,7.4421875 3.21953125,7.25066964 3.34140625,7.1328125 L5.04511719,5.5 L3.34140625,3.8671875 C3.21953125,3.74933036 3.21953125,3.5578125 3.34140625,3.43995536 L4.36972656,2.44553571 C4.49160156,2.32767857 4.68964844,2.32767857 4.81152344,2.44553571 L6.5,4.09308036 L8.18847656,2.44553571 C8.31035156,2.32767857 8.50839844,2.32767857 8.63027344,2.44553571 L9.65859375,3.43995536 C9.78046875,3.5578125 9.78046875,3.74933036 9.65859375,3.8671875 L7.95488281,5.5 L9.65859375,7.1328125 Z" id="Shape"></path>
        </g>
    </g>
</svg>