<?xml version="1.0" encoding="UTF-8"?>
<svg width="13px" height="13px" viewBox="0 0 13 13" version="1.1" xmlns="http://www.w3.org/2000/svg" xmlns:xlink="http://www.w3.org/1999/xlink">
    <!-- Generator: Sketch 58 (84663) - https://sketch.com -->
    <title>icons/web-application/wrench</title>
    <desc>Created with Sketch.</desc>
    <g id="icons/web-application/wrench" stroke="none" stroke-width="1" fill="none" fill-rule="evenodd">
        <g id="wrench" fill="#676A6C" fill-rule="nonzero">
            <path d="M12.8916106,2.77007409 C12.8347358,2.5407972 12.5478225,2.46310204 12.3807526,2.63017202 L10.4927108,4.51821514 L8.76919989,4.23104774 L8.4820327,2.50753555 L10.3700745,0.619492436 C10.5381599,0.451406833 10.4571641,0.165001154 10.2263639,0.107618456 C9.02335936,-0.190466888 7.69873404,0.130723879 6.75852174,1.07068294 C5.75204009,2.07716531 5.47502912,3.53610772 5.8939733,4.8081755 L0.4758825,10.2262702 C-0.1586275,10.8607806 -0.1586275,11.8896067 0.4758825,12.5241172 C1.1103925,13.1586276 2.13921784,13.1586276 2.77372784,12.5241172 L8.18724834,7.11059279 C9.45982302,7.53486929 10.9159714,7.25481125 11.9290546,6.24172733 C12.8702825,5.30049874 13.1909653,3.97384122 12.8916106,2.77007409 Z M1.62505908,11.9843135 C1.28863421,11.9843135 1.01568573,11.7113649 1.01568573,11.3749398 C1.01568573,11.0382607 1.28863421,10.765566 1.62505908,10.765566 C1.96148395,10.765566 2.23443243,11.0382607 2.23443243,11.3749398 C2.23443243,11.7113649 1.96148395,11.9843135 1.62505908,11.9843135 Z" id="Shape"></path>
        </g>
    </g>
</svg>