<?xml version="1.0" encoding="UTF-8"?>
<svg width="13px" height="13px" viewBox="0 0 13 13" version="1.1" xmlns="http://www.w3.org/2000/svg" xmlns:xlink="http://www.w3.org/1999/xlink">
    <!-- Generator: Sketch 58 (84663) - https://sketch.com -->
    <title>icons/video-player-icons/compress-arrows-alt</title>
    <desc>Created with Sketch.</desc>
    <g id="icons/video-player-icons/compress-arrows-alt" stroke="none" stroke-width="1" fill="none" fill-rule="evenodd">
        <g id="compress-arrows-alt" fill="#676A6C" fill-rule="nonzero">
            <path d="M5.07784724,7.31123047 L2.23354171,7.31123047 C1.69007619,7.31123047 1.41834343,7.96630859 1.80181676,8.35224609 L2.63733151,9.13935547 L0.118089471,11.6606445 C-0.0393631569,11.8180664 -0.0393631569,12.0770508 0.118089471,12.2344727 L0.763137332,12.8793945 C0.920589959,13.0368164 1.17962493,13.0368164 1.33707755,12.8793945 L3.85885915,10.3581055 L4.64866185,11.1959961 C5.03213518,11.5793945 5.68734128,11.3077148 5.68734128,10.7643555 L5.68734128,7.92060547 C5.68734128,7.58291016 5.41560852,7.31123047 5.07784724,7.31123047 Z M7.92215276,5.68623047 L10.7664583,5.68623047 C11.3099238,5.68623047 11.5816566,5.02861328 11.1981832,4.64521484 L10.3601289,3.85810547 L12.8819105,1.33681641 C13.0393632,1.17939453 13.0393632,0.920410156 12.8819105,0.762988281 L12.2368627,0.118066406 C12.07941,-0.0393554687 11.8203751,-0.0393554687 11.6629224,0.118066406 L9.14114085,2.63935547 L8.35133815,1.80146484 C7.96786482,1.41806641 7.31265872,1.68974609 7.31265872,2.23310547 L7.31265872,5.07685547 C7.31265872,5.41455078 7.58439148,5.68623047 7.92215276,5.68623047 Z M10.3601289,9.13935547 L11.1981832,8.34970703 C11.5816566,7.96630859 11.3099238,7.31123047 10.7664583,7.31123047 L7.92215276,7.31123047 C7.58439148,7.31123047 7.31265872,7.58291016 7.31265872,7.92060547 L7.31265872,10.7643555 C7.31265872,11.3077148 7.97040438,11.5793945 8.35387771,11.1959961 L9.14114085,10.3606445 L11.6629224,12.8819336 C11.8203751,13.0393555 12.07941,13.0393555 12.2368627,12.8819336 L12.8819105,12.2370117 C13.0393632,12.0795898 13.0393632,11.8206055 12.8819105,11.6631836 L10.3601289,9.13935547 Z M4.64612229,1.80400391 L3.85885915,2.63935547 L1.33707755,0.118066406 C1.17962493,-0.0393554687 0.920589959,-0.0393554687 0.763137332,0.118066406 L0.118089471,0.762988281 C-0.0393631569,0.920410156 -0.0393631569,1.17939453 0.118089471,1.33681641 L2.63987107,3.85810547 L1.80181676,4.64775391 C1.41834343,5.03115234 1.69007619,5.68623047 2.23354171,5.68623047 L5.07784724,5.68623047 C5.41560852,5.68623047 5.68734128,5.41455078 5.68734128,5.07685547 L5.68734128,2.23310547 C5.68734128,1.69228516 5.02959562,1.42060547 4.64612229,1.80400391 Z" id="Shape"></path>
        </g>
    </g>
</svg>