<?xml version="1.0" encoding="UTF-8"?>
<svg width="13px" height="13px" viewBox="0 0 13 13" version="1.1" xmlns="http://www.w3.org/2000/svg" xmlns:xlink="http://www.w3.org/1999/xlink">
    <!-- Generator: Sketch 58 (84663) - https://sketch.com -->
    <title>icons/video-player-icons/compress</title>
    <desc>Created with Sketch.</desc>
    <g id="icons/video-player-icons/compress" stroke="none" stroke-width="1" fill="none" fill-rule="evenodd">
        <g id="compress" fill="#676A6C" fill-rule="nonzero">
            <path d="M12.6517857,4.64285714 L9.05357143,4.64285714 C8.66763393,4.64285714 8.35714286,4.33236607 8.35714286,3.94642857 L8.35714286,0.348214286 C8.35714286,0.156696429 8.51383929,0 8.70535714,0 L9.86607143,0 C10.0575893,0 10.2142857,0.156696429 10.2142857,0.348214286 L10.2142857,2.78571429 L12.6517857,2.78571429 C12.8433036,2.78571429 13,2.94241071 13,3.13392857 L13,4.29464286 C13,4.48616071 12.8433036,4.64285714 12.6517857,4.64285714 Z M4.64285714,3.94642857 L4.64285714,0.348214286 C4.64285714,0.156696429 4.48616071,0 4.29464286,0 L3.13392857,0 C2.94241071,0 2.78571429,0.156696429 2.78571429,0.348214286 L2.78571429,2.78571429 L0.348214286,2.78571429 C0.156696429,2.78571429 0,2.94241071 0,3.13392857 L0,4.29464286 C0,4.48616071 0.156696429,4.64285714 0.348214286,4.64285714 L3.94642857,4.64285714 C4.33236607,4.64285714 4.64285714,4.33236607 4.64285714,3.94642857 Z M4.64285714,12.6517857 L4.64285714,9.05357143 C4.64285714,8.66763393 4.33236607,8.35714286 3.94642857,8.35714286 L0.348214286,8.35714286 C0.156696429,8.35714286 0,8.51383929 0,8.70535714 L0,9.86607143 C0,10.0575893 0.156696429,10.2142857 0.348214286,10.2142857 L2.78571429,10.2142857 L2.78571429,12.6517857 C2.78571429,12.8433036 2.94241071,13 3.13392857,13 L4.29464286,13 C4.48616071,13 4.64285714,12.8433036 4.64285714,12.6517857 Z M10.2142857,12.6517857 L10.2142857,10.2142857 L12.6517857,10.2142857 C12.8433036,10.2142857 13,10.0575893 13,9.86607143 L13,8.70535714 C13,8.51383929 12.8433036,8.35714286 12.6517857,8.35714286 L9.05357143,8.35714286 C8.66763393,8.35714286 8.35714286,8.66763393 8.35714286,9.05357143 L8.35714286,12.6517857 C8.35714286,12.8433036 8.51383929,13 8.70535714,13 L9.86607143,13 C10.0575893,13 10.2142857,12.8433036 10.2142857,12.6517857 Z" id="Shape"></path>
        </g>
    </g>
</svg>