<?xml version="1.0" encoding="UTF-8"?>
<svg width="13px" height="13px" viewBox="0 0 13 13" version="1.1" xmlns="http://www.w3.org/2000/svg" xmlns:xlink="http://www.w3.org/1999/xlink">
    <!-- Generator: Sketch 58 (84663) - https://sketch.com -->
    <title>icons/video-player-icons/expand-arrows-alt</title>
    <desc>Created with Sketch.</desc>
    <g id="icons/video-player-icons/expand-arrows-alt" stroke="none" stroke-width="1" fill="none" fill-rule="evenodd">
        <g id="expand-arrows-alt" fill="#676A6C" fill-rule="nonzero">
            <path d="M13,9.05357057 L13,12.3035695 C13.0004617,12.4884156 12.9272371,12.6658245 12.7965308,12.7965308 C12.6658245,12.9272371 12.4884156,13.0004617 12.3035695,13 L9.05357057,13 C8.43287881,13 8.12238785,12.2484356 8.56026716,11.8102661 L9.61071324,10.75982 L6.5,7.64910676 L3.38841623,10.7627218 L4.43973284,11.8102661 C4.87761215,12.2484356 4.56712119,13 3.94642943,13 L0.696430527,13 C0.511584438,13.0004617 0.334175528,12.9272371 0.203469193,12.7965308 C0.0727628575,12.6658245 -0.000461666436,12.4884156 0,12.3035695 L0,9.05357057 C0,8.43258863 0.751274259,8.12209767 1.18973393,8.56026716 L2.23988983,9.61071324 L5.35263432,6.5 L2.23959965,3.38638498 L1.18973393,4.43973284 C0.751564437,4.87790233 0,4.56741137 0,3.94642943 L0,0.696430527 C-0.000461666436,0.511584438 0.0727628575,0.334175528 0.203469193,0.203469193 C0.334175528,0.0727628575 0.511584438,-0.000461666436 0.696430527,0 L3.94642943,0 C4.56712119,0 4.87761215,0.751564437 4.43973284,1.18973393 L3.38928676,2.24018001 L6.5,5.35089324 L9.61158377,2.23727822 L8.56026716,1.18973393 C8.12238785,0.751564437 8.43287881,0 9.05357057,0 L12.3035695,0 C12.4884156,-0.000461666436 12.6658245,0.0727628575 12.7965308,0.203469193 C12.9272371,0.334175528 13.0004617,0.511584438 13,0.696430527 L13,3.94642943 C13,4.56741137 12.2487257,4.87790233 11.8102661,4.43973284 L10.7601102,3.38928676 L7.64736568,6.5 L10.7604004,9.61361502 L11.8102661,8.56316895 C12.2484356,8.12209767 13,8.43258863 13,9.05357057 Z" id="Path"></path>
        </g>
    </g>
</svg>