<?xml version="1.0" encoding="UTF-8"?>
<svg width="13px" height="13px" viewBox="0 0 13 13" version="1.1" xmlns="http://www.w3.org/2000/svg" xmlns:xlink="http://www.w3.org/1999/xlink">
    <!-- Generator: Sketch 58 (84663) - https://sketch.com -->
    <title>icons/video-player-icons/expand</title>
    <desc>Created with Sketch.</desc>
    <g id="icons/video-player-icons/expand" stroke="none" stroke-width="1" fill="none" fill-rule="evenodd">
        <g id="expand" fill="#676A6C" fill-rule="nonzero">
            <path d="M0,4.29464286 L0,0.696428571 C0,0.310491071 0.310491071,0 0.696428571,0 L4.29464286,0 C4.48616071,0 4.64285714,0.156696429 4.64285714,0.348214286 L4.64285714,1.50892857 C4.64285714,1.70044643 4.48616071,1.85714286 4.29464286,1.85714286 L1.85714286,1.85714286 L1.85714286,4.29464286 C1.85714286,4.48616071 1.70044643,4.64285714 1.50892857,4.64285714 L0.348214286,4.64285714 C0.156696429,4.64285714 0,4.48616071 0,4.29464286 Z M8.35714286,0.348214286 L8.35714286,1.50892857 C8.35714286,1.70044643 8.51383929,1.85714286 8.70535714,1.85714286 L11.1428571,1.85714286 L11.1428571,4.29464286 C11.1428571,4.48616071 11.2995536,4.64285714 11.4910714,4.64285714 L12.6517857,4.64285714 C12.8433036,4.64285714 13,4.48616071 13,4.29464286 L13,0.696428571 C13,0.310491071 12.6895089,0 12.3035714,0 L8.70535714,0 C8.51383929,0 8.35714286,0.156696429 8.35714286,0.348214286 Z M12.6517857,8.35714286 L11.4910714,8.35714286 C11.2995536,8.35714286 11.1428571,8.51383929 11.1428571,8.70535714 L11.1428571,11.1428571 L8.70535714,11.1428571 C8.51383929,11.1428571 8.35714286,11.2995536 8.35714286,11.4910714 L8.35714286,12.6517857 C8.35714286,12.8433036 8.51383929,13 8.70535714,13 L12.3035714,13 C12.6895089,13 13,12.6895089 13,12.3035714 L13,8.70535714 C13,8.51383929 12.8433036,8.35714286 12.6517857,8.35714286 Z M4.64285714,12.6517857 L4.64285714,11.4910714 C4.64285714,11.2995536 4.48616071,11.1428571 4.29464286,11.1428571 L1.85714286,11.1428571 L1.85714286,8.70535714 C1.85714286,8.51383929 1.70044643,8.35714286 1.50892857,8.35714286 L0.348214286,8.35714286 C0.156696429,8.35714286 0,8.51383929 0,8.70535714 L0,12.3035714 C0,12.6895089 0.310491071,13 0.696428571,13 L4.29464286,13 C4.48616071,13 4.64285714,12.8433036 4.64285714,12.6517857 Z" id="Shape"></path>
        </g>
    </g>
</svg>