<?xml version="1.0" encoding="UTF-8"?>
<svg width="17px" height="13px" viewBox="0 0 17 13" version="1.1" xmlns="http://www.w3.org/2000/svg" xmlns:xlink="http://www.w3.org/1999/xlink">
    <!-- Generator: Sketch 58 (84663) - https://sketch.com -->
    <title>icons/video-player-icons/fast-forward</title>
    <desc>Created with Sketch.</desc>
    <g id="icons/video-player-icons/fast-forward" stroke="none" stroke-width="1" fill="none" fill-rule="evenodd">
        <g id="fast-forward" fill="#676A6C" fill-rule="nonzero">
            <path d="M17,0.406404907 L17,12.5921036 C17,12.8155081 16.8207031,12.9982936 16.6015625,12.9982936 L15.2734375,12.9982936 C15.0542969,12.9982936 14.875,12.8155081 14.875,12.5921036 L14.875,7.45041574 L9.18066406,12.7478098 C8.49667969,13.3300154 7.4375,12.8425874 7.4375,11.9151203 L7.4375,7.45041574 L1.74316406,12.7478098 C1.05917969,13.3300154 0,12.8425874 0,11.9151203 L0,1.08338817 C0,0.155921101 1.05917969,-0.328121931 1.74316406,0.250698757 L7.4375,5.51085869 L7.4375,1.08338817 C7.4375,0.155921101 8.49667969,-0.328121931 9.18066406,0.250698757 L14.875,5.51085869 L14.875,0.406404907 C14.875,0.183000431 15.0542969,0.000214950692 15.2734375,0.000214950692 L16.6015625,0.000214950692 C16.8207031,0.000214950692 17,0.183000431 17,0.406404907 Z" id="Path"></path>
        </g>
    </g>
</svg>