<?xml version="1.0" encoding="UTF-8"?>
<svg width="17px" height="13px" viewBox="0 0 17 13" version="1.1" xmlns="http://www.w3.org/2000/svg" xmlns:xlink="http://www.w3.org/1999/xlink">
    <!-- Generator: Sketch 58 (84663) - https://sketch.com -->
    <title>icons/video-player-icons/fast-backward</title>
    <desc>Created with Sketch.</desc>
    <g id="icons/video-player-icons/fast-backward" stroke="none" stroke-width="1" fill="none" fill-rule="evenodd">
        <g id="fast-backward" fill="#676A6C" fill-rule="nonzero">
            <path d="M0,12.5621762 L0,0.437823834 C0,0.215544041 0.179296875,0.0336787565 0.3984375,0.0336787565 L1.7265625,0.0336787565 C1.94570313,0.0336787565 2.125,0.215544041 2.125,0.437823834 L2.125,5.55362694 L7.81933594,0.282901554 C8.50332031,-0.293005181 9.5625,0.188601036 9.5625,1.11139896 L9.5625,5.55362694 L15.2568359,0.282901554 C15.9408203,-0.293005181 17,0.188601036 17,1.11139896 L17,11.888601 C17,12.811399 15.9408203,13.2930052 15.2568359,12.7170984 L9.5625,7.48678756 L9.5625,11.888601 C9.5625,12.811399 8.50332031,13.2930052 7.81933594,12.7170984 L2.125,7.48678756 L2.125,12.5621762 C2.125,12.784456 1.94570313,12.9663212 1.7265625,12.9663212 L0.3984375,12.9663212 C0.179296875,12.9663212 0,12.784456 0,12.5621762 Z" id="Path"></path>
        </g>
    </g>
</svg>