<?xml version="1.0" encoding="UTF-8"?>
<svg width="13px" height="13px" viewBox="0 0 13 13" version="1.1" xmlns="http://www.w3.org/2000/svg" xmlns:xlink="http://www.w3.org/1999/xlink">
    <!-- Generator: Sketch 58 (84663) - https://sketch.com -->
    <title>icons/video-player-icons/stop-circle</title>
    <desc>Created with Sketch.</desc>
    <g id="icons/video-player-icons/stop-circle" stroke="none" stroke-width="1" fill="none" fill-rule="evenodd">
        <g id="stop-circle" fill="#676A6C" fill-rule="nonzero">
            <path d="M6.5,0 C2.90927419,0 0,2.90927419 0,6.5 C0,10.0907258 2.90927419,13 6.5,13 C10.0907258,13 13,10.0907258 13,6.5 C13,2.90927419 10.0907258,0 6.5,0 Z M9.01612903,8.59677419 C9.01612903,8.82741935 8.82741935,9.01612903 8.59677419,9.01612903 L4.40322581,9.01612903 C4.17258065,9.01612903 3.98387097,8.82741935 3.98387097,8.59677419 L3.98387097,4.40322581 C3.98387097,4.17258065 4.17258065,3.98387097 4.40322581,3.98387097 L8.59677419,3.98387097 C8.82741935,3.98387097 9.01612903,4.17258065 9.01612903,4.40322581 L9.01612903,8.59677419 Z" id="Shape"></path>
        </g>
    </g>
</svg>