<?xml version="1.0" encoding="UTF-8"?>
<svg width="13px" height="13px" viewBox="0 0 13 13" version="1.1" xmlns="http://www.w3.org/2000/svg" xmlns:xlink="http://www.w3.org/1999/xlink">
    <!-- Generator: Sketch 58 (84663) - https://sketch.com -->
    <title>icons/video-player-icons/youtube-square</title>
    <desc>Created with Sketch.</desc>
    <g id="icons/video-player-icons/youtube-square" stroke="none" stroke-width="1" fill="none" fill-rule="evenodd">
        <g id="youtube-square" fill="#676A6C" fill-rule="nonzero">
            <path d="M5.42053571,4.9359375 L8.18303571,6.50580357 L5.42053571,8.07566964 L5.42053571,4.9359375 Z M13,1.39285714 L13,11.6071429 C13,12.3761161 12.3761161,13 11.6071429,13 L1.39285714,13 C0.623883929,13 0,12.3761161 0,11.6071429 L0,1.39285714 C0,0.623883929 0.623883929,0 1.39285714,0 L11.6071429,0 C12.3761161,0 13,0.623883929 13,1.39285714 Z M11.78125,6.50870536 C11.78125,6.50870536 11.78125,4.77924107 11.5607143,3.94933036 C11.4388393,3.49084821 11.0819196,3.13102679 10.6263393,3.00915179 C9.80513393,2.78571429 6.5,2.78571429 6.5,2.78571429 C6.5,2.78571429 3.19486607,2.78571429 2.37366071,3.00915179 C1.91808036,3.13102679 1.56116071,3.49084821 1.43928571,3.94933036 C1.21875,4.77633929 1.21875,6.50870536 1.21875,6.50870536 C1.21875,6.50870536 1.21875,8.23816964 1.43928571,9.06808036 C1.56116071,9.5265625 1.91808036,9.871875 2.37366071,9.99375 C3.19486607,10.2142857 6.5,10.2142857 6.5,10.2142857 C6.5,10.2142857 9.80513393,10.2142857 10.6263393,9.99084821 C11.0819196,9.86897321 11.4388393,9.52366071 11.5607143,9.06517857 C11.78125,8.23816964 11.78125,6.50870536 11.78125,6.50870536 L11.78125,6.50870536 Z" id="Shape"></path>
        </g>
    </g>
</svg>