<?xml version="1.0" encoding="UTF-8"?>
<svg width="1618px" height="263px" viewBox="0 0 1618 263" version="1.1" xmlns="http://www.w3.org/2000/svg" xmlns:xlink="http://www.w3.org/1999/xlink">
    <!-- Generator: Sketch 58 (84663) - https://sketch.com -->
    <title>logo-word-mark_white-deep-sea-blue@3x</title>
    <desc>Created with Sketch.</desc>
    <defs>
        <polygon id="path-1" points="0.048811237 0.622698769 186.640858 0.622698769 186.640858 256.868421 0.048811237 256.868421"></polygon>
    </defs>
    <g id="logo-word-mark_white-deep-sea-blue" stroke="none" stroke-width="1" fill="none" fill-rule="evenodd">
        <g id="Group-18">
            <g id="Group-3" transform="translate(338.000000, 6.000000)">
                <mask id="mask-2" fill="white">
                    <use xlink:href="#path-1"></use>
                </mask>
                <g id="Clip-2"></g>
                <path d="M186.640858,182.589117 C186.640858,196.451726 184.175103,208.085379 179.251896,217.50665 C174.324538,226.923778 167.649565,234.567685 159.222828,240.430085 C150.791939,246.292485 140.970431,250.501813 129.754153,253.045639 C118.537874,255.593608 106.636664,256.869664 94.0546731,256.869664 C80.7586926,256.869664 69.127304,255.622609 59.1563564,253.132643 C49.1895599,250.646819 40.4639429,247.270242 32.9836566,243.007055 C25.5075214,238.743868 19.1272773,233.768078 13.8470752,228.079686 C8.56272198,222.391293 3.96330067,216.29274 0.048811237,209.775739 L32.8051592,186.139701 C35.7731973,190.763333 39.0650214,195.113524 42.6889337,199.202703 C46.3086949,203.291883 50.5220637,206.871469 55.3290401,209.95389 C60.1360165,213.036311 65.7483068,215.493133 72.1576087,217.328499 C78.5669106,219.168009 85.9807792,220.08362 94.4116679,220.08362 C100.700588,220.08362 106.844219,219.491166 112.842562,218.306256 C118.832603,217.12549 124.146013,215.165833 128.778644,212.439713 C133.407123,209.717737 137.109906,206.163009 139.903598,201.779674 C142.688987,197.396338 144.087909,191.948242 144.087909,185.431242 C144.087909,179.270543 142.751254,174.120745 140.082095,169.96942 C137.412936,165.826381 133.818082,162.329656 129.305834,159.487531 C124.797737,156.641263 119.517534,154.275588 113.461076,152.378076 C107.408769,150.484707 100.937201,148.649341 94.0546731,146.871977 C81.4726822,143.669408 69.7831782,140.379835 58.9820101,137.007401 C48.180842,133.630824 38.7993509,129.338636 30.84999,124.126693 C22.8964781,118.91475 16.6324648,112.277601 12.0621012,104.223533 C7.4958887,96.1694653 5.20863135,85.8574411 5.20863135,73.2998898 C5.20863135,62.1675438 7.10568509,52.1289602 10.9080948,43.1841389 C14.7063533,34.2351746 20.2854348,26.5995536 27.641188,20.2565608 C35.0052434,13.9218541 44.1750283,9.06206931 55.1505427,5.68549249 C66.1302082,2.30891566 78.745408,0.622698769 92.9836888,0.622698769 C103.672777,0.622698769 113.432019,1.59631295 122.273866,3.55182738 C131.115714,5.50734181 139.131493,8.3494666 146.3129,12.0864878 C153.494306,15.815223 159.932666,20.4347115 165.627978,25.9408104 C171.331593,31.4551954 176.312916,37.7028983 180.588551,44.6922051 L148.359393,68.6804012 C141.829709,58.256515 134.116961,50.4427433 125.212847,45.2266572 C116.312883,40.014714 105.449449,37.4045994 92.6349962,37.4045994 C78.745408,37.4045994 67.7325337,40.2508673 59.6005243,45.9351169 C51.468515,51.6235095 47.408737,59.6775774 47.408737,70.1056067 C47.408737,75.3175498 48.504628,79.6718838 50.7005611,83.1644657 C52.8964942,86.6611907 56.2796425,89.7104674 60.8500061,92.316439 C65.4203697,94.9224106 71.1779486,97.2632276 78.1185915,99.3347472 C85.0633856,101.406267 93.2825681,103.573076 102.78029,105.822746 C110.136043,107.595967 117.292544,109.493479 124.237338,111.506996 C131.177981,113.524656 137.769931,115.86133 144.000736,118.525304 C150.23154,121.193421 155.951759,124.329702 161.177997,127.946575 C166.400083,131.563448 170.883274,135.913639 174.619266,141.005434 C178.36356,146.101372 181.298389,152.054919 183.436207,158.861932 C185.569874,165.677231 186.640858,173.586293 186.640858,182.589117" id="Fill-1" fill="#183460" mask="url(#mask-2)"></path>
            </g>
            <path d="M811,215.954842 C806.733068,222.585701 801.902187,228.769535 796.507358,234.502207 C791.108383,240.247296 784.768111,245.218371 777.474104,249.41957 C770.184243,253.62077 761.671111,256.936199 751.955444,259.357581 C742.227336,261.783101 730.906903,263 717.981706,263 C680.392064,263 652.497358,252.345923 634.301732,231.046048 C616.097813,209.737894 607,177.725994 607,134.99793 C607,92.0380766 616.12684,59.9599508 634.388812,38.7718314 C652.646638,17.5878511 679.92349,7 716.206927,7 C728.655257,7 739.681275,8.15067341 749.284983,10.4602985 C758.892837,12.7657844 767.368648,15.936345 774.720709,19.9554237 C782.068623,23.9827806 788.384015,28.7468997 793.65859,34.25192 C798.937312,39.7528012 803.473778,45.6965674 807.267989,52.091497 L774.185787,76.0569613 C771.57338,72.0337435 768.699732,68.0684732 765.560696,64.1611505 C762.413367,60.257967 758.623303,56.7935294 754.178063,53.776116 C749.732824,50.7587026 744.483129,48.3331824 738.437271,46.4995554 C732.387267,44.6617892 725.213513,43.7470452 716.916009,43.7470452 C693.79413,43.7470452 676.838361,51.3795696 666.048703,66.6487575 C655.254899,81.9138062 649.864217,104.699623 649.864217,134.99793 C649.864217,151.214975 651.311407,165.060308 654.218229,176.542208 C657.125051,188.024107 661.425157,197.461285 667.1144,204.85788 C672.807789,212.254475 679.86129,217.668434 688.279047,221.099759 C696.700951,224.535223 706.362712,226.248816 717.268477,226.248816 C725.449874,226.248816 732.627775,225.358906 738.793886,223.587366 C744.95585,221.811687 750.379706,219.41514 755.065452,216.393588 C759.751199,213.380313 763.868851,209.828954 767.426701,205.74365 C770.984552,201.662484 774.301894,197.312277 777.387023,192.697166 L811,215.954842 Z" id="Fill-4" fill="#183460"></path>
            <polygon id="Fill-6" fill="#183460" points="896 257 896 11 1051 11 1051 47.97335 937.416769 47.97335 937.416769 110.358108 1033.93848 110.358108 1033.93848 147.509653 937.416769 147.509653 937.416769 219.13982 1051 219.13982 1051 257"></polygon>
            <polygon id="Fill-8" fill="#183460" points="1283.92674 257 1184.21092 63.7912469 1184.21092 257 1144 257 1144 11 1200.14745 11 1292.78908 190.6991 1292.78908 11 1333 11 1333 257"></polygon>
            <polygon id="Fill-10" fill="#183460" points="1539.72573 48.8636861 1539.72573 257 1498.28253 257 1498.28253 48.8636861 1420 48.8636861 1420 11 1618 11 1618 48.8636861"></polygon>
            <path d="M265.739015,97.3267989 C261.295247,97.1199642 256.82649,97 252.32858,97 C235.882056,97 219.664592,98.4023397 203.821954,101.124285 C191.177829,103.300187 178.771095,106.332385 166.668385,110.162965 C147.21909,116.318367 128.569423,124.579348 110.990091,134.788712 C80.4001393,152.547546 53.071172,176.197033 30.5649636,205.038073 C27.3831088,209.116855 24.3470197,213.290781 21.4067193,217.526757 L20.4904784,217.526757 L15.1929401,226.644033 L15.2845642,226.69781 C9.66217681,235.517245 4.57287506,244.638658 0,254 L41.5390308,254 C46.9406874,244.771033 52.962889,235.873001 59.5889766,227.384502 C62.2169221,224.013095 64.9364917,220.732696 67.7143675,217.526757 C94.6435207,186.447764 128.357021,163.149896 165.914569,149.060311 C162.986763,152.088372 160.213052,155.257081 157.510141,158.48784 C143.10017,175.708903 131.905372,195.668458 125.000248,217.526757 C121.310296,229.204648 118.857269,241.416173 117.724462,254 L154.623982,254 L156.210745,254 C157.28941,243.368693 159.271822,233.006271 162.008051,222.954101 C162.670243,221.138092 163.299118,219.305536 164.03211,217.526757 L163.561496,217.526757 C170.225066,195.622955 180.666047,175.349011 194.172271,157.47435 C199.707199,150.148262 205.754389,143.219298 212.2597,136.745369 C214.833504,134.188892 217.494767,131.723421 220.206007,129.311728 C233.999597,117.042289 249.550704,106.688141 266.455349,98.6877717 C267.296625,98.290649 268.15456,97.9307565 269,97.5460438 C267.90884,97.4839934 266.830175,97.3764393 265.739015,97.3267989" id="Fill-12" fill="#FFFFFF"></path>
            <path d="M204,99.5426798 L146.583112,0 L22,216 L22.9054726,216 C25.8244849,211.762028 28.8385924,207.586136 31.9974102,203.505432 C54.3406711,174.650802 81.4717736,150.986032 111.840251,133.218831 L146.583112,72.9849974 L167.119562,108.585618 C179.134646,104.749095 191.44742,101.719607 204,99.5426798" id="Fill-14" fill="#183460"></path>
            <path d="M229.187311,145.234515 L222.653392,133.838835 L219.304037,128 C216.622082,130.417643 213.989563,132.893342 211.443559,135.456126 C205.008514,141.941877 199.026641,148.887934 193.551497,156.232094 L199.109036,165.927545 L228.079099,216.432638 L163.736885,216.432638 C163.01181,218.215805 162.389728,220.052881 161.734688,221.87337 C159.028014,231.950337 157.067015,242.338321 156,253 L291,253 L229.187311,145.234515 Z" id="Fill-16" fill="#183460"></path>
        </g>
    </g>
</svg>