<?xml version="1.0" encoding="UTF-8"?>
<svg width="94px" height="29px" viewBox="0 0 94 29" version="1.1" xmlns="http://www.w3.org/2000/svg" xmlns:xlink="http://www.w3.org/1999/xlink">
    <!-- Generator: Sketch 58 (84663) - https://sketch.com -->
    <title>buttons/rounded/nested/hover/primary / small</title>
    <desc>Created with Sketch.</desc>
    <g id="buttons/rounded/nested/hover/primary-/-small" stroke="none" stroke-width="1" fill="none" fill-rule="evenodd">
        <g id="buttons/normal/nested/primary/small">
            <g id="Group-4">
                <rect id="Rectangle-Copy" fill="#18A083" x="0" y="0" width="94" height="29" rx="3"></rect>
                <g id="Group-3" transform="translate(22.000000, 5.000000)" fill="#FFFFFF">
                    <text id="Small" font-family="OpenSans-Regular, Open Sans" font-size="12.8" font-weight="normal" letter-spacing="0.100219648">
                        <tspan x="17.4869509" y="14">Small</tspan>
                    </text>
                    <g id="icons/web-application/download" transform="translate(0.000000, 3.000000)" fill-rule="nonzero">
                        <path d="M5.484375,0 L7.515625,0 C7.85332031,0 8.125,0.271679687 8.125,0.609375 L8.125,4.875 L10.3517578,4.875 C10.8037109,4.875 11.0296875,5.42089844 10.7097656,5.74082031 L6.84785156,9.60527344 C6.65742187,9.79570313 6.34511719,9.79570313 6.1546875,9.60527344 L2.28769531,5.74082031 C1.96777344,5.42089844 2.19375,4.875 2.64570313,4.875 L4.875,4.875 L4.875,0.609375 C4.875,0.271679687 5.14667969,0 5.484375,0 Z M13,9.546875 L13,12.390625 C13,12.7283203 12.7283203,13 12.390625,13 L0.609375,13 C0.271679687,13 0,12.7283203 0,12.390625 L0,9.546875 C0,9.20917969 0.271679687,8.9375 0.609375,8.9375 L4.33417969,8.9375 L5.57832031,10.1816406 C6.08867187,10.6919922 6.91132812,10.6919922 7.42167969,10.1816406 L8.66582031,8.9375 L12.390625,8.9375 C12.7283203,8.9375 13,9.20917969 13,9.546875 Z M9.8515625,11.78125 C9.8515625,11.5019531 9.62304688,11.2734375 9.34375,11.2734375 C9.06445312,11.2734375 8.8359375,11.5019531 8.8359375,11.78125 C8.8359375,12.0605469 9.06445312,12.2890625 9.34375,12.2890625 C9.62304688,12.2890625 9.8515625,12.0605469 9.8515625,11.78125 Z M11.4765625,11.78125 C11.4765625,11.5019531 11.2480469,11.2734375 10.96875,11.2734375 C10.6894531,11.2734375 10.4609375,11.5019531 10.4609375,11.78125 C10.4609375,12.0605469 10.6894531,12.2890625 10.96875,12.2890625 C11.2480469,12.2890625 11.4765625,12.0605469 11.4765625,11.78125 Z" id="Shape"></path>
                    </g>
                </g>
            </g>
        </g>
    </g>
</svg>