<?xml version="1.0" encoding="UTF-8"?>
<svg width="13px" height="13px" viewBox="0 0 13 13" version="1.1" xmlns="http://www.w3.org/2000/svg" xmlns:xlink="http://www.w3.org/1999/xlink">
    <!-- Generator: Sketch 58 (84663) - https://sketch.com -->
    <title>icons/directional-icons/angle-double-down</title>
    <desc>Created with Sketch.</desc>
    <g id="icons/directional-icons/angle-double-down" stroke="none" stroke-width="1" fill="none" fill-rule="evenodd">
        <g id="angle-double-down" fill="#676A6C" fill-rule="nonzero">
            <path d="M4.47204969,6.50975 L0.248447205,2.08975 C-0.0434782609,1.78425 -0.0434782609,1.29025 0.248447205,0.988 L0.950310559,0.2535 C1.24223602,-0.052 1.71428571,-0.052 2.00310559,0.2535 L4.99689441,3.3865 L7.99068323,0.2535 C8.2826087,-0.052 8.75465839,-0.052 9.04347826,0.2535 L9.7515528,0.98475 C10.0434783,1.29025 10.0434783,1.78425 9.7515528,2.0865 L5.52795031,6.5065 C5.23602484,6.81525 4.76397516,6.81525 4.47204969,6.50975 Z M5.52795031,12.74975 L9.7515528,8.32975 C10.0434783,8.02425 10.0434783,7.53025 9.7515528,7.228 L9.04968944,6.4935 C8.75776398,6.188 8.28571429,6.188 7.99689441,6.4935 L5,9.62325 L2.00621118,6.49025 C1.71428571,6.18475 1.24223602,6.18475 0.953416149,6.49025 L0.248447205,7.22475 C-0.0434782609,7.53025 -0.0434782609,8.02425 0.248447205,8.3265 L4.47204969,12.7465 C4.76397516,13.05525 5.23602484,13.05525 5.52795031,12.74975 Z" id="Shape"></path>
        </g>
    </g>
</svg>