<?xml version="1.0" encoding="UTF-8"?>
<svg width="13px" height="13px" viewBox="0 0 13 13" version="1.1" xmlns="http://www.w3.org/2000/svg" xmlns:xlink="http://www.w3.org/1999/xlink">
    <!-- Generator: Sketch 58 (84663) - https://sketch.com -->
    <title>icons/directional-icons/angle-double-left</title>
    <desc>Created with Sketch.</desc>
    <g id="icons/directional-icons/angle-double-left" stroke="none" stroke-width="1" fill="none" fill-rule="evenodd">
        <g id="angle-double-left" fill="#676A6C" fill-rule="nonzero">
            <path d="M6.49025,4.47204969 L10.91025,0.248447205 C11.21575,-0.0434782609 11.70975,-0.0434782609 12.012,0.248447205 L12.7465,0.950310559 C13.052,1.24223602 13.052,1.71428571 12.7465,2.00310559 L9.61675,5 L12.74975,7.99378882 C13.05525,8.28571429 13.05525,8.75776398 12.74975,9.04658385 L12.01525,9.7515528 C11.70975,10.0434783 11.21575,10.0434783 10.9135,9.7515528 L6.4935,5.52795031 C6.18475,5.23602484 6.18475,4.76397516 6.49025,4.47204969 L6.49025,4.47204969 Z M0.25025,5.52795031 L4.67025,9.7515528 C4.97575,10.0434783 5.46975,10.0434783 5.772,9.7515528 L6.5065,9.04968944 C6.812,8.75776398 6.812,8.28571429 6.5065,7.99689441 L3.37675,5 L6.50975,2.00621118 C6.81525,1.71428571 6.81525,1.24223602 6.50975,0.953416149 L5.77525,0.248447205 C5.46975,-0.0434782609 4.97575,-0.0434782609 4.6735,0.248447205 L0.2535,4.47204969 C-0.05525,4.76397516 -0.05525,5.23602484 0.25025,5.52795031 Z" id="Shape"></path>
        </g>
    </g>
</svg>