<?xml version="1.0" encoding="UTF-8"?>
<svg width="13px" height="13px" viewBox="0 0 13 13" version="1.1" xmlns="http://www.w3.org/2000/svg" xmlns:xlink="http://www.w3.org/1999/xlink">
    <!-- Generator: Sketch 58 (84663) - https://sketch.com -->
    <title>icons/directional-icons/angle-double-right</title>
    <desc>Created with Sketch.</desc>
    <g id="icons/directional-icons/angle-double-right" stroke="none" stroke-width="1" fill="none" fill-rule="evenodd">
        <g id="angle-double-right" fill="#676A6C" fill-rule="nonzero">
            <path d="M6.50975,5.52795031 L2.08975,9.7515528 C1.78425,10.0434783 1.29025,10.0434783 0.988,9.7515528 L0.2535,9.04968944 C-0.052,8.75776398 -0.052,8.28571429 0.2535,7.99689441 L3.3865,5.00310559 L0.2535,2.00931677 C-0.052,1.7173913 -0.052,1.24534161 0.2535,0.956521739 L0.98475,0.248447205 C1.29025,-0.0434782609 1.78425,-0.0434782609 2.0865,0.248447205 L6.5065,4.47204969 C6.81525,4.76397516 6.81525,5.23602484 6.50975,5.52795031 L6.50975,5.52795031 Z M12.74975,4.47204969 L8.32975,0.248447205 C8.02425,-0.0434782609 7.53025,-0.0434782609 7.228,0.248447205 L6.4935,0.950310559 C6.188,1.24223602 6.188,1.71428571 6.4935,2.00310559 L9.6265,4.99689441 L6.4935,7.99068323 C6.188,8.2826087 6.188,8.75465839 6.4935,9.04347826 L7.228,9.74534161 C7.5335,10.0372671 8.0275,10.0372671 8.32975,9.74534161 L12.74975,5.52173913 C13.05525,5.23602484 13.05525,4.76397516 12.74975,4.47204969 Z" id="Shape"></path>
        </g>
    </g>
</svg>