<?xml version="1.0" encoding="UTF-8"?>
<svg width="13px" height="13px" viewBox="0 0 13 13" version="1.1" xmlns="http://www.w3.org/2000/svg" xmlns:xlink="http://www.w3.org/1999/xlink">
    <!-- Generator: Sketch 58 (84663) - https://sketch.com -->
    <title>icons/directional-icons/angle-double-up</title>
    <desc>Created with Sketch.</desc>
    <g id="icons/directional-icons/angle-double-up" stroke="none" stroke-width="1" fill="none" fill-rule="evenodd">
        <g id="angle-double-up" fill="#676A6C" fill-rule="nonzero">
            <path d="M5.52795031,6.49025 L9.7515528,10.91025 C10.0434783,11.21575 10.0434783,11.70975 9.7515528,12.012 L9.04968944,12.7465 C8.75776398,13.052 8.28571429,13.052 7.99689441,12.7465 L5,9.61675 L2.00621118,12.74975 C1.71428571,13.05525 1.24223602,13.05525 0.953416149,12.74975 L0.248447205,12.01525 C-0.0434782609,11.70975 -0.0434782609,11.21575 0.248447205,10.9135 L4.47204969,6.4935 C4.76397516,6.18475 5.23602484,6.18475 5.52795031,6.49025 Z M4.47204969,0.25025 L0.248447205,4.67025 C-0.0434782609,4.97575 -0.0434782609,5.46975 0.248447205,5.772 L0.950310559,6.5065 C1.24223602,6.812 1.71428571,6.812 2.00310559,6.5065 L4.99689441,3.3735 L7.99068323,6.5065 C8.2826087,6.812 8.75465839,6.812 9.04347826,6.5065 L9.74534161,5.772 C10.0372671,5.4665 10.0372671,4.9725 9.74534161,4.67025 L5.52173913,0.25025 C5.23602484,-0.05525 4.76397516,-0.05525 4.47204969,0.25025 Z" id="Shape"></path>
        </g>
    </g>
</svg>