<?xml version="1.0" encoding="UTF-8"?>
<svg width="13px" height="13px" viewBox="0 0 13 13" version="1.1" xmlns="http://www.w3.org/2000/svg" xmlns:xlink="http://www.w3.org/1999/xlink">
    <!-- Generator: Sketch 58 (84663) - https://sketch.com -->
    <title>icons/directional-icons/arrow-up</title>
    <desc>Created with Sketch.</desc>
    <g id="icons/directional-icons/arrow-up" stroke="none" stroke-width="1" fill="none" fill-rule="evenodd">
        <g id="arrow-up" fill="#676A6C" fill-rule="nonzero">
            <path d="M0.887442922,7.4844098 L0.228538813,6.84164811 C-0.050456621,6.56948775 -0.050456621,6.12939866 0.228538813,5.86013363 L5.99543379,0.231625835 C6.27442922,-0.0405345212 6.72557078,-0.0405345212 7.00159817,0.231625835 L12.7684932,5.85723831 C13.0474886,6.12939866 13.0474886,6.56948775 12.7684932,6.83875278 L12.109589,7.48151448 C11.8276256,7.75657016 11.3675799,7.75077951 11.0915525,7.46993318 L7.68721461,3.98396437 L7.68721461,12.3051225 C7.68721461,12.6902004 7.3696347,13 6.97488584,13 L6.02511416,13 C5.6303653,13 5.31278539,12.6902004 5.31278539,12.3051225 L5.31278539,3.98396437 L1.90547945,7.47282851 C1.62945205,7.75657016 1.16940639,7.7623608 0.887442922,7.4844098 Z" id="Path"></path>
        </g>
    </g>
</svg>