<?xml version="1.0" encoding="UTF-8"?>
<svg width="13px" height="13px" viewBox="0 0 13 13" version="1.1" xmlns="http://www.w3.org/2000/svg" xmlns:xlink="http://www.w3.org/1999/xlink">
    <!-- Generator: Sketch 58 (84663) - https://sketch.com -->
    <title>icons/directional-icons/arrows-alt-h</title>
    <desc>Created with Sketch.</desc>
    <g id="icons/directional-icons/arrows-alt-h" stroke="none" stroke-width="1" fill="none" fill-rule="evenodd">
        <g id="arrows-alt-h" transform="translate(0.000000, -0.000000)" fill="#676A6C" fill-rule="nonzero">
            <path d="M9.58411089,0.674081081 L9.58411089,1.91891892 L3.41588911,1.91891892 L3.41588911,0.674081081 C3.41588911,0.0961891892 2.76207004,-0.193216216 2.37965759,0.215405405 L0.203068093,2.54132432 C-0.0339922179,2.79464865 -0.0339922179,3.20532432 0.203068093,3.45864865 L2.37965759,5.78456757 C2.76204475,6.19318919 3.41588911,5.90378378 3.41588911,5.32589189 L3.41588911,4.08108108 L9.58411089,4.08108108 L9.58411089,5.32591892 C9.58411089,5.90381081 10.23793,6.19321622 10.6203424,5.78459459 L12.7969319,3.45867568 C13.0339922,3.20535135 13.0339922,2.79467568 12.7969319,2.54135135 L10.6203424,0.215432432 C10.2379553,-0.193216216 9.58411089,0.0961891892 9.58411089,0.674081081 Z" id="Path"></path>
        </g>
    </g>
</svg>