<?xml version="1.0" encoding="UTF-8"?>
<svg width="13px" height="13px" viewBox="0 0 13 13" version="1.1" xmlns="http://www.w3.org/2000/svg" xmlns:xlink="http://www.w3.org/1999/xlink">
    <!-- Generator: Sketch 58 (84663) - https://sketch.com -->
    <title>icons/directional-icons/arrow-circle-up</title>
    <desc>Created with Sketch.</desc>
    <g id="icons/directional-icons/arrow-circle-up" stroke="none" stroke-width="1" fill="none" fill-rule="evenodd">
        <g id="arrow-circle-up" fill="#676A6C" fill-rule="nonzero">
            <path d="M0,6.5 C0,2.90927419 2.90927419,0 6.5,0 C10.0907258,0 13,2.90927419 13,6.5 C13,10.0907258 10.0907258,13 6.5,13 C2.90927419,13 0,10.0907258 0,6.5 Z M3.76370968,7.25745968 L5.66129032,5.27862903 L5.66129032,10.0645161 C5.66129032,10.4131048 5.94173387,10.6935484 6.29032258,10.6935484 L6.70967742,10.6935484 C7.05826613,10.6935484 7.33870968,10.4131048 7.33870968,10.0645161 L7.33870968,5.27862903 L9.23629032,7.25745968 C9.48004032,7.51169355 9.88629032,7.51693548 10.1352823,7.26794355 L10.4209677,6.9796371 C10.6673387,6.73326613 10.6673387,6.33487903 10.4209677,6.09112903 L6.94556452,2.61310484 C6.69919355,2.36673387 6.30080645,2.36673387 6.05705645,2.61310484 L2.57641129,6.09112903 C2.33004032,6.3375 2.33004032,6.7358871 2.57641129,6.9796371 L2.86209677,7.26794355 C3.11370968,7.51693548 3.51995968,7.51169355 3.76370968,7.25745968 L3.76370968,7.25745968 Z" id="Shape"></path>
        </g>
    </g>
</svg>