<?xml version="1.0" encoding="UTF-8"?>
<svg width="13px" height="13px" viewBox="0 0 13 13" version="1.1" xmlns="http://www.w3.org/2000/svg" xmlns:xlink="http://www.w3.org/1999/xlink">
    <!-- Generator: Sketch 58 (84663) - https://sketch.com -->
    <title>icons/directional-icons/arrows-alt-v</title>
    <desc>Created with Sketch.</desc>
    <g id="icons/directional-icons/arrows-alt-v" stroke="none" stroke-width="1" fill="none" fill-rule="evenodd">
        <g id="arrows-alt-v" transform="translate(4.000000, -0.000000)" fill="#676A6C" fill-rule="nonzero">
            <path d="M5.30179552,9.58411089 L4.05695769,9.58411089 L4.05695769,3.41588911 L5.30179552,3.41588911 C5.87968742,3.41588911 6.16909282,2.76207004 5.7604712,2.37965759 L3.43455228,0.203068093 C3.18122796,-0.0339922179 2.77055228,-0.0339922179 2.51722796,0.203068093 L0.191309037,2.37965759 C-0.217312585,2.76204475 0.0720928209,3.41588911 0.649984713,3.41588911 L1.89479552,3.41588911 L1.89479552,9.58411089 L0.649957686,9.58411089 C0.0720657939,9.58411089 -0.217339612,10.23793 0.19128201,10.6203424 L2.51720093,12.7969319 C2.77052525,13.0339922 3.18120093,13.0339922 3.43452525,12.7969319 L5.76044417,10.6203424 C6.16909282,10.2379553 5.87968742,9.58411089 5.30179552,9.58411089 Z" id="Path"></path>
        </g>
    </g>
</svg>