<?xml version="1.0" encoding="UTF-8"?>
<svg width="13px" height="13px" viewBox="0 0 13 13" version="1.1" xmlns="http://www.w3.org/2000/svg" xmlns:xlink="http://www.w3.org/1999/xlink">
    <!-- Generator: Sketch 58 (84663) - https://sketch.com -->
    <title>icons/directional-icons/arrow-right</title>
    <desc>Created with Sketch.</desc>
    <g id="icons/directional-icons/arrow-right" stroke="none" stroke-width="1" fill="none" fill-rule="evenodd">
        <g id="arrow-right" fill="#676A6C" fill-rule="nonzero">
            <path d="M5.5155902,0.887442922 L6.15835189,0.228538813 C6.43051225,-0.050456621 6.87060134,-0.050456621 7.13986637,0.228538813 L12.7683742,5.99543379 C13.0405345,6.27442922 13.0405345,6.72557078 12.7683742,7.00159817 L7.13986637,12.7714612 C6.86770601,13.0504566 6.42761693,13.0504566 6.15835189,12.7714612 L5.5155902,12.1125571 C5.24053452,11.8305936 5.24632517,11.3705479 5.52717149,11.0945205 L9.01603563,7.68721461 L0.694877506,7.68721461 C0.309799555,7.68721461 0,7.3696347 0,6.97488584 L0,6.02511416 C0,5.6303653 0.309799555,5.31278539 0.694877506,5.31278539 L9.01603563,5.31278539 L5.52717149,1.90547945 C5.24342984,1.62945205 5.2376392,1.16940639 5.5155902,0.887442922 Z" id="Path"></path>
        </g>
    </g>
</svg>