<?xml version="1.0" encoding="UTF-8"?>
<svg width="13px" height="13px" viewBox="0 0 13 13" version="1.1" xmlns="http://www.w3.org/2000/svg" xmlns:xlink="http://www.w3.org/1999/xlink">
    <!-- Generator: Sketch 58 (84663) - https://sketch.com -->
    <title>icons/directional-icons/arrow-circle-left</title>
    <desc>Created with Sketch.</desc>
    <g id="icons/directional-icons/arrow-circle-left" stroke="none" stroke-width="1" fill="none" fill-rule="evenodd">
        <g id="arrow-circle-left" fill="#676A6C" fill-rule="nonzero">
            <path d="M6.5,13 C2.90927419,13 0,10.0907258 0,6.5 C0,2.90927419 2.90927419,0 6.5,0 C10.0907258,0 13,2.90927419 13,6.5 C13,10.0907258 10.0907258,13 6.5,13 Z M7.25745968,9.23629032 L5.27862903,7.33870968 L10.0645161,7.33870968 C10.4131048,7.33870968 10.6935484,7.05826613 10.6935484,6.70967742 L10.6935484,6.29032258 C10.6935484,5.94173387 10.4131048,5.66129032 10.0645161,5.66129032 L5.27862903,5.66129032 L7.25745968,3.76370968 C7.51169355,3.51995968 7.51693548,3.11370968 7.26794355,2.86471774 L6.9796371,2.57903226 C6.73326613,2.33266129 6.33487903,2.33266129 6.09112903,2.57903226 L2.61310484,6.05443548 C2.36673387,6.30080645 2.36673387,6.69919355 2.61310484,6.94294355 L6.09112903,10.4209677 C6.3375,10.6673387 6.7358871,10.6673387 6.9796371,10.4209677 L7.26794355,10.1352823 C7.51693548,9.88629032 7.51169355,9.48004032 7.25745968,9.23629032 Z" id="Shape"></path>
        </g>
    </g>
</svg>