<?xml version="1.0" encoding="UTF-8"?>
<svg width="13px" height="13px" viewBox="0 0 13 13" version="1.1" xmlns="http://www.w3.org/2000/svg" xmlns:xlink="http://www.w3.org/1999/xlink">
    <!-- Generator: Sketch 58 (84663) - https://sketch.com -->
    <title>icons/directional-icons/arrow-o-circle-down</title>
    <desc>Created with Sketch.</desc>
    <g id="icons/directional-icons/arrow-o-circle-down" stroke="none" stroke-width="1" fill="none" fill-rule="evenodd">
        <g id="arrow-alt-circle-down" fill="#676A6C" fill-rule="nonzero">
            <path d="M6.5,0 C2.90927419,0 0,2.90927419 0,6.5 C0,10.0907258 2.90927419,13 6.5,13 C10.0907258,13 13,10.0907258 13,6.5 C13,2.90927419 10.0907258,0 6.5,0 Z M6.5,11.7419355 C3.60383065,11.7419355 1.25806452,9.39616935 1.25806452,6.5 C1.25806452,3.60383065 3.60383065,1.25806452 6.5,1.25806452 C9.39616935,1.25806452 11.7419355,3.60383065 11.7419355,6.5 C11.7419355,9.39616935 9.39616935,11.7419355 6.5,11.7419355 Z M5.66129032,3.45967742 L5.66129032,6.5 L3.90524194,6.5 C3.62479839,6.5 3.4858871,6.83810484 3.68245968,7.03729839 L6.27721774,9.63205645 C6.40040323,9.75524194 6.59959677,9.75524194 6.72278226,9.63205645 L9.31754032,7.03729839 C9.51673387,6.83810484 9.37520161,6.5 9.09475806,6.5 L7.33870968,6.5 L7.33870968,3.45967742 C7.33870968,3.28669355 7.19717742,3.14516129 7.02419355,3.14516129 L5.97580645,3.14516129 C5.80282258,3.14516129 5.66129032,3.28669355 5.66129032,3.45967742 Z" id="Shape"></path>
        </g>
    </g>
</svg>