<?xml version="1.0" encoding="UTF-8"?>
<svg width="13px" height="13px" viewBox="0 0 13 13" version="1.1" xmlns="http://www.w3.org/2000/svg" xmlns:xlink="http://www.w3.org/1999/xlink">
    <!-- Generator: Sketch 58 (84663) - https://sketch.com -->
    <title>icons/directional-icons/arrow-circle-down</title>
    <desc>Created with Sketch.</desc>
    <g id="icons/directional-icons/arrow-circle-down" stroke="none" stroke-width="1" fill="none" fill-rule="evenodd">
        <g id="arrow-circle-down" fill="#676A6C" fill-rule="nonzero">
            <path d="M13,6.5 C13,10.0907258 10.0907258,13 6.5,13 C2.90927419,13 0,10.0907258 0,6.5 C0,2.90927419 2.90927419,0 6.5,0 C10.0907258,0 13,2.90927419 13,6.5 Z M9.23629032,5.74254032 L7.33870968,7.72137097 L7.33870968,2.93548387 C7.33870968,2.58689516 7.05826613,2.30645161 6.70967742,2.30645161 L6.29032258,2.30645161 C5.94173387,2.30645161 5.66129032,2.58689516 5.66129032,2.93548387 L5.66129032,7.72137097 L3.76370968,5.74254032 C3.51995968,5.48830645 3.11370968,5.48306452 2.86471774,5.73205645 L2.57903226,6.0203629 C2.33266129,6.26673387 2.33266129,6.66512097 2.57903226,6.90887097 L6.05443548,10.3868952 C6.30080645,10.6332661 6.69919355,10.6332661 6.94294355,10.3868952 L10.4209677,6.90887097 C10.6673387,6.6625 10.6673387,6.2641129 10.4209677,6.0203629 L10.1352823,5.73205645 C9.88629032,5.48306452 9.48004032,5.48830645 9.23629032,5.74254032 Z" id="Shape"></path>
        </g>
    </g>
</svg>