<?xml version="1.0" encoding="UTF-8"?>
<svg width="13px" height="13px" viewBox="0 0 13 13" version="1.1" xmlns="http://www.w3.org/2000/svg" xmlns:xlink="http://www.w3.org/1999/xlink">
    <!-- Generator: Sketch 58 (84663) - https://sketch.com -->
    <title>icons/directional-icons/arrow-left</title>
    <desc>Created with Sketch.</desc>
    <g id="icons/directional-icons/arrow-left" stroke="none" stroke-width="1" fill="none" fill-rule="evenodd">
        <g id="arrow-left" fill="#676A6C" fill-rule="nonzero">
            <path d="M7.4844098,12.1125571 L6.84164811,12.7714612 C6.56948775,13.0504566 6.12939866,13.0504566 5.86013363,12.7714612 L0.231625835,7.00456621 C-0.0405345212,6.72557078 -0.0405345212,6.27442922 0.231625835,5.99840183 L5.86013363,0.228538813 C6.13229399,-0.050456621 6.57238307,-0.050456621 6.84164811,0.228538813 L7.4844098,0.887442922 C7.75946548,1.16940639 7.75367483,1.62945205 7.47282851,1.90547945 L3.98396437,5.31278539 L12.3051225,5.31278539 C12.6902004,5.31278539 13,5.6303653 13,6.02511416 L13,6.97488584 C13,7.3696347 12.6902004,7.68721461 12.3051225,7.68721461 L3.98396437,7.68721461 L7.47282851,11.0945205 C7.75657016,11.3705479 7.7623608,11.8305936 7.4844098,12.1125571 Z" id="Path"></path>
        </g>
    </g>
</svg>