<?xml version="1.0" encoding="UTF-8"?>
<svg width="13px" height="13px" viewBox="0 0 13 13" version="1.1" xmlns="http://www.w3.org/2000/svg" xmlns:xlink="http://www.w3.org/1999/xlink">
    <!-- Generator: Sketch 58 (84663) - https://sketch.com -->
    <title>icons/directional-icons/arrows</title>
    <desc>Created with Sketch.</desc>
    <g id="icons/directional-icons/arrows" stroke="none" stroke-width="1" fill="none" fill-rule="evenodd">
        <g id="arrows-alt" fill="#676A6C" fill-rule="nonzero">
            <path d="M8.95051267,10.7939202 L6.94359649,12.7969319 C6.70607407,13.0339922 6.32101559,13.0339922 6.08349318,12.7969319 L4.076577,10.7939202 C3.69344444,10.4115331 3.96479727,9.75768872 4.50664133,9.75771401 L5.80314425,9.75771401 L5.80311891,7.20817121 L3.24863158,7.20817121 L3.24863158,8.50215175 C3.24863158,9.04294163 2.59353801,9.31376654 2.21038012,8.93137938 L0.203463938,6.9283677 C-0.0340584795,6.69130739 -0.0340584795,6.30697276 0.203463938,6.06993774 L2.21038012,4.06692607 C2.59351267,3.68453891 3.24863158,3.95536381 3.24863158,4.4961537 L3.24863158,5.79182879 L5.80311891,5.79182879 L5.80311891,3.24231128 L4.50489279,3.24231128 C3.96304873,3.24231128 3.69169591,2.58849222 4.07482846,2.20607977 L6.08174464,0.203068093 C6.31926706,-0.0339922179 6.70432554,-0.0339922179 6.94184795,0.203068093 L8.94876413,2.20607977 C9.33189669,2.58846693 9.06054386,3.24231128 8.51869981,3.24231128 L7.22219688,3.24231128 L7.22219688,5.79182879 L9.77668421,5.79182879 L9.77668421,4.49784825 C9.77668421,3.95705837 10.4317778,3.68623346 10.8149103,4.06862062 L12.8218265,6.0716323 C13.0593489,6.30869261 13.0593489,6.69302724 12.8218265,6.93006226 L10.8149103,8.93307393 C10.4317778,9.31546109 9.77665887,9.04463619 9.77668421,8.5038463 L9.77668421,7.20817121 L7.22222222,7.20817121 L7.22222222,9.75768872 L8.52044834,9.75768872 C9.0622924,9.75768872 9.33364522,10.4115078 8.95051267,10.7939202 Z" id="Path"></path>
        </g>
    </g>
</svg>