<?xml version="1.0" encoding="UTF-8"?>
<svg width="13px" height="13px" viewBox="0 0 13 13" version="1.1" xmlns="http://www.w3.org/2000/svg" xmlns:xlink="http://www.w3.org/1999/xlink">
    <!-- Generator: Sketch 58 (84663) - https://sketch.com -->
    <title>icons/directional-icons/arrow-circle-right</title>
    <desc>Created with Sketch.</desc>
    <g id="icons/directional-icons/arrow-circle-right" stroke="none" stroke-width="1" fill="none" fill-rule="evenodd">
        <g id="arrow-circle-right" fill="#676A6C" fill-rule="nonzero">
            <path d="M6.5,0 C10.0907258,0 13,2.90927419 13,6.5 C13,10.0907258 10.0907258,13 6.5,13 C2.90927419,13 0,10.0907258 0,6.5 C0,2.90927419 2.90927419,0 6.5,0 Z M5.74254032,3.76370968 L7.72137097,5.66129032 L2.93548387,5.66129032 C2.58689516,5.66129032 2.30645161,5.94173387 2.30645161,6.29032258 L2.30645161,6.70967742 C2.30645161,7.05826613 2.58689516,7.33870968 2.93548387,7.33870968 L7.72137097,7.33870968 L5.74254032,9.23629032 C5.48830645,9.48004032 5.48306452,9.88629032 5.73205645,10.1352823 L6.0203629,10.4209677 C6.26673387,10.6673387 6.66512097,10.6673387 6.90887097,10.4209677 L10.3868952,6.94556452 C10.6332661,6.69919355 10.6332661,6.30080645 10.3868952,6.05705645 L6.90887097,2.57641129 C6.6625,2.33004032 6.2641129,2.33004032 6.0203629,2.57641129 L5.73205645,2.86209677 C5.48306452,3.11370968 5.48830645,3.51995968 5.74254032,3.76370968 Z" id="Shape"></path>
        </g>
    </g>
</svg>