<?xml version="1.0" encoding="UTF-8"?>
<svg width="13px" height="13px" viewBox="0 0 13 13" version="1.1" xmlns="http://www.w3.org/2000/svg" xmlns:xlink="http://www.w3.org/1999/xlink">
    <!-- Generator: Sketch 58 (84663) - https://sketch.com -->
    <title>icons/directional-icons/arrow-o-circle-left</title>
    <desc>Created with Sketch.</desc>
    <g id="icons/directional-icons/arrow-o-circle-left" stroke="none" stroke-width="1" fill="none" fill-rule="evenodd">
        <g id="arrow-alt-circle-left" fill="#676A6C" fill-rule="nonzero">
            <path d="M0,6.5 C0,10.0907258 2.90927419,13 6.5,13 C10.0907258,13 13,10.0907258 13,6.5 C13,2.90927419 10.0907258,0 6.5,0 C2.90927419,0 0,2.90927419 0,6.5 Z M11.7419355,6.5 C11.7419355,9.39616935 9.39616935,11.7419355 6.5,11.7419355 C3.60383065,11.7419355 1.25806452,9.39616935 1.25806452,6.5 C1.25806452,3.60383065 3.60383065,1.25806452 6.5,1.25806452 C9.39616935,1.25806452 11.7419355,3.60383065 11.7419355,6.5 Z M9.85483871,5.97580645 L9.85483871,7.02419355 C9.85483871,7.19717742 9.71330645,7.33870968 9.54032258,7.33870968 L6.5,7.33870968 L6.5,9.09475806 C6.5,9.37520161 6.16189516,9.5141129 5.96270161,9.31754032 L3.36794355,6.72278226 C3.24475806,6.59959677 3.24475806,6.40040323 3.36794355,6.27721774 L5.96270161,3.68245968 C6.16189516,3.48326613 6.5,3.62479839 6.5,3.90524194 L6.5,5.66129032 L9.54032258,5.66129032 C9.71330645,5.66129032 9.85483871,5.80282258 9.85483871,5.97580645 Z" id="Shape"></path>
        </g>
    </g>
</svg>