<?xml version="1.0" encoding="UTF-8"?>
<svg width="13px" height="13px" viewBox="0 0 13 13" version="1.1" xmlns="http://www.w3.org/2000/svg" xmlns:xlink="http://www.w3.org/1999/xlink">
    <!-- Generator: Sketch 58 (84663) - https://sketch.com -->
    <title>icons/directional-icons/arrow-down</title>
    <desc>Created with Sketch.</desc>
    <g id="icons/directional-icons/arrow-down" stroke="none" stroke-width="1" fill="none" fill-rule="evenodd">
        <g id="arrow-down" fill="#676A6C" fill-rule="nonzero">
            <path d="M12.1125571,5.5155902 L12.7714612,6.15835189 C13.0504566,6.43051225 13.0504566,6.87060134 12.7714612,7.13986637 L7.00456621,12.7683742 C6.72557078,13.0405345 6.27442922,13.0405345 5.99840183,12.7683742 L0.228538813,7.13986637 C-0.050456621,6.86770601 -0.050456621,6.42761693 0.228538813,6.15835189 L0.887442922,5.5155902 C1.16940639,5.24053452 1.62945205,5.24632517 1.90547945,5.52717149 L5.31278539,9.01603563 L5.31278539,0.694877506 C5.31278539,0.309799555 5.6303653,0 6.02511416,0 L6.97488584,0 C7.3696347,0 7.68721461,0.309799555 7.68721461,0.694877506 L7.68721461,9.01603563 L11.0945205,5.52717149 C11.3705479,5.24342984 11.8305936,5.2376392 12.1125571,5.5155902 Z" id="Path"></path>
        </g>
    </g>
</svg>