<?xml version="1.0" encoding="UTF-8"?>
<svg width="13px" height="13px" viewBox="0 0 13 13" version="1.1" xmlns="http://www.w3.org/2000/svg" xmlns:xlink="http://www.w3.org/1999/xlink">
    <!-- Generator: Sketch 58 (84663) - https://sketch.com -->
    <title>icons/directional-icons/caret-square-up</title>
    <desc>Created with Sketch.</desc>
    <g id="icons/directional-icons/caret-square-up" stroke="none" stroke-width="1" fill="none" fill-rule="evenodd">
        <g id="caret-square-up" fill="#676A6C" fill-rule="nonzero">
            <path d="M9.36986607,7.89285714 L3.63013393,7.89285714 C3.31964286,7.89285714 3.16294643,7.515625 3.38348214,7.29799107 L6.25334821,4.44553571 C6.38973214,4.30915179 6.60736607,4.30915179 6.74375,4.44553571 L9.61361607,7.29799107 C9.83705357,7.515625 9.68035714,7.89285714 9.36986607,7.89285714 L9.36986607,7.89285714 Z M13,1.39285714 L13,11.6071429 C13,12.3761161 12.3761161,13 11.6071429,13 L1.39285714,13 C0.623883929,13 0,12.3761161 0,11.6071429 L0,1.39285714 C0,0.623883929 0.623883929,0 1.39285714,0 L11.6071429,0 C12.3761161,0 13,0.623883929 13,1.39285714 Z M11.6071429,11.4330357 L11.6071429,1.56696429 C11.6071429,1.47120536 11.5287946,1.39285714 11.4330357,1.39285714 L1.56696429,1.39285714 C1.47120536,1.39285714 1.39285714,1.47120536 1.39285714,1.56696429 L1.39285714,11.4330357 C1.39285714,11.5287946 1.47120536,11.6071429 1.56696429,11.6071429 L11.4330357,11.6071429 C11.5287946,11.6071429 11.6071429,11.5287946 11.6071429,11.4330357 Z" id="Shape"></path>
        </g>
    </g>
</svg>