<?xml version="1.0" encoding="UTF-8"?>
<svg width="13px" height="13px" viewBox="0 0 13 13" version="1.1" xmlns="http://www.w3.org/2000/svg" xmlns:xlink="http://www.w3.org/1999/xlink">
    <!-- Generator: Sketch 58 (84663) - https://sketch.com -->
    <title>icons/directional-icons/caret-square-down</title>
    <desc>Created with Sketch.</desc>
    <g id="icons/directional-icons/caret-square-down" stroke="none" stroke-width="1" fill="none" fill-rule="evenodd">
        <g id="caret-square-down" fill="#676A6C" fill-rule="nonzero">
            <path d="M3.63013393,5.10714286 L9.36986607,5.10714286 C9.68035714,5.10714286 9.83705357,5.484375 9.61651786,5.70200893 L6.74665179,8.55446429 C6.61026786,8.69084821 6.39263393,8.69084821 6.25625,8.55446429 L3.38638393,5.70200893 C3.16294643,5.484375 3.31964286,5.10714286 3.63013393,5.10714286 Z M13,1.39285714 L13,11.6071429 C13,12.3761161 12.3761161,13 11.6071429,13 L1.39285714,13 C0.623883929,13 0,12.3761161 0,11.6071429 L0,1.39285714 C0,0.623883929 0.623883929,0 1.39285714,0 L11.6071429,0 C12.3761161,0 13,0.623883929 13,1.39285714 Z M11.6071429,11.4330357 L11.6071429,1.56696429 C11.6071429,1.47120536 11.5287946,1.39285714 11.4330357,1.39285714 L1.56696429,1.39285714 C1.47120536,1.39285714 1.39285714,1.47120536 1.39285714,1.56696429 L1.39285714,11.4330357 C1.39285714,11.5287946 1.47120536,11.6071429 1.56696429,11.6071429 L11.4330357,11.6071429 C11.5287946,11.6071429 11.6071429,11.5287946 11.6071429,11.4330357 Z" id="Shape"></path>
        </g>
    </g>
</svg>