<?xml version="1.0" encoding="UTF-8"?>
<svg width="13px" height="13px" viewBox="0 0 13 13" version="1.1" xmlns="http://www.w3.org/2000/svg" xmlns:xlink="http://www.w3.org/1999/xlink">
    <!-- Generator: Sketch 58 (84663) - https://sketch.com -->
    <title>icons/directional-icons/chevron-circle-left</title>
    <desc>Created with Sketch.</desc>
    <g id="icons/directional-icons/chevron-circle-left" stroke="none" stroke-width="1" fill="none" fill-rule="evenodd">
        <g id="chevron-circle-left" fill="#676A6C" fill-rule="nonzero">
            <path d="M6.5,13 C2.90927419,13 0,10.0907258 0,6.5 C0,2.90927419 2.90927419,0 6.5,0 C10.0907258,0 13,2.90927419 13,6.5 C13,10.0907258 10.0907258,13 6.5,13 Z M3.51471774,6.94556452 L7.06612903,10.4969758 C7.3125,10.7433468 7.7108871,10.7433468 7.9546371,10.4969758 L8.40020161,10.0514113 C8.64657258,9.80504032 8.64657258,9.40665323 8.40020161,9.16290323 L5.73729839,6.5 L8.40020161,3.83709677 C8.64657258,3.59072581 8.64657258,3.19233871 8.40020161,2.94858871 L7.9546371,2.50302419 C7.70826613,2.25665323 7.30987903,2.25665323 7.06612903,2.50302419 L3.51471774,6.05443548 C3.26834677,6.30080645 3.26834677,6.69919355 3.51471774,6.94556452 Z" id="Shape"></path>
        </g>
    </g>
</svg>