<?xml version="1.0" encoding="UTF-8"?>
<svg width="11px" height="13px" viewBox="0 0 11 13" version="1.1" xmlns="http://www.w3.org/2000/svg" xmlns:xlink="http://www.w3.org/1999/xlink">
    <!-- Generator: Sketch 58 (84663) - https://sketch.com -->
    <title>icons/directional-icons/hand-point-down</title>
    <desc>Created with Sketch.</desc>
    <g id="icons/directional-icons/hand-point-down" stroke="none" stroke-width="1" fill="none" fill-rule="evenodd">
        <g id="hand-point-down" fill="#676A6C" fill-rule="nonzero">
            <path d="M4.63571429,13 C5.75575,13 6.67857143,12.041123 6.67857143,10.8875 L6.67857143,9.98240039 C6.86663369,9.93915589 7.04865853,9.87151278 7.22032143,9.78107813 C7.76064732,9.84473242 8.32469196,9.69213477 8.76206473,9.37520898 C10.050808,9.34628906 11,8.42565039 11,6.83766992 L11,6.296875 C11,4.77183789 10.0178571,3.79559375 10.0178571,3.0671875 L10.0178571,2.99916602 C10.1394464,2.85324609 10.2142857,2.65547852 10.2142857,2.43752539 L10.2142857,0.8125 C10.2142857,0.363771484 9.89769196,0 9.50714286,0 L3.85,0 C3.45945089,0 3.14285714,0.363771484 3.14285714,0.8125 L3.14285714,2.4375 C3.14285714,2.65545313 3.21769643,2.8532207 3.33928571,2.99914062 L3.33928571,3.06716211 C3.33928571,3.24398242 3.18722545,3.44451758 2.75815179,3.83352734 L2.75451786,3.83680273 L2.75093304,3.84012891 C2.5069442,4.06498828 2.23921205,4.30010547 1.93445312,4.49650195 C1.1917567,4.97143359 0,5.26819922 0,6.41875 C0,7.8641875 0.866397321,8.7546875 2.04285714,8.7546875 C2.23992411,8.7546875 2.42316741,8.73401953 2.59285714,8.6994375 L2.59285714,10.8875 C2.59285714,12.0325918 3.52837277,13 4.63571429,13 Z M4.63571429,11.78125 C4.1765625,11.78125 3.77142857,11.3553223 3.77142857,10.8875 L3.77142857,6.865625 C3.34603795,6.865625 2.90714286,7.5359375 2.04285714,7.5359375 C1.39464286,7.5359375 1.17857143,7.01225586 1.17857143,6.41875 C1.17857143,6.19546484 1.98176786,5.89963867 2.55602679,5.53195703 C2.91389509,5.3015625 3.22449777,5.03623047 3.53510045,4.74995117 C3.98624777,4.34093359 4.43457143,3.89083398 4.50732366,3.25 L8.84721652,3.25 C8.93963616,4.33646484 9.82142857,5.14183008 9.82142857,6.296875 L9.82142857,6.83766992 C9.82142857,7.86659961 9.27641295,8.28808398 8.3156808,8.12246094 C8.11922768,8.49346875 7.481375,8.73566992 6.99899554,8.45063477 C6.5515067,8.94232422 5.86017634,8.90225781 5.5,8.57631836 L5.5,10.8875 C5.5,11.3692871 5.1016183,11.78125 4.63571429,11.78125 Z M8.05357143,1.625 C8.05357143,1.28844727 8.31739955,1.015625 8.64285714,1.015625 C8.96831473,1.015625 9.23214286,1.28844727 9.23214286,1.625 C9.23214286,1.96155273 8.96831473,2.234375 8.64285714,2.234375 C8.31739955,2.234375 8.05357143,1.96155273 8.05357143,1.625 Z" id="Shape"></path>
        </g>
    </g>
</svg>