<?xml version="1.0" encoding="UTF-8"?>
<svg width="11px" height="13px" viewBox="0 0 11 13" version="1.1" xmlns="http://www.w3.org/2000/svg" xmlns:xlink="http://www.w3.org/1999/xlink">
    <!-- Generator: Sketch 58 (84663) - https://sketch.com -->
    <title>icons/directional-icons/hand-point-up</title>
    <desc>Created with Sketch.</desc>
    <g id="icons/directional-icons/hand-point-up" stroke="none" stroke-width="1" fill="none" fill-rule="evenodd">
        <g id="hand-point-up" fill="#676A6C" fill-rule="nonzero">
            <path d="M2.59285714,2.1125 L2.59285714,4.30058789 C2.41169973,4.26370392 2.22749246,4.24519947 2.04285714,4.24533789 C0.866397321,4.24533789 0,5.13583789 0,6.58127539 C0,7.73182617 1.1917567,8.0285918 1.93442857,8.50352344 C2.23921205,8.69991992 2.5069442,8.93501172 2.75090848,9.15989648 L2.7544933,9.16322266 L2.75812723,9.16649805 C3.18722545,9.55545703 3.33928571,9.75599219 3.33928571,9.9328125 L3.33928571,10.000834 C3.21769643,10.1467539 3.14285714,10.3445215 3.14285714,10.5624746 L3.14285714,12.1874746 C3.14285714,12.6362031 3.45945089,12.9999746 3.85,12.9999746 L9.50714286,12.9999746 C9.89769196,12.9999746 10.2142857,12.6362031 10.2142857,12.1874746 L10.2142857,10.5624746 C10.2142857,10.3445215 10.1394464,10.1467539 10.0178571,10.000834 L10.0178571,9.9328125 C10.0178571,9.20440625 11,8.22816211 11,6.703125 L11,6.16233008 C11,4.57434961 10.050808,3.65373633 8.76206473,3.62479102 C8.32469196,3.30786523 7.76064732,3.15529297 7.22032143,3.21892187 C7.04865853,3.12848722 6.86663369,3.06084411 6.67857143,3.01759961 L6.67857143,2.1125 C6.67857143,0.958876953 5.75575,0 4.63571429,0 C3.52837277,0 2.59285714,0.967408203 2.59285714,2.1125 Z M5.5,2.1125 L5.5,4.42370703 C5.86017634,4.09776758 6.5515067,4.05770117 6.99899554,4.54939062 C7.481375,4.26433008 8.11922768,4.50655664 8.3156808,4.87756445 C9.27641295,4.71191602 9.82142857,5.13340039 9.82142857,6.16233008 L9.82142857,6.703125 C9.82142857,7.85816992 8.93963616,8.66353516 8.84724107,9.75 L4.50732366,9.75 C4.43454688,9.10916602 3.98624777,8.65906641 3.53510045,8.25004883 C3.22449777,7.96376953 2.91389509,7.6984375 2.55602679,7.46804297 C1.98176786,7.10036133 1.17857143,6.80453516 1.17857143,6.58125 C1.17857143,5.98774414 1.39464286,5.4640625 2.04285714,5.4640625 C2.90714286,5.4640625 3.34603795,6.134375 3.77142857,6.134375 L3.77142857,2.1125 C3.77142857,1.64467773 4.1765625,1.21875 4.63571429,1.21875 C5.1016183,1.21875 5.5,1.63071289 5.5,2.1125 Z M8.64285714,10.765625 C8.96831473,10.765625 9.23214286,11.0384473 9.23214286,11.375 C9.23214286,11.7115527 8.96831473,11.984375 8.64285714,11.984375 C8.31739955,11.984375 8.05357143,11.7115527 8.05357143,11.375 C8.05357143,11.0384473 8.31739955,10.765625 8.64285714,10.765625 Z" id="Shape"></path>
        </g>
    </g>
</svg>