<?xml version="1.0" encoding="UTF-8"?>
<svg width="13px" height="11px" viewBox="0 0 13 11" version="1.1" xmlns="http://www.w3.org/2000/svg" xmlns:xlink="http://www.w3.org/1999/xlink">
    <!-- Generator: Sketch 58 (84663) - https://sketch.com -->
    <title>icons/directional-icons/hand-point-left</title>
    <desc>Created with Sketch.</desc>
    <g id="icons/directional-icons/hand-point-left" stroke="none" stroke-width="1" fill="none" fill-rule="evenodd">
        <g id="hand-point-left" fill="#676A6C" fill-rule="nonzero">
            <path d="M0,4.60174851 C0,5.71011719 0.958878826,6.62332589 2.11250413,6.62332589 L3.0176055,6.62332589 C3.06085009,6.80942917 3.12849333,6.98955792 3.21892816,7.15943266 C3.15527374,7.69413016 3.3078717,8.25229934 3.6247981,8.68511614 C3.65371807,9.96043504 4.57435854,10.8997396 6.16234211,10.8997396 L6.70313809,10.8997396 C8.22817818,10.8997396 9.20442423,9.92782738 9.9328319,9.92782738 L10.0008535,9.92782738 C10.1467737,10.0481501 10.3445417,10.1222098 10.5624952,10.1222098 L12.1874984,10.1222098 C12.6362278,10.1222098 13,9.80891392 13,9.42243304 L13,3.82421875 C13,3.43773786 12.6362278,3.12444196 12.1874984,3.12444196 L10.5624952,3.12444196 C10.3445417,3.12444196 10.1467737,3.19850167 10.0008535,3.3188244 L9.9328319,3.3188244 C9.75601124,3.3188244 9.55547569,3.1683481 9.16646517,2.74374395 L9.16318977,2.74014788 L9.15986359,2.7366004 C8.93500378,2.49515311 8.69988613,2.23020984 8.50348926,1.92862549 C8.02858209,1.19366548 7.73181588,0.0143229167 6.58126285,0.0143229167 C5.13582253,0.0143229167 4.24532079,0.871695266 4.24532079,2.0359003 C4.24532079,2.23091448 4.2659888,2.412249 4.3005709,2.58017113 L2.11250413,2.58017113 C0.967410093,2.58017113 0,3.5059418 0,4.60174851 Z M1.21875238,4.60174851 C1.21875238,4.14737956 1.64468095,3.74646577 2.11250413,3.74646577 L6.13438698,3.74646577 C6.13438698,3.3255063 5.46407317,2.89118304 5.46407317,2.0359003 C5.46407317,1.39443824 5.98775584,1.18061756 6.58126285,1.18061756 C6.80454845,1.18061756 7.1003752,1.97544736 7.46805755,2.54372442 C7.69845254,2.89786493 7.96378509,3.20523217 8.25006494,3.5125994 C8.65908332,3.95904727 9.10918381,4.40270089 9.75001904,4.47469529 L9.75001904,8.76938093 C8.66355208,8.86083787 7.85818527,9.73344494 6.70313809,9.73344494 L6.16234211,9.73344494 C5.13341042,9.73344494 4.71192522,9.19410656 4.87754859,8.24338205 C4.50654005,8.04897531 4.26433841,7.41776693 4.54937412,6.94041225 C4.05768371,6.49758475 4.09775019,5.81345575 4.42369028,5.45703125 L2.11250413,5.45703125 C1.63071608,5.45703125 1.21875238,5.06279936 1.21875238,4.60174851 Z M11.3750222,7.98400298 C11.7115756,7.98400298 11.9843984,8.24508289 11.9843984,8.5671503 C11.9843984,8.8892177 11.7115756,9.15029762 11.3750222,9.15029762 C11.0384688,9.15029762 10.765646,8.8892177 10.765646,8.5671503 C10.765646,8.24508289 11.0384688,7.98400298 11.3750222,7.98400298 Z" id="Shape"></path>
        </g>
    </g>
</svg>