<?xml version="1.0" encoding="UTF-8"?>
<svg width="13px" height="11px" viewBox="0 0 13 11" version="1.1" xmlns="http://www.w3.org/2000/svg" xmlns:xlink="http://www.w3.org/1999/xlink">
    <!-- Generator: Sketch 58 (84663) - https://sketch.com -->
    <title>icons/directional-icons/hand-point-right</title>
    <desc>Created with Sketch.</desc>
    <g id="icons/directional-icons/hand-point-right" stroke="none" stroke-width="1" fill="none" fill-rule="evenodd">
        <g id="hand-point-right" fill="#676A6C" fill-rule="nonzero">
            <path d="M10.8875,2.59285714 L8.69941211,2.59285714 C8.73629608,2.41169973 8.75480053,2.22749246 8.75466211,2.04285714 C8.75466211,0.866397321 7.86416211,0 6.41872461,0 C5.26817383,0 4.9714082,1.1917567 4.49647656,1.93442857 C4.30008008,2.23921205 4.06498828,2.5069442 3.84010352,2.75090848 L3.83677734,2.7544933 L3.83350195,2.75812723 C3.44454297,3.18722545 3.24400781,3.33928571 3.0671875,3.33928571 L2.99916602,3.33928571 C2.85324609,3.21769643 2.65547852,3.14285714 2.43752539,3.14285714 L0.8125,3.14285714 C0.363771484,3.14285714 0,3.45945089 0,3.85 L0,9.50714286 C0,9.89769196 0.363771484,10.2142857 0.8125,10.2142857 L2.4375,10.2142857 C2.65545313,10.2142857 2.8532207,10.1394464 2.99914062,10.0178571 L3.06716211,10.0178571 C3.79556836,10.0178571 4.7718125,11 6.29684961,11 L6.83764453,11 C8.425625,11 9.34623828,10.050808 9.37518359,8.76206473 C9.69210938,8.32469196 9.84468164,7.76064732 9.78105273,7.22032143 C9.87148739,7.04865853 9.9391305,6.86663369 9.982375,6.67857143 L10.8875,6.67857143 C12.041123,6.67857143 13,5.75575 13,4.63571429 C13,3.52837277 12.0325918,2.59285714 10.8875,2.59285714 Z M10.8875,5.5 L8.57629297,5.5 C8.90223242,5.86017634 8.94229883,6.5515067 8.45060938,6.99899554 C8.73566992,7.481375 8.49344336,8.11922768 8.12243555,8.3156808 C8.28808398,9.27641295 7.86659961,9.82142857 6.83766992,9.82142857 L6.296875,9.82142857 C5.14183008,9.82142857 4.33646484,8.93963616 3.25,8.84724107 L3.25,4.50732366 C3.89083398,4.43454688 4.34093359,3.98624777 4.74995117,3.53510045 C5.03623047,3.22449777 5.3015625,2.91389509 5.53195703,2.55602679 C5.89963867,1.98176786 6.19546484,1.17857143 6.41875,1.17857143 C7.01225586,1.17857143 7.5359375,1.39464286 7.5359375,2.04285714 C7.5359375,2.90714286 6.865625,3.34603795 6.865625,3.77142857 L10.8875,3.77142857 C11.3553223,3.77142857 11.78125,4.1765625 11.78125,4.63571429 C11.78125,5.1016183 11.3692871,5.5 10.8875,5.5 Z M2.234375,8.64285714 C2.234375,8.96831473 1.96155273,9.23214286 1.625,9.23214286 C1.28844727,9.23214286 1.015625,8.96831473 1.015625,8.64285714 C1.015625,8.31739955 1.28844727,8.05357143 1.625,8.05357143 C1.96155273,8.05357143 2.234375,8.31739955 2.234375,8.64285714 Z" id="Shape"></path>
        </g>
    </g>
</svg>