<?xml version="1.0" encoding="UTF-8"?>
<svg width="13px" height="13px" viewBox="0 0 13 13" version="1.1" xmlns="http://www.w3.org/2000/svg" xmlns:xlink="http://www.w3.org/1999/xlink">
    <!-- Generator: Sketch 58 (84663) - https://sketch.com -->
    <title>icons/form-controls/check-double</title>
    <desc>Created with Sketch.</desc>
    <g id="icons/form-controls/check-double" stroke="none" stroke-width="1" fill="none" fill-rule="evenodd">
        <g id="check-double-copy" fill="#676A6C" fill-rule="nonzero">
            <path d="M12.8226121,4.4463035 L11.8191033,3.44474708 C11.5808967,3.20700389 11.1957115,3.20700389 10.960039,3.44474708 L4.89083821,9.50214008 L2.06783626,6.68210117 C1.82962963,6.44435798 1.44444444,6.44435798 1.20877193,6.68210117 L0.202729045,7.68618677 C-0.0354775828,7.92392996 -0.0354775828,8.30836576 0.202729045,8.54610895 L4.46003899,12.7976654 C4.69824561,13.0354086 5.0834308,13.0354086 5.31910331,12.7976654 L12.820078,5.30622568 C13.0582846,5.06595331 13.0582846,4.68151751 12.8226121,4.4463035 Z M4.60448343,7.12723735 C4.76159844,7.28657588 5.02007797,7.28657588 5.17719298,7.12723735 L10.4481481,1.8614786 C10.6052632,1.70214008 10.6052632,1.44669261 10.4481481,1.28988327 L9.30272904,0.144163424 C9.14561404,-0.0151750973 8.8871345,-0.0151750973 8.73001949,0.144163424 L4.89083821,3.97587549 L3.48693957,2.57217899 C3.32982456,2.41284047 3.07134503,2.41284047 2.91423002,2.57217899 L1.7662768,3.71789883 C1.60916179,3.87723735 1.60916179,4.13268482 1.7662768,4.28949416 L4.60448343,7.12723735 Z" id="Shape"></path>
        </g>
    </g>
</svg>