<?xml version="1.0" encoding="UTF-8"?>
<svg width="13px" height="13px" viewBox="0 0 13 13" version="1.1" xmlns="http://www.w3.org/2000/svg" xmlns:xlink="http://www.w3.org/1999/xlink">
    <!-- Generator: Sketch 58 (84663) - https://sketch.com -->
    <title>icons/form-controls/check-square</title>
    <desc>Created with Sketch.</desc>
    <g id="icons/form-controls/check-square" stroke="none" stroke-width="1" fill="none" fill-rule="evenodd">
        <g id="check-square" fill="#676A6C" fill-rule="nonzero">
            <path d="M11.6071429,13 L1.39285714,13 C0.62359375,13 0,12.3764063 0,11.6071429 L0,1.39285714 C0,0.62359375 0.62359375,0 1.39285714,0 L11.6071429,0 C12.3764063,0 13,0.62359375 13,1.39285714 L13,11.6071429 C13,12.3764063 12.3764063,13 11.6071429,13 Z M5.66759375,10.1545379 L11.0068795,4.81525223 C11.188183,4.63394866 11.188183,4.33996875 11.0068795,4.15866518 L10.3502924,3.50207813 C10.1689888,3.32077455 9.87500893,3.32074554 9.69367634,3.50207813 L5.33928571,7.85643973 L3.30632366,5.82347768 C3.12502009,5.64217411 2.83104018,5.64217411 2.64970759,5.82347768 L1.99312054,6.48006473 C1.81181696,6.6613683 1.81181696,6.95534821 1.99312054,7.13665179 L5.01097768,10.1545089 C5.19231027,10.3358705 5.48626116,10.3358705 5.66759375,10.1545379 L5.66759375,10.1545379 Z" id="Shape"></path>
        </g>
    </g>
</svg>