<?xml version="1.0" encoding="UTF-8"?>
<svg width="13px" height="13px" viewBox="0 0 13 13" version="1.1" xmlns="http://www.w3.org/2000/svg" xmlns:xlink="http://www.w3.org/1999/xlink">
    <!-- Generator: Sketch 58 (84663) - https://sketch.com -->
    <title>icons/form-controls/check-circle</title>
    <desc>Created with Sketch.</desc>
    <g id="icons/form-controls/check-circle" stroke="none" stroke-width="1" fill="none" fill-rule="evenodd">
        <g id="check-circle" fill="#676A6C" fill-rule="nonzero">
            <path d="M13,6.5 C13,10.0898609 10.0898609,13 6.5,13 C2.91013911,13 0,10.0898609 0,6.5 C0,2.91013911 2.91013911,0 6.5,0 C10.0898609,0 13,2.91013911 13,6.5 Z M5.74814919,9.94169758 L10.5707298,5.11911694 C10.7344879,4.95535887 10.7344879,4.68982863 10.5707298,4.52607056 L9.97768347,3.93302419 C9.8139254,3.76923992 9.54839516,3.76923992 9.38461089,3.93302419 L5.4516129,7.86599597 L3.61538911,6.02977218 C3.45163105,5.86601411 3.18610081,5.86601411 3.02231653,6.02977218 L2.42927016,6.62281855 C2.2655121,6.78657661 2.2655121,7.05210685 2.42927016,7.21586492 L5.15507661,9.94167137 C5.31886089,10.1054556 5.58436492,10.1054556 5.74814919,9.94169758 L5.74814919,9.94169758 Z" id="Shape"></path>
        </g>
    </g>
</svg>