<?xml version="1.0" encoding="UTF-8"?>
<svg width="13px" height="13px" viewBox="0 0 13 13" version="1.1" xmlns="http://www.w3.org/2000/svg" xmlns:xlink="http://www.w3.org/1999/xlink">
    <!-- Generator: Sketch 58 (84663) - https://sketch.com -->
    <title>icons/form-controls/check-circle-o</title>
    <desc>Created with Sketch.</desc>
    <g id="icons/form-controls/check-circle-o" stroke="none" stroke-width="1" fill="none" fill-rule="evenodd">
        <g id="check-circle" fill="#676A6C" fill-rule="nonzero">
            <path d="M6.5,0 C2.91013911,0 0,2.91013911 0,6.5 C0,10.0898609 2.91013911,13 6.5,13 C10.0898609,13 13,10.0898609 13,6.5 C13,2.91013911 10.0898609,0 6.5,0 Z M6.5,1.25806452 C9.39700806,1.25806452 11.7419355,3.60254637 11.7419355,6.5 C11.7419355,9.39700806 9.39745363,11.7419355 6.5,11.7419355 C3.60299194,11.7419355 1.25806452,9.39745363 1.25806452,6.5 C1.25806452,3.60299194 3.60254637,1.25806452 6.5,1.25806452 L6.5,1.25806452 Z M10.1747016,4.67232056 L9.58404032,4.07688911 C9.46171976,3.95357258 9.26257863,3.95276008 9.1392621,4.07510685 L5.43447177,7.75012298 L3.86734274,6.17028226 C3.74502218,6.04696573 3.54588105,6.04615323 3.42256452,6.16847379 L2.82710685,6.75913508 C2.70379032,6.88145565 2.70297782,7.08059677 2.8253246,7.20393952 L5.20466532,9.60254435 C5.32698589,9.72586089 5.52612702,9.72667339 5.64944355,9.60432661 L10.1729456,5.117125 C10.2962359,4.99477823 10.2970222,4.7956371 10.1747016,4.67232056 L10.1747016,4.67232056 Z" id="Shape"></path>
        </g>
    </g>
</svg>