<?xml version="1.0" encoding="UTF-8"?>
<svg width="13px" height="13px" viewBox="0 0 13 13" version="1.1" xmlns="http://www.w3.org/2000/svg" xmlns:xlink="http://www.w3.org/1999/xlink">
    <!-- Generator: Sketch 58 (84663) - https://sketch.com -->
    <title>icons/form-controls/minus-square</title>
    <desc>Created with Sketch.</desc>
    <g id="icons/form-controls/minus-square" stroke="none" stroke-width="1" fill="none" fill-rule="evenodd">
        <g id="minus-square" fill="#676A6C" fill-rule="nonzero">
            <path d="M11.6071429,0 L1.39285714,0 C0.623883929,0 0,0.623883929 0,1.39285714 L0,11.6071429 C0,12.3761161 0.623883929,13 1.39285714,13 L11.6071429,13 C12.3761161,13 13,12.3761161 13,11.6071429 L13,1.39285714 C13,0.623883929 12.3761161,0 11.6071429,0 Z" id="Shape"></path>
        </g>
        <path d="M3.328125,7 C3.14765625,7 3,6.90357143 3,6.78571429 L3,6.21428571 C3,6.09642857 3.14765625,6 3.328125,6 L9.671875,6 C9.85234375,6 10,6.09642857 10,6.21428571 L10,6.78571429 C10,6.90357143 9.85234375,7 9.671875,7 L3.328125,7 Z" id="Path" fill="#FFFFFF" fill-rule="nonzero"></path>
    </g>
</svg>