<?xml version="1.0" encoding="UTF-8"?>
<svg width="13px" height="13px" viewBox="0 0 13 13" version="1.1" xmlns="http://www.w3.org/2000/svg" xmlns:xlink="http://www.w3.org/1999/xlink">
    <!-- Generator: Sketch 58 (84663) - https://sketch.com -->
    <title>icons/form-controls/plus-square-o</title>
    <desc>Created with Sketch.</desc>
    <g id="icons/form-controls/plus-square-o" stroke="none" stroke-width="1" fill="none" fill-rule="evenodd">
        <g id="plus-square" transform="translate(2.000000, 2.000000)" fill="#676A6C" fill-rule="nonzero">
            <path d="M8.21428571,4.03571429 L8.21428571,4.96428571 C8.21428571,5.15580357 8.05758929,5.3125 7.86607143,5.3125 L5.3125,5.3125 L5.3125,7.86607143 C5.3125,8.05758929 5.15580357,8.21428571 4.96428571,8.21428571 L4.03571429,8.21428571 C3.84419643,8.21428571 3.6875,8.05758929 3.6875,7.86607143 L3.6875,5.3125 L1.13392857,5.3125 C0.942410714,5.3125 0.785714286,5.15580357 0.785714286,4.96428571 L0.785714286,4.03571429 C0.785714286,3.84419643 0.942410714,3.6875 1.13392857,3.6875 L3.6875,3.6875 L3.6875,1.13392857 C3.6875,0.942410714 3.84419643,0.785714286 4.03571429,0.785714286 L4.96428571,0.785714286 C5.15580357,0.785714286 5.3125,0.942410714 5.3125,1.13392857 L5.3125,3.6875 L7.86607143,3.6875 C8.05758929,3.6875 8.21428571,3.84419643 8.21428571,4.03571429 Z" id="Shape"></path>
        </g>
        <rect id="Rectangle" stroke="#676A6C" x="0.5" y="0.5" width="12" height="12" rx="2"></rect>
    </g>
</svg>