<?xml version="1.0" encoding="UTF-8"?>
<svg width="13px" height="13px" viewBox="0 0 13 13" version="1.1" xmlns="http://www.w3.org/2000/svg" xmlns:xlink="http://www.w3.org/1999/xlink">
    <!-- Generator: Sketch 58 (84663) - https://sketch.com -->
    <title>icons/form-controls/plus-square</title>
    <desc>Created with Sketch.</desc>
    <g id="icons/form-controls/plus-square" stroke="none" stroke-width="1" fill="none" fill-rule="evenodd">
        <g id="plus-square" fill="#676A6C" fill-rule="nonzero">
            <path d="M11.6071429,0 L1.39285714,0 C0.623883929,0 0,0.623883929 0,1.39285714 L0,11.6071429 C0,12.3761161 0.623883929,13 1.39285714,13 L11.6071429,13 C12.3761161,13 13,12.3761161 13,11.6071429 L13,1.39285714 C13,0.623883929 12.3761161,0 11.6071429,0 Z M10.6785714,7.3125 C10.6785714,7.50401786 10.521875,7.66071429 10.3303571,7.66071429 L7.66071429,7.66071429 L7.66071429,10.3303571 C7.66071429,10.521875 7.50401786,10.6785714 7.3125,10.6785714 L5.6875,10.6785714 C5.49598214,10.6785714 5.33928571,10.521875 5.33928571,10.3303571 L5.33928571,7.66071429 L2.66964286,7.66071429 C2.478125,7.66071429 2.32142857,7.50401786 2.32142857,7.3125 L2.32142857,5.6875 C2.32142857,5.49598214 2.478125,5.33928571 2.66964286,5.33928571 L5.33928571,5.33928571 L5.33928571,2.66964286 C5.33928571,2.478125 5.49598214,2.32142857 5.6875,2.32142857 L7.3125,2.32142857 C7.50401786,2.32142857 7.66071429,2.478125 7.66071429,2.66964286 L7.66071429,5.33928571 L10.3303571,5.33928571 C10.521875,5.33928571 10.6785714,5.49598214 10.6785714,5.6875 L10.6785714,7.3125 Z" id="Shape"></path>
        </g>
    </g>
</svg>